<svg width="1920" height="1080" viewBox="0 0 1920 1080" fill="none" xmlns="http://www.w3.org/2000/svg">
<g clip-path="url(#clip0_10_10)">
<rect width="1920" height="1080" fill="white"/>
<path d="M1920 1080C948.235 1080 1646.5 -133.99 -0.499978 -0.500027L-0.5 1080L1920 1080Z" fill="url(#paint0_linear_10_10)" stroke="url(#paint1_linear_10_10)"/>
<g clip-path="url(#clip1_10_10)">
<g opacity="0.6">
<path d="M499.015 264.209C505.661 260.401 511.065 263.48 511.092 271.096L511.929 567.578C511.702 571.735 510.498 575.78 508.414 579.384C506.329 582.988 503.424 586.05 499.934 588.321L107.017 815.065C100.398 818.9 94.9946 815.821 94.9676 808.204L94.1841 511.804C94.4014 507.651 95.5992 503.609 97.6795 500.009C99.7598 496.408 102.663 493.351 106.153 491.088L499.015 264.209Z" fill="url(#paint2_linear_10_10)"/>
</g>
<g opacity="0.3">
<path d="M682.491 216.078C686.409 213.81 689.57 215.619 689.597 220.103L690.083 394.367C689.933 396.803 689.209 399.17 687.969 401.273C686.729 403.376 685.01 405.156 682.95 406.467L452.059 539.731C448.168 541.973 445.007 540.164 444.98 535.707L444.494 361.443C444.624 359.003 445.327 356.628 446.548 354.512C447.769 352.395 449.471 350.596 451.518 349.261L682.491 216.078Z" fill="url(#paint3_linear_10_10)"/>
</g>
<g opacity="0.3">
<path d="M353.85 286.384C355.768 285.276 357.335 286.168 357.335 288.382L357.578 374.056C357.519 375.258 357.174 376.429 356.573 377.471C355.971 378.514 355.131 379.398 354.12 380.052L240.457 445.766C238.539 446.873 236.972 445.982 236.972 443.767L236.702 357.986C236.763 356.784 237.109 355.614 237.71 354.572C238.311 353.53 239.151 352.645 240.16 351.989L353.85 286.384Z" fill="url(#paint4_linear_10_10)"/>
</g>
<g opacity="0.3">
<path d="M191.717 274.392C193.068 273.608 194.176 274.23 194.176 275.796L194.338 336.243C194.291 337.086 194.046 337.907 193.623 338.639C193.201 339.371 192.613 339.993 191.906 340.456L111.745 386.777C110.394 387.561 109.287 386.94 109.287 385.373L109.098 324.872C109.148 324.026 109.397 323.204 109.824 322.472C110.251 321.74 110.845 321.119 111.556 320.659L191.717 274.392Z" fill="url(#paint5_linear_10_10)"/>
</g>
<path d="M218.141 646.526L222.193 648.849L234.108 655.629L213.926 690.606L202.2 683.934L197.958 681.503L218.141 646.526Z" fill="#D3F2FF"/>
<path d="M178.668 701.625L178.695 709.053L178.749 727.473L150.083 744.003L150.029 725.88L150.002 718.155L178.668 701.625Z" fill="#D3F2FF"/>
<path d="M226.219 619.841L231.623 616.762C229.779 627.797 226.642 638.576 222.275 648.876L218.222 646.553L198.013 681.666L202.282 684.096C195.471 693.372 187.581 701.804 178.776 709.215V701.787L150.003 718.155V725.88C142.308 728.802 133.999 729.731 125.849 728.581L130.766 720.019L110.449 708.432L105.505 717.021C100.322 710.621 96.8792 702.992 95.5083 694.873L102.56 690.795V657.87L95.8055 661.76C97.8128 650.261 101.215 639.051 105.937 628.376L110.557 631.077L130.739 596.127L126.47 593.696C133.316 584.683 141.216 576.522 150.003 569.388V576.005L178.641 559.448V553.344C185.999 550.813 193.867 550.126 201.552 551.345L197.932 557.72L218.249 569.361L221.788 563.121C226.595 569.172 229.859 576.3 231.298 583.892L226.111 586.89L226.219 619.841ZM163.755 707C196.176 688.364 222.113 643.204 222.004 606.12C221.896 569.037 195.662 554.046 163.376 572.683C131.09 591.319 104.937 636.479 105.045 673.617C105.154 710.755 131.334 725.637 163.755 707Z" fill="#D3F2FF"/>
<path d="M178.614 533.519L178.668 553.263V559.367L150.029 575.924L150.002 569.307L149.948 550.049L178.614 533.519Z" fill="#D3F2FF"/>
<path d="M248.643 573.898L248.724 606.823L231.541 616.735L226.219 619.814L226.138 586.89L231.325 583.892L248.643 573.898Z" fill="#D3F2FF"/>
<path d="M213.764 530.17L234.081 541.757L221.788 563.068L218.249 569.226L197.932 557.585L201.579 551.264L213.764 530.17Z" fill="#D3F2FF"/>
<path d="M110.476 708.324L130.793 719.911L125.876 728.473L114.934 747.406L94.5894 735.792L105.531 716.913L110.476 708.324Z" fill="#D3F2FF"/>
<path d="M102.506 657.762L102.587 690.687L95.5351 694.765L80.1081 703.678L80 670.754L95.7512 661.652L102.506 657.762Z" fill="#D3F2FF"/>
<path d="M114.772 586.971L126.47 593.615L130.739 596.046L110.557 630.996L105.937 628.376L94.5625 621.948L114.772 586.971Z" fill="#D3F2FF"/>
<path d="M163.079 593.399C185.504 580.462 203.605 590.86 203.794 616.627C203.984 642.394 185.747 673.752 163.268 686.689C140.79 699.627 122.742 689.228 122.553 663.488C122.364 637.748 140.654 606.336 163.079 593.399ZM163.268 664.623C175.075 657.789 184.666 641.26 184.612 627.674C184.558 614.088 174.94 608.767 163.133 615.493C151.326 622.218 141.789 638.829 141.816 652.387C141.843 665.946 151.461 671.294 163.268 664.623Z" fill="#D3F2FF"/>
<path d="M766.03 569.901L768.38 571.251L775.351 575.222L763.571 595.614L756.736 591.724L754.25 590.293L766.03 569.901Z" fill="#D3F2FF"/>
<path d="M743.01 602.042V606.363L743.037 617.113L726.341 626.756L726.314 616.168L726.287 611.684L743.01 602.042Z" fill="#D3F2FF"/>
<path d="M770.73 554.316L773.837 552.534C772.789 558.966 770.975 565.25 768.434 571.251L766.083 569.901L754.304 590.293L756.789 591.697C752.801 597.113 748.175 602.028 743.01 606.336V602.015L726.286 611.738V616.222C721.79 617.916 716.937 618.437 712.183 617.734L715.074 612.738L703.213 605.985L700.323 610.982C697.298 607.253 695.287 602.806 694.487 598.072L698.702 595.533V576.329L694.757 578.625C695.941 571.934 697.937 565.413 700.701 559.205L703.403 560.745L715.155 540.353L712.67 538.921C716.676 533.683 721.282 528.933 726.395 524.768V528.604L743.091 518.961V515.396C747.378 513.922 751.961 513.523 756.438 514.235L754.304 517.935L766.164 524.714L768.245 521.122C770.993 524.672 772.846 528.832 773.648 533.249L770.622 535.005L770.73 554.316ZM734.284 605.148C753.196 594.344 768.326 567.956 768.272 546.349C768.218 524.741 752.899 515.963 734.068 526.821C715.236 537.679 700.025 564.04 700.079 585.701C700.133 607.363 715.479 616.033 734.284 605.148Z" fill="#D3F2FF"/>
<path d="M742.957 503.998L743.011 515.504V519.069L726.314 528.712L726.287 524.876L726.26 513.64L742.957 503.998Z" fill="#D3F2FF"/>
<path d="M783.807 527.55L783.861 546.754L773.838 552.534L770.731 554.316L770.677 535.113L773.703 533.357L783.807 527.55Z" fill="#D3F2FF"/>
<path d="M763.463 502.053L775.324 508.806L768.164 521.23L766.084 524.822L754.25 518.043L756.357 514.343L763.463 502.053Z" fill="#D3F2FF"/>
<path d="M703.241 605.931L715.101 612.684L712.21 617.68L705.834 628.727L693.974 621.948L700.35 610.955L703.241 605.931Z" fill="#D3F2FF"/>
<path d="M698.593 576.437L698.647 595.641L694.514 598.018L685.517 603.23L685.463 584.027L694.649 578.733L698.593 576.437Z" fill="#D3F2FF"/>
<path d="M705.726 535.167L712.562 539.029L715.074 540.461L703.295 560.853L700.593 559.313L693.974 555.559L705.726 535.167Z" fill="#D3F2FF"/>
<path d="M733.825 538.813C746.901 531.278 757.546 537.328 757.573 552.318C757.6 567.308 747.063 585.647 733.987 593.183C720.91 600.719 710.265 594.668 710.238 579.678C710.211 564.688 720.829 546.484 733.825 538.813ZM733.96 580.326C737.595 577.966 740.617 574.776 742.778 571.02C744.939 567.263 746.176 563.047 746.388 558.719C746.388 550.805 740.768 547.645 733.879 551.616C730.24 553.973 727.216 557.162 725.055 560.919C722.894 564.676 721.658 568.894 721.451 573.223C721.451 581.137 727.07 584.351 733.96 580.354" fill="#D3F2FF"/>
<path opacity="0.3" d="M200.147 937.228L435.119 1079H1466L705.213 653.873L200.147 937.228Z" fill="url(#paint6_linear_10_10)"/>
<g opacity="0.5">
<path d="M851.945 352.124C853.404 352.989 854.647 356.905 854.647 360.903L854.161 531.494C854.161 535.491 852.972 538.084 851.459 537.247L751.494 479.528C750.062 478.69 748.792 474.747 748.792 470.75L749.279 300.159C749.279 296.134 750.468 293.568 751.981 294.406L851.945 352.124Z" fill="url(#paint7_linear_10_10)"/>
</g>
<path d="M639.939 215.133C639.64 214.994 639.309 214.939 638.981 214.972C638.653 215.005 638.34 215.126 638.074 215.322L578.068 249.948C577.288 250.44 576.636 251.11 576.166 251.904C575.696 252.698 575.422 253.592 575.367 254.513L575.502 299.24C575.468 299.568 575.522 299.899 575.66 300.198C575.798 300.498 576.014 300.755 576.285 300.942L580.446 303.373C580.182 303.18 579.973 302.922 579.84 302.623C579.707 302.324 579.655 301.996 579.689 301.671V256.944C579.745 256.023 580.019 255.129 580.489 254.335C580.958 253.541 581.611 252.871 582.391 252.379L642.262 217.753C642.527 217.557 642.84 217.436 643.168 217.403C643.496 217.37 643.827 217.425 644.126 217.564L639.939 215.133Z" fill="#E3E3E3"/>
<path d="M642.262 217.753C643.721 216.916 644.964 217.753 644.964 219.293V263.993C644.909 264.914 644.635 265.808 644.165 266.602C643.695 267.395 643.043 268.066 642.262 268.558L582.526 303.184C581.068 304.021 579.825 303.346 579.825 301.671V256.944C579.88 256.023 580.154 255.129 580.624 254.335C581.094 253.541 581.746 252.871 582.526 252.379L642.262 217.753Z" fill="white"/>
<path d="M643.343 217.672C643.492 217.575 643.665 217.524 643.843 217.524C644.02 217.524 644.194 217.575 644.342 217.672C644.802 218.023 644.721 218.968 644.153 219.752L619.405 256.106L644.288 263.318C644.829 263.48 644.937 264.317 644.477 265.181C644.255 265.637 643.908 266.021 643.478 266.289C643.365 266.367 643.236 266.419 643.101 266.443C642.966 266.466 642.827 266.46 642.694 266.424L617.352 258.942L612.894 265.533C612.674 265.851 612.388 266.118 612.056 266.316C611.815 266.467 611.527 266.525 611.246 266.478L606.464 265.046L581.256 302.049C581.05 302.369 580.773 302.637 580.446 302.832C580.302 302.93 580.133 302.982 579.96 302.982C579.786 302.982 579.617 302.93 579.473 302.832C579.014 302.508 579.095 301.563 579.635 300.753L604.41 264.398L579.527 257.025C578.987 256.863 578.879 256.052 579.311 255.188C579.542 254.738 579.886 254.356 580.311 254.081C580.428 254 580.56 253.945 580.7 253.917C580.839 253.889 580.982 253.89 581.121 253.919L612.029 263.318L642.532 218.455C642.753 218.147 643.027 217.882 643.343 217.672Z" fill="#E3E3E3"/>
<path d="M222.193 396.474C225.408 394.61 228.056 396.096 228.056 399.796V402.767L185.368 427.346C183.676 428.45 182.269 429.938 181.26 431.689C180.25 433.439 179.668 435.403 179.56 437.42V443.362V427.751C179.668 425.733 180.25 423.77 181.26 422.019C182.269 420.269 183.676 418.781 185.368 417.676L222.193 396.474Z" fill="#FFC300"/>
<path d="M276.985 374.542C280.2 372.679 282.821 374.164 282.821 377.864L283.01 441.877C282.905 443.892 282.326 445.854 281.322 447.604C280.318 449.354 278.915 450.843 277.228 451.951L185.693 504.754C182.478 506.591 179.857 505.105 179.857 501.405L179.695 443.362V437.42C179.788 435.415 180.35 433.459 181.335 431.709C182.32 429.96 183.702 428.465 185.369 427.346L227.948 402.767L276.985 374.542Z" fill="#FFD13D"/>
<g opacity="0.76">
<path d="M235.865 382.159C237.107 381.43 238.134 382.159 238.134 383.455C238.092 384.234 237.867 384.992 237.477 385.668C237.088 386.343 236.544 386.918 235.892 387.345L180.289 419.459C179.047 420.188 178.02 419.459 178.02 418.162C178.062 417.384 178.287 416.626 178.677 415.95C179.067 415.274 179.61 414.7 180.262 414.273L235.865 382.159Z" fill="white"/>
<path d="M222.464 297.35C223.706 296.647 224.706 297.215 224.706 298.646C224.666 299.425 224.442 300.184 224.052 300.86C223.662 301.536 223.118 302.11 222.464 302.535L204.875 312.691C203.632 313.42 202.633 312.691 202.633 311.394C202.675 310.616 202.9 309.858 203.29 309.182C203.679 308.507 204.222 307.932 204.875 307.505L222.464 297.35Z" fill="white"/>
<path d="M266.205 285.33C267.448 284.601 268.474 285.33 268.474 286.6C268.434 287.379 268.21 288.138 267.82 288.814C267.431 289.49 266.886 290.064 266.232 290.489L248.643 300.645C247.401 301.374 246.401 300.645 246.374 299.348C246.416 298.573 246.641 297.819 247.031 297.148C247.421 296.476 247.964 295.907 248.616 295.486L266.205 285.33Z" fill="white"/>
<path d="M203.254 351.665C204.524 350.963 205.524 351.53 205.524 352.962C205.481 353.74 205.256 354.498 204.867 355.174C204.477 355.85 203.934 356.424 203.281 356.851L185.693 367.007C184.45 367.709 183.423 367.007 183.423 365.71C183.467 364.929 183.695 364.168 184.089 363.492C184.484 362.816 185.033 362.243 185.693 361.821L203.254 351.665Z" fill="#F03794"/>
<path d="M229.623 336.594C230.866 335.892 231.893 336.594 231.893 337.891C231.853 338.67 231.628 339.428 231.239 340.104C230.849 340.78 230.305 341.355 229.65 341.78L212.062 351.935C210.819 352.665 209.819 351.935 209.819 350.639C209.86 349.86 210.084 349.101 210.473 348.425C210.863 347.749 211.407 347.175 212.062 346.75L229.623 336.594Z" fill="white"/>
<path d="M220.627 374.596C221.869 373.894 222.896 374.461 222.896 375.893C222.854 376.671 222.629 377.429 222.239 378.105C221.85 378.781 221.306 379.355 220.654 379.782L182.505 401.795C181.262 402.497 180.262 401.795 180.235 400.498C180.283 399.718 180.513 398.959 180.907 398.284C181.301 397.608 181.848 397.034 182.505 396.609L220.627 374.596Z" fill="#F03794"/>
<path d="M283.74 274.311C284.982 273.608 286.009 274.176 286.009 275.607C285.973 276.391 285.751 277.155 285.361 277.836C284.971 278.517 284.425 279.095 283.767 279.523L274.932 284.628C273.689 285.33 272.689 284.763 272.689 283.332C272.74 282.566 272.969 281.823 273.358 281.161C273.748 280.5 274.287 279.939 274.932 279.523L283.74 274.311Z" fill="white"/>
<path d="M192.015 313.609C193.258 312.907 194.257 313.609 194.284 314.906C194.244 315.685 194.02 316.444 193.63 317.12C193.241 317.796 192.696 318.37 192.042 318.795L165.808 333.92C164.565 334.649 163.565 334.082 163.565 332.651C163.599 331.87 163.82 331.109 164.211 330.432C164.601 329.755 165.149 329.182 165.808 328.761L192.015 313.609Z" fill="#36C4FF"/>
<path d="M286.387 260.617C287.63 259.888 288.63 260.455 288.657 261.886C288.618 262.669 288.391 263.431 287.996 264.108C287.601 264.785 287.049 265.357 286.387 265.776L230.812 297.728C229.569 298.457 228.542 297.89 228.542 296.431C228.585 295.656 228.81 294.902 229.2 294.231C229.589 293.559 230.133 292.99 230.785 292.569L286.387 260.617Z" fill="#F03794"/>
<path d="M228.84 351.449C230.001 350.774 230.974 351.314 230.974 352.665V352.962C230.935 353.696 230.724 354.411 230.358 355.049C229.992 355.687 229.481 356.23 228.867 356.635L213.467 365.494C212.305 366.196 211.359 365.629 211.359 364.279V363.982C211.402 363.248 211.617 362.536 211.988 361.902C212.359 361.268 212.875 360.731 213.494 360.335L228.84 351.449Z" fill="white"/>
<path d="M201.795 367.979C202.957 367.304 203.929 367.979 203.929 369.194V369.492C203.89 370.226 203.679 370.941 203.313 371.579C202.947 372.217 202.436 372.76 201.822 373.165L178.749 386.453C177.587 387.129 176.615 386.615 176.615 385.265V384.86C176.653 384.122 176.866 383.404 177.237 382.765C177.609 382.126 178.127 381.585 178.749 381.187L201.795 367.979Z" fill="white"/>
<path d="M285.658 315.77C286.819 315.095 287.792 315.635 287.792 316.985V317.336C287.754 318.074 287.541 318.792 287.17 319.431C286.798 320.07 286.28 320.611 285.658 321.01L236.513 349.316C235.324 350.018 234.378 349.316 234.378 348.1V347.803C234.422 347.073 234.635 346.364 235.001 345.731C235.367 345.098 235.875 344.559 236.486 344.157L285.658 315.77Z" fill="white"/>
<path d="M237.053 302.319C238.323 301.617 239.323 302.319 239.323 303.616C239.281 304.394 239.056 305.152 238.666 305.828C238.276 306.504 237.733 307.078 237.08 307.505L181.478 339.592C180.235 340.321 179.236 339.592 179.236 338.296C179.278 337.517 179.503 336.759 179.893 336.084C180.282 335.408 180.825 334.833 181.478 334.406L237.053 302.319Z" fill="white"/>
<path d="M265.016 365.17C266.259 364.468 267.286 365.17 267.286 366.466C267.245 367.246 267.021 368.004 266.632 368.68C266.242 369.356 265.697 369.93 265.043 370.356L247.509 380.511C246.266 381.214 245.239 380.511 245.239 379.215C245.289 378.435 245.52 377.677 245.914 377.002C246.308 376.327 246.854 375.753 247.509 375.326L265.016 365.17Z" fill="#36C4FF"/>
<path d="M282.632 354.177C283.875 353.475 284.901 354.177 284.901 355.474C284.856 356.255 284.627 357.014 284.232 357.69C283.838 358.366 283.29 358.939 282.632 359.363L273.824 364.468C272.581 365.17 271.555 364.468 271.555 363.171C271.597 362.393 271.822 361.635 272.212 360.959C272.601 360.283 273.144 359.709 273.797 359.282L282.632 354.177Z" fill="white"/>
<path d="M279.497 291.597C280.632 290.921 281.578 291.597 281.578 292.785C281.542 293.506 281.334 294.208 280.973 294.833C280.611 295.458 280.105 295.987 279.497 296.377L234.378 322.441C233.243 323.089 232.298 322.441 232.298 321.226C232.336 320.505 232.544 319.804 232.906 319.18C233.268 318.555 233.772 318.025 234.378 317.634L279.497 291.597Z" fill="#36C4FF"/>
<path d="M224.463 323.17C225.706 322.441 226.706 323.008 226.733 324.44C226.685 325.224 226.455 325.987 226.061 326.666C225.667 327.346 225.12 327.925 224.463 328.356L168.861 360.551C167.645 361.254 166.619 360.551 166.619 359.255C166.624 358.439 166.832 357.637 167.223 356.92C167.615 356.204 168.177 355.596 168.861 355.15L224.463 323.17Z" fill="white"/>
</g>
<g opacity="0.76">
<path d="M806.961 426.697C805.719 425.968 804.719 426.697 804.692 427.994C804.734 428.772 804.959 429.53 805.349 430.206C805.738 430.882 806.281 431.456 806.934 431.883L862.536 463.97C863.779 464.672 864.806 463.97 864.806 462.674C864.764 461.895 864.539 461.137 864.149 460.462C863.759 459.786 863.216 459.211 862.563 458.784L806.961 426.697Z" fill="white"/>
<path d="M820.281 341.861C819.038 341.159 818.039 341.861 818.039 343.157C818.079 343.937 818.303 344.695 818.693 345.371C819.082 346.047 819.627 346.621 820.281 347.047L837.869 357.202C839.112 357.904 840.112 357.337 840.112 355.906C840.074 355.126 839.851 354.367 839.461 353.69C839.071 353.014 838.525 352.44 837.869 352.016L820.281 341.861Z" fill="white"/>
<path d="M776.621 329.842C775.378 329.113 774.351 329.68 774.351 331.111C774.391 331.89 774.615 332.649 775.005 333.325C775.395 334.001 775.939 334.575 776.593 335.001L794.182 345.156C795.425 345.858 796.451 345.291 796.451 343.86C796.411 343.084 796.187 342.329 795.797 341.658C795.407 340.986 794.863 340.417 794.209 339.997L776.621 329.842Z" fill="white"/>
<path d="M839.571 396.177C838.328 395.447 837.302 396.177 837.302 397.473C837.344 398.252 837.569 399.01 837.959 399.685C838.348 400.361 838.891 400.936 839.544 401.363L857.133 411.518C858.376 412.22 859.402 411.518 859.402 410.222C859.363 409.439 859.137 408.677 858.742 408C858.347 407.323 857.795 406.751 857.133 406.332L839.571 396.177Z" fill="#F03794"/>
<path d="M813.202 381.106C811.959 380.403 810.933 381.106 810.933 382.402C810.975 383.181 811.2 383.939 811.59 384.614C811.979 385.29 812.522 385.864 813.175 386.291L830.763 396.447C832.006 397.149 833.006 396.447 833.033 395.15C832.991 394.372 832.766 393.614 832.376 392.938C831.986 392.263 831.443 391.688 830.791 391.261L813.202 381.106Z" fill="white"/>
<path d="M822.199 419.108C820.956 418.378 819.93 418.973 819.93 420.404C819.976 421.182 820.203 421.938 820.592 422.613C820.981 423.288 821.522 423.863 822.172 424.293L860.321 446.306C861.564 447.008 862.59 446.306 862.59 445.01C862.543 444.229 862.313 443.47 861.919 442.795C861.525 442.119 860.977 441.546 860.321 441.12L822.199 419.108Z" fill="#F03794"/>
<path d="M759.086 318.822C757.843 318.12 756.816 318.822 756.816 320.118C756.859 320.897 757.084 321.655 757.473 322.331C757.863 323.006 758.406 323.581 759.059 324.008L767.894 329.113C769.136 329.815 770.136 329.113 770.136 327.816C770.102 327.035 769.881 326.274 769.491 325.597C769.1 324.92 768.553 324.347 767.894 323.927L759.086 318.822Z" fill="white"/>
<path d="M850.811 358.121C849.568 357.418 848.568 357.986 848.568 359.417C848.615 360.187 848.842 360.936 849.232 361.602C849.621 362.269 850.162 362.834 850.811 363.252L877.018 378.378C878.261 379.107 879.26 378.513 879.287 377.108C879.228 376.334 878.992 375.584 878.599 374.915C878.206 374.246 877.665 373.675 877.018 373.246L850.811 358.121Z" fill="#36C4FF"/>
<path d="M756.438 304.966C755.195 304.264 754.196 304.831 754.196 306.263C754.229 307.043 754.451 307.804 754.841 308.482C755.231 309.159 755.779 309.732 756.438 310.152L812.175 342.239C813.418 342.968 814.418 342.374 814.418 340.943C814.376 340.164 814.151 339.406 813.761 338.73C813.371 338.055 812.828 337.48 812.175 337.053L756.438 304.966Z" fill="#F03794"/>
<path d="M813.985 395.961C812.824 395.285 811.851 395.961 811.851 397.176V397.473C811.894 398.203 812.107 398.913 812.473 399.546C812.839 400.178 813.348 400.717 813.958 401.119L829.358 410.006C830.52 410.681 831.466 410.006 831.493 408.79V408.493C831.451 407.756 831.235 407.04 830.864 406.402C830.494 405.763 829.978 405.221 829.358 404.82L813.985 395.961Z" fill="white"/>
<path d="M841.03 412.49C839.869 411.815 838.896 412.49 838.896 413.706V414.003C838.934 414.741 839.147 415.459 839.519 416.098C839.89 416.737 840.408 417.278 841.03 417.676L864.076 430.965C865.238 431.64 866.211 431.1 866.211 429.749V429.479C866.174 428.744 865.963 428.029 865.597 427.39C865.231 426.752 864.719 426.209 864.103 425.806L841.03 412.49Z" fill="white"/>
<path d="M757.168 360.281C756.006 359.606 755.06 360.281 755.033 361.497V361.794C755.071 362.532 755.285 363.25 755.656 363.889C756.027 364.528 756.545 365.069 757.168 365.467L806.312 393.827C807.501 394.502 808.447 393.962 808.447 392.612V392.314C808.403 391.581 808.191 390.868 807.825 390.23C807.459 389.593 806.951 389.049 806.339 388.641L757.168 360.281Z" fill="white"/>
<path d="M805.772 346.831C804.503 346.101 803.503 346.696 803.503 348.127C803.545 348.906 803.77 349.664 804.16 350.339C804.549 351.015 805.093 351.59 805.745 352.016L861.347 384.104C862.59 384.806 863.59 384.239 863.59 382.807C863.552 382.027 863.329 381.268 862.939 380.592C862.549 379.915 862.003 379.341 861.347 378.918L805.772 346.831Z" fill="white"/>
<path d="M777.809 409.681C776.566 408.979 775.567 409.681 775.54 410.978C775.582 411.757 775.807 412.514 776.196 413.19C776.586 413.866 777.129 414.44 777.782 414.867L795.37 425.023C796.613 425.725 797.64 425.023 797.64 423.726C797.598 422.948 797.373 422.19 796.983 421.514C796.593 420.838 796.05 420.264 795.397 419.837L777.809 409.681Z" fill="#36C4FF"/>
<path d="M760.275 398.689C759.032 397.986 758.005 398.554 758.005 399.985C758.053 400.766 758.283 401.524 758.677 402.2C759.071 402.875 759.618 403.449 760.275 403.874L769.083 408.979C770.325 409.681 771.352 408.979 771.352 407.683C771.312 406.904 771.088 406.145 770.698 405.469C770.308 404.793 769.764 404.219 769.11 403.793L760.275 398.689Z" fill="white"/>
<path d="M763.328 336.243C762.193 335.568 761.248 336.108 761.248 337.431C761.283 338.152 761.491 338.855 761.853 339.479C762.215 340.104 762.72 340.634 763.328 341.024L808.447 367.061C809.582 367.736 810.528 367.061 810.528 365.872C810.498 365.15 810.294 364.445 809.931 363.819C809.569 363.193 809.059 362.665 808.447 362.28L763.328 336.243Z" fill="#36C4FF"/>
<path d="M818.363 367.682C817.12 366.953 816.12 367.52 816.12 368.951C816.154 369.732 816.375 370.493 816.765 371.17C817.156 371.847 817.704 372.42 818.363 372.841L873.965 404.928C875.207 405.657 876.207 405.09 876.207 403.631C876.165 402.856 875.94 402.102 875.55 401.431C875.16 400.76 874.617 400.19 873.965 399.769L818.363 367.682Z" fill="white"/>
</g>
<g opacity="0.76">
<path d="M806.961 545.376C805.719 544.647 804.719 545.241 804.692 546.673C804.734 547.452 804.959 548.209 805.349 548.885C805.738 549.561 806.281 550.135 806.934 550.562L862.536 582.649C863.779 583.379 864.806 582.784 864.806 581.353C864.764 580.574 864.539 579.816 864.149 579.141C863.759 578.465 863.216 577.89 862.563 577.463L806.961 545.376Z" fill="white"/>
<path d="M820.281 460.486C819.038 459.784 818.039 460.486 818.039 461.782C818.079 462.562 818.303 463.32 818.693 463.996C819.082 464.672 819.627 465.246 820.281 465.672L837.869 475.827C839.112 476.557 840.112 475.827 840.112 474.531C840.074 473.751 839.851 472.992 839.461 472.315C839.071 471.639 838.525 471.065 837.869 470.642L820.281 460.486Z" fill="white"/>
<path d="M776.621 448.521C775.378 447.792 774.351 448.359 774.351 449.79C774.391 450.57 774.615 451.328 775.005 452.004C775.395 452.68 775.939 453.254 776.593 453.68L794.182 463.835C795.425 464.564 796.451 463.97 796.451 462.539C796.409 461.764 796.184 461.01 795.794 460.338C795.405 459.667 794.861 459.097 794.209 458.676L776.621 448.521Z" fill="white"/>
<path d="M839.571 514.856C838.328 514.154 837.302 514.856 837.302 516.152C837.344 516.931 837.569 517.689 837.959 518.364C838.348 519.04 838.891 519.615 839.544 520.042L857.133 530.197C858.376 530.899 859.402 530.197 859.402 528.901C859.359 528.119 859.131 527.359 858.736 526.683C858.342 526.006 857.792 525.434 857.133 525.011L839.571 514.856Z" fill="#F03794"/>
<path d="M813.202 499.785C811.959 499.082 810.933 499.785 810.933 501.081C810.973 501.86 811.197 502.619 811.587 503.295C811.976 503.971 812.521 504.545 813.175 504.97L830.763 515.126C832.006 515.828 833.006 515.126 833.033 513.829C832.991 513.051 832.766 512.293 832.376 511.617C831.986 510.942 831.443 510.367 830.791 509.94L813.202 499.785Z" fill="white"/>
<path d="M822.199 537.787C820.956 537.085 819.93 537.652 819.93 539.083C819.972 539.862 820.197 540.62 820.587 541.295C820.976 541.971 821.519 542.546 822.172 542.973L860.321 564.985C861.564 565.687 862.59 565.12 862.59 563.689C862.543 562.908 862.313 562.15 861.919 561.474C861.525 560.798 860.977 560.225 860.321 559.799L822.199 537.787Z" fill="#F03794"/>
<path d="M759.086 437.501C757.843 436.799 756.816 437.501 756.816 438.797C756.857 439.577 757.081 440.335 757.47 441.011C757.86 441.687 758.405 442.262 759.059 442.687L767.894 447.792C769.136 448.494 770.136 447.792 770.136 446.495C770.098 445.715 769.875 444.956 769.485 444.28C769.095 443.603 768.549 443.03 767.894 442.606L759.086 437.501Z" fill="white"/>
<path d="M850.811 476.692C849.568 475.989 848.568 476.557 848.568 477.988C848.606 478.768 848.83 479.527 849.22 480.204C849.61 480.88 850.155 481.454 850.811 481.877L877.018 497.003C878.261 497.732 879.26 497.165 879.287 495.733C879.243 494.955 879.017 494.198 878.628 493.523C878.238 492.847 877.696 492.272 877.045 491.844L850.811 476.692Z" fill="#36C4FF"/>
<path d="M756.438 423.672C755.195 422.943 754.196 423.51 754.196 424.942C754.229 425.722 754.451 426.484 754.841 427.161C755.231 427.838 755.779 428.411 756.438 428.831L812.175 460.918C813.418 461.647 814.418 461.08 814.418 459.622C814.376 458.847 814.151 458.093 813.761 457.421C813.371 456.75 812.828 456.18 812.175 455.759L756.438 423.672Z" fill="#F03794"/>
<path d="M813.985 514.64C812.824 513.965 811.851 514.64 811.851 515.855V516.152C811.89 516.887 812.101 517.602 812.467 518.24C812.833 518.878 813.344 519.421 813.958 519.826L829.358 528.685C830.52 529.36 831.466 528.685 831.493 527.469V527.172C831.453 526.438 831.238 525.725 830.867 525.091C830.496 524.457 829.979 523.92 829.358 523.526L813.985 514.64Z" fill="white"/>
<path d="M841.03 531.169C839.869 530.494 838.896 531.169 838.896 532.385V532.682C838.934 533.42 839.147 534.138 839.519 534.777C839.89 535.416 840.408 535.957 841.03 536.355L864.076 549.644C865.238 550.319 866.211 549.806 866.211 548.428V548.158C866.171 547.424 865.96 546.709 865.594 546.071C865.228 545.433 864.718 544.89 864.103 544.485L841.03 531.169Z" fill="white"/>
<path d="M757.168 478.96C756.006 478.285 755.06 478.96 755.033 480.176V480.473C755.071 481.211 755.285 481.929 755.656 482.568C756.027 483.207 756.545 483.748 757.168 484.146L806.312 512.506C807.501 513.208 808.447 512.506 808.447 511.291V510.993C808.403 510.264 808.19 509.554 807.825 508.921C807.459 508.288 806.95 507.749 806.339 507.347L757.168 478.96Z" fill="white"/>
<path d="M805.772 465.51C804.503 464.807 803.503 465.51 803.503 466.806C803.545 467.585 803.77 468.343 804.16 469.018C804.549 469.694 805.093 470.269 805.745 470.696L861.347 502.783C862.59 503.512 863.59 502.783 863.59 501.486C863.552 500.706 863.329 499.947 862.939 499.271C862.549 498.594 862.003 498.021 861.347 497.597L805.772 465.51Z" fill="white"/>
<path d="M777.809 528.36C776.566 527.658 775.567 528.36 775.54 529.657C775.58 530.436 775.804 531.195 776.194 531.871C776.583 532.547 777.128 533.121 777.782 533.546L795.37 543.702C796.613 544.404 797.64 543.702 797.64 542.405C797.598 541.627 797.373 540.869 796.983 540.193C796.593 539.517 796.05 538.943 795.397 538.516L777.809 528.36Z" fill="#36C4FF"/>
<path d="M760.275 517.368C759.032 516.665 758.005 517.368 758.005 518.664C758.051 519.445 758.28 520.205 758.674 520.88C759.069 521.556 759.617 522.13 760.275 522.553L769.083 527.658C770.325 528.36 771.352 527.658 771.352 526.362C771.31 525.583 771.085 524.825 770.695 524.15C770.306 523.474 769.762 522.899 769.11 522.472L760.275 517.368Z" fill="white"/>
<path d="M763.328 454.787C762.193 454.112 761.248 454.787 761.248 455.975C761.283 456.696 761.491 457.399 761.853 458.023C762.215 458.648 762.72 459.178 763.328 459.568L808.447 485.632C809.582 486.28 810.528 485.632 810.528 484.416C810.494 483.695 810.287 482.992 809.925 482.367C809.563 481.742 809.056 481.213 808.447 480.824L763.328 454.787Z" fill="#36C4FF"/>
<path d="M818.363 486.361C817.12 485.632 816.12 486.199 816.12 487.63C816.156 488.414 816.378 489.178 816.768 489.859C817.158 490.54 817.705 491.119 818.363 491.547L873.965 523.634C875.207 524.336 876.207 523.769 876.207 522.337C876.167 521.558 875.943 520.8 875.553 520.124C875.163 519.448 874.619 518.873 873.965 518.448L818.363 486.361Z" fill="white"/>
</g>
<path d="M460.137 286.789C473.321 279.172 484.047 285.303 484.101 300.429C484.155 315.554 473.483 334.055 460.299 341.645L430.58 358.742C417.395 366.358 406.669 360.227 406.615 345.075C406.561 329.923 417.233 311.448 430.417 303.832L460.137 286.789Z" fill="#F03794"/>
<path d="M437.361 307.964C437.501 307.883 437.659 307.836 437.821 307.829L467.999 306.695C468.837 306.695 468.837 308.018 467.999 308.937L437.929 342.617C437.79 342.76 437.636 342.887 437.469 342.995C436.902 343.319 436.389 342.995 436.389 342.374V309.828C436.395 309.463 436.486 309.105 436.655 308.781C436.824 308.458 437.066 308.178 437.361 307.964Z" fill="white"/>
<path opacity="0.3" d="M625.079 816.334L705.213 876.403L723.018 854.147L639.669 817.306L625.079 816.334Z" fill="url(#paint8_linear_10_10)"/>
<path d="M362.901 399.58C362.901 399.58 358.092 403.658 359.199 429.614C359.199 429.614 359.443 448.17 359.199 457.812L387.136 451.384L383.434 400.201L362.901 399.58Z" fill="#0072D6"/>
<path d="M406.291 458.028L418.8 436.421C418.8 436.421 421.286 432.477 424.744 436.934C424.744 436.934 413.748 478.096 406.939 474.018C401.473 468.326 396.442 462.232 391.891 455.786C394.106 452.113 393.863 449.817 395.538 445.82C398.24 449.223 403.157 452.086 406.291 458.028Z" fill="#FABCAF"/>
<path d="M379.192 432.828C379.192 432.828 386.163 428.966 397.537 443.983C395.924 447.997 394.037 451.895 391.891 455.651C388.508 450.728 385.715 445.425 383.569 439.851L379.192 432.828Z" fill="#FF0F88"/>
<path d="M382.407 433.315C381.948 432.585 371.438 427.913 367.061 430.614C363.064 433.06 359.427 436.051 356.254 439.5C356.254 443.983 362.09 467.698 360.847 475.098C359.361 476.584 374.167 490.412 390.567 474.747C390.567 474.747 390.08 470.723 388.729 462.998C388.729 462.998 397.861 456.813 390.945 445.442C389.459 443.227 384.137 436.178 382.407 433.315Z" fill="#FF3A9D"/>
<path d="M388.297 413.949C388.297 405.144 382.596 397.986 375.545 397.986C368.493 397.986 362.792 405.144 362.792 413.949C362.871 417.245 363.802 420.464 365.494 423.294L366.278 430.317C373.735 447.657 378.219 436.34 378.219 436.34V431.964C384.866 431.586 388.297 422.673 388.297 413.949Z" fill="#FABCAF"/>
<path d="M367.899 422.052C365.197 414.975 366.494 411.491 365.197 411.248C360.929 410.519 364.765 420.512 365.873 423.24C361.685 425.941 361.631 414.381 361.199 410.195C360.767 406.008 360.685 401.363 363.901 398.392C366.043 396.753 368.548 395.653 371.204 395.183C373.86 394.713 376.59 394.887 379.165 395.691C381.863 396.747 384.228 398.507 386.015 400.787C387.801 403.067 388.944 405.784 389.324 408.655C389.486 416.515 368.71 407.251 367.899 422.052Z" fill="#0072D6"/>
<path d="M711.751 277.093C710.257 276.401 708.605 276.122 706.966 276.284C705.327 276.445 703.761 277.041 702.43 278.011L204.281 565.525C200.472 567.999 197.303 571.34 195.035 575.274C192.767 579.209 191.463 583.624 191.231 588.159L192.231 942.225C192.072 943.85 192.354 945.488 193.048 946.967C193.742 948.445 194.823 949.709 196.176 950.625L200.363 953.055C199.03 952.127 197.971 950.857 197.297 949.38C196.622 947.902 196.356 946.271 196.527 944.656L195.527 590.59C195.757 586.058 197.059 581.645 199.328 577.715C201.597 573.785 204.767 570.449 208.577 567.983L706.591 280.442C707.927 279.472 709.497 278.876 711.141 278.715C712.783 278.554 714.44 278.833 715.939 279.523L711.751 277.093Z" fill="#F03794"/>
<path d="M706.591 280.442C713.832 276.255 719.721 279.604 719.749 287.923L720.748 641.989C720.512 646.523 719.207 650.937 716.939 654.87C714.671 658.804 711.505 662.146 707.699 664.623L209.522 952.056C202.282 956.243 196.419 952.866 196.392 944.575L195.392 590.509C195.621 585.977 196.924 581.564 199.193 577.634C201.462 573.704 204.631 570.368 208.442 567.902L706.591 280.442Z" fill="white"/>
<path d="M686.436 314.825C692.758 311.178 697.892 314.095 697.892 321.361L698.702 629.781C698.494 633.734 697.353 637.581 695.371 641.008C693.389 644.435 690.624 647.344 687.301 649.497L253.426 899.955C247.131 903.601 241.998 900.657 241.998 893.419L241.106 584.999C241.309 581.052 242.445 577.209 244.423 573.786C246.4 570.363 249.162 567.458 252.48 565.309L686.436 314.825Z" fill="#AFD4F7"/>
<path d="M218.411 748.298C224.625 744.705 229.65 747.595 229.677 754.699C229.477 758.585 228.36 762.368 226.415 765.739C224.471 769.11 221.756 771.972 218.492 774.091C212.305 777.657 207.253 774.794 207.226 767.663C207.427 763.782 208.546 760.003 210.49 756.637C212.435 753.271 215.149 750.413 218.411 748.298Z" fill="#999999"/>
<path d="M218.438 751.674C223.004 748.973 226.732 751.134 226.732 756.4C226.585 759.267 225.761 762.058 224.329 764.546C222.897 767.034 220.897 769.148 218.492 770.715C213.899 773.416 210.17 771.228 210.17 765.962C210.321 763.096 211.148 760.307 212.585 757.824C214.023 755.34 216.028 753.232 218.438 751.674Z" fill="white"/>
<path d="M708.158 481.904C709.752 480.986 711.076 481.742 711.076 483.579C711.021 484.581 710.731 485.555 710.229 486.423C709.726 487.292 709.026 488.029 708.185 488.576C706.591 489.521 705.267 488.765 705.267 486.928C705.326 485.924 705.618 484.947 706.12 484.075C706.621 483.203 707.319 482.46 708.158 481.904Z" fill="#949494"/>
<g style="mix-blend-mode:multiply" opacity="0.5">
<path d="M654.555 384.914L655.284 643.474L536.245 712.186L535.516 453.626L654.555 384.914Z" fill="#4F77FF"/>
</g>
<path d="M661.85 377.486L662.579 629.024L546.755 695.872L546.053 444.334L661.85 377.486Z" fill="#A0E3FF"/>
<path d="M661.85 377.459L661.877 393.152L545.999 460.054L545.972 444.334L661.85 377.459Z" fill="#47C9FF"/>
<path d="M648.449 462.674L648.503 482.012L610.598 503.89L610.543 484.551L648.449 462.674Z" fill="#00B4FF"/>
<path d="M648.179 415.38L648.233 428.669L561.885 478.501L561.858 465.186L648.179 415.38Z" fill="#00B4FF"/>
<path d="M648.179 434.53L648.233 455.489L561.912 505.322L561.831 484.362L648.179 434.53Z" fill="#00B4FF"/>
<path d="M648.422 544.917L648.53 583.216L610.625 605.094L610.517 566.795L648.422 544.917Z" fill="#00B4FF"/>
<path d="M648.449 489.359L648.503 508.725L610.598 530.602L610.543 511.237L648.449 489.359Z" fill="#00B4FF"/>
<path d="M648.449 591.292L648.53 619.895L610.625 641.773L610.543 613.17L648.449 591.292Z" fill="#00B4FF"/>
<path d="M648.449 516.071L648.503 535.41L610.598 557.287L610.543 537.949L648.449 516.071Z" fill="#00B4FF"/>
<path d="M600.547 489.845L601.006 647.094L562.047 669.565L561.615 512.317L600.547 489.845Z" fill="#00B4FF"/>
<g style="mix-blend-mode:multiply">
<path d="M643.613 392.233C645.693 391.018 647.368 391.99 647.368 394.367C647.315 395.675 646.945 396.95 646.291 398.083C645.637 399.217 644.718 400.175 643.613 400.876C641.533 402.092 639.858 401.119 639.831 398.716C639.907 397.414 640.289 396.149 640.946 395.022C641.603 393.896 642.517 392.94 643.613 392.233Z" fill="#00B4FF"/>
</g>
<g style="mix-blend-mode:multiply">
<path d="M631.725 398.689C633.806 397.5 635.508 398.446 635.508 400.822C635.445 402.121 635.072 403.385 634.418 404.508C633.764 405.632 632.85 406.582 631.752 407.278C629.672 408.466 627.97 407.521 627.97 405.144C628.032 403.846 628.406 402.581 629.059 401.458C629.713 400.334 630.627 399.385 631.725 398.689Z" fill="#00B4FF"/>
</g>
<g style="mix-blend-mode:multiply">
<path d="M655.069 386.237C657.176 384.995 658.878 385.994 658.878 388.452C658.82 389.791 658.448 391.098 657.79 392.266C657.133 393.435 656.21 394.432 655.096 395.177C653.015 396.42 651.286 395.42 651.286 392.936C651.357 391.603 651.735 390.305 652.391 389.143C653.047 387.981 653.964 386.986 655.069 386.237Z" fill="#00B4FF"/>
</g>
<g style="mix-blend-mode:multiply" opacity="0.5">
<path d="M312.27 515.234L515.198 444.118L495.178 574.519L292.223 645.662L312.27 515.234Z" fill="#4F77FF"/>
</g>
<path d="M319.619 504.214L522.574 433.099L502.527 563.554L299.599 634.669L319.619 504.214Z" fill="#00B4FF"/>
<path d="M326.346 535.572L355.687 525.281L342.503 611.225L313.162 621.516L326.346 535.572Z" fill="#7AD8FF"/>
<path d="M361.388 523.58L506.796 472.613L505.094 483.714L359.686 534.654L361.388 523.58Z" fill="#7AD8FF"/>
<path d="M359.632 538.678L505.148 487.657L503.446 498.731L357.93 549.725L359.632 538.678Z" fill="#A0E3FF"/>
<path d="M357.794 554.722L421.502 532.385L413.288 585.944L349.581 608.281L357.794 554.722Z" fill="#A0E3FF"/>
<path d="M427.581 530.872L502.825 504.511L498.475 532.979L423.204 559.34L427.581 530.872Z" fill="#7AD8FF"/>
<path d="M422.988 564.364L498.232 537.976L495.287 557.179L420.043 583.568L422.988 564.364Z" fill="#A0E3FF"/>
<path d="M319.754 503.944L522.683 432.828L518.954 457.11L316.025 528.225L319.754 503.944Z" fill="#80DAFF"/>
<path d="M509.579 443.794C512.443 442.066 514.793 443.011 514.793 445.928C514.633 447.628 514.078 449.268 513.172 450.717C512.267 452.165 511.037 453.383 509.579 454.274C506.661 456.029 504.311 455.084 504.311 452.194C504.484 450.483 505.049 448.835 505.963 447.379C506.876 445.922 508.114 444.695 509.579 443.794Z" fill="#00B4FF"/>
<path d="M494.8 448.413C497.718 446.738 500.042 447.738 500.069 450.601C499.911 452.298 499.355 453.934 498.444 455.375C497.533 456.817 496.293 458.022 494.827 458.892C491.963 460.54 489.613 459.568 489.586 456.651C489.748 454.965 490.305 453.341 491.211 451.91C492.117 450.479 493.346 449.281 494.8 448.413Z" fill="#00B4FF"/>
<path d="M480.13 452.842C483.021 451.195 485.371 452.167 485.371 455.03C485.189 456.692 484.622 458.289 483.718 459.695C482.813 461.101 481.594 462.278 480.157 463.133C477.293 464.781 474.943 463.808 474.916 460.918C475.102 459.261 475.67 457.67 476.575 456.269C477.479 454.868 478.696 453.695 480.13 452.842Z" fill="#00B4FF"/>
<g style="mix-blend-mode:multiply" opacity="0.5">
<path d="M510.605 585.701L511.038 741.41L369.601 824.14L369.142 668.431L510.605 585.701Z" fill="#4F77FF"/>
</g>
<path d="M517.765 572.413L518.197 723.071L379.408 803.181L378.976 652.522L517.765 572.413Z" fill="#A0E3FF"/>
<path d="M433.768 655.899L433.849 683.124L391.647 707.648L391.566 680.396L433.768 655.899Z" fill="#00B4FF"/>
<path d="M508.039 644.069L508.093 661.111L392.133 728.473L392.106 711.43L508.039 644.069Z" fill="#00B4FF"/>
<path d="M506.904 614.115L506.931 626.188L440.036 665.082L440.009 653.009L506.904 614.115Z" fill="#00A7ED"/>
<path d="M506.904 630.321L506.931 640.314L440.036 679.181L440.009 669.187L506.904 630.321Z" fill="#00B4FF"/>
<path d="M468.458 690.822L468.512 709.755L392.188 754.105L392.134 735.171L468.458 690.822Z" fill="#00B4FF"/>
<path d="M468.458 717.075L468.539 738.655L392.215 783.005L392.134 761.451L468.458 717.075Z" fill="#00A7ED"/>
<path d="M508.174 666.675L508.228 688.148L472.7 708.783L472.646 687.337L508.174 666.675Z" fill="#00A7ED"/>
<path d="M508.174 694.846L508.228 715.886L472.7 736.549L472.646 715.481L508.174 694.846Z" fill="#00B4FF"/>
<path d="M517.9 572.278L517.981 597.802L378.976 678.046L378.895 652.522L517.9 572.278Z" fill="#47C9FF"/>
<g style="mix-blend-mode:multiply" opacity="0.6">
<g style="mix-blend-mode:multiply">
<path d="M497.259 591.454C499.772 589.915 501.798 591.157 501.798 594.155C501.741 595.796 501.304 597.402 500.521 598.845C499.738 600.289 498.63 601.531 497.286 602.474C494.773 604.014 492.747 602.771 492.747 599.773C492.818 598.135 493.262 596.535 494.043 595.094C494.825 593.652 495.925 592.408 497.259 591.454Z" fill="#00B4FF"/>
</g>
<g style="mix-blend-mode:multiply">
<path d="M482.967 599.719C485.479 598.18 487.506 599.395 487.506 602.42C487.444 604.053 487.005 605.649 486.222 607.083C485.439 608.517 484.334 609.75 482.994 610.685C480.481 612.224 478.455 610.982 478.428 607.984C478.51 606.353 478.962 604.762 479.748 603.33C480.534 601.899 481.634 600.664 482.967 599.719Z" fill="#00B4FF"/>
</g>
<g style="mix-blend-mode:multiply">
<path d="M511.092 583.784C513.604 582.217 515.658 583.487 515.658 586.485C515.6 588.17 515.162 589.82 514.376 591.312C513.59 592.805 512.476 594.1 511.119 595.101C508.579 596.667 506.526 595.398 506.526 592.238C506.603 590.576 507.054 588.953 507.844 587.49C508.634 586.026 509.745 584.76 511.092 583.784Z" fill="#00B4FF"/>
</g>
</g>
<path opacity="0.3" d="M473.213 883.831L546.431 931.286L593.901 901.63L526.384 859.36L473.213 883.831Z" fill="url(#paint9_linear_10_10)"/>
<path d="M487.695 652.468C487.695 646.445 485.425 643.258 482.724 642.583C480.022 641.908 482.264 645.284 480.805 650.956V651.361C479.076 648.849 477.32 647.229 476.591 647.661C475.861 648.093 476.591 651.361 478.671 654.764C479.393 656.068 479.998 657.433 480.481 658.843C480.57 659.235 480.678 659.623 480.805 660.004L480.589 668.107L487.398 667.134L485.263 660.355C486.796 658.005 487.638 655.273 487.695 652.468Z" fill="#FABCAF"/>
<path d="M444.413 704.272C444.115 702.706 442.738 699.411 441.981 696.98C440.954 693.766 439.468 691.389 438.658 691.578C437.847 691.767 438.009 694.657 439.036 697.844C434.821 694.873 429.985 693.388 428.445 695.548C426.905 697.709 428.445 702.22 432.633 705.191C434.94 706.497 437.399 707.513 439.955 708.216C442.656 709.134 441.171 714.401 444.899 708.216C446.547 705.704 445.412 705.65 444.413 704.272Z" fill="#FABCAF"/>
<path d="M505.742 885.748C505.742 888.881 505.607 890.475 500.096 890.124L477.914 889.529C475.888 889.097 472.754 887.963 473.105 885.505C473.457 883.047 476.185 882.507 478.293 882.129C483.318 881.292 488.37 880.508 493.395 879.833C494.781 879.6 496.18 879.447 497.583 879.374C507.012 879.374 505.742 882.615 505.742 885.748Z" fill="#1A1A1A"/>
<path d="M528.248 875.674C522.844 879.914 507.606 862.169 506.634 861.278C505.526 859.792 502.689 851.932 511.551 856.227C515.614 858.45 519.531 860.931 523.277 863.655C524.376 864.303 525.423 865.034 526.411 865.842C528.761 867.922 531.436 870.731 529.572 873.945C529.252 874.605 528.802 875.193 528.248 875.674Z" fill="#1A1A1A"/>
<path d="M491.504 780.979C491.504 780.979 488.803 850.204 490.91 879.86C495.644 883.256 501.295 885.139 507.12 885.262C507.12 885.262 511.2 815.038 511.686 805.152C511.686 805.152 513.47 786.975 514.956 828.137C514.956 828.137 516.09 856.146 516.631 862.25C516.631 862.25 523.871 874.674 530.491 871.406C530.491 871.406 530.977 798.724 529.005 766.583L491.504 780.979Z" fill="#0072D6"/>
<path d="M479.4 664.271C479.4 664.271 483.48 685.879 488.559 693.982C488.559 693.982 499.691 705.353 531.328 713.51L524.898 700.653C524.898 700.653 502.635 688.553 495.476 684.096C495.476 684.096 489.181 669.754 485.695 660.868C483.311 661.367 481.123 662.55 479.4 664.271Z" fill="#5C1A66"/>
<path d="M529.599 721.639C530.112 749.324 532.085 776.036 532.085 776.036C513.172 798.265 488.559 784.436 488.559 784.436C490.045 766.124 492.99 728.554 492.99 728.554C460.731 733.253 460.731 729.904 460.731 729.904C454.787 725.448 441.549 712.24 441.549 712.24C441.549 712.24 441.063 703.813 447.979 705.299C447.979 705.299 460.839 714.212 465.784 715.697C465.784 715.697 500.42 713.402 503.014 711.727C505.986 703.03 522.683 705.056 522.683 705.056L514.577 704.326L519.278 697.142C519.278 697.142 537.569 694.927 536.083 711.727C534.716 715.487 532.496 718.88 529.599 721.639Z" fill="#71207D"/>
<path d="M529.356 684.042C529.504 682.085 529.246 680.117 528.598 678.264C527.95 676.411 526.926 674.711 525.591 673.271C524.256 671.832 522.637 670.683 520.838 669.898C519.038 669.113 517.095 668.707 515.131 668.707C513.167 668.707 511.224 669.113 509.425 669.898C507.625 670.683 506.006 671.832 504.671 673.271C503.336 674.711 502.312 676.411 501.664 678.264C501.016 680.117 500.758 682.085 500.906 684.042C500.906 692.442 500.717 701.355 508.579 701.355C509.553 701.34 510.522 701.223 511.47 701.004L510.795 706.811C510.795 706.811 518.9 713.212 522.682 705.056V695.197C526.519 692.01 529.356 687.986 529.356 684.042Z" fill="#FABCAF"/>
<path d="M522.872 701.814C522.872 701.814 520.17 706.784 510.795 704.326C510.795 704.326 503.014 704.326 503.014 711.727C503.593 710.623 504.552 709.765 505.714 709.314C506.876 708.862 508.163 708.846 509.336 709.269C509.336 709.269 531.193 714.698 522.872 701.814Z" fill="white"/>
<path d="M531.76 680.018C532.382 678.181 533.814 676.642 533.462 674.616C532.814 670.754 528.221 671.024 526.195 668.377C525.222 667.08 525.546 665.676 523.709 665.055C521.872 664.434 520.008 665.352 518.306 665.055C514.793 664.596 510.2 659.815 506.958 662.867C505.851 663.893 505.823 665.919 505.067 667.134C504.311 668.35 502.933 668.701 501.528 669.538C496.881 672.239 501.285 679.181 504.581 681.179C506.418 682.314 509.039 681.99 510.525 683.88C511.011 684.475 510.66 685.339 510.525 686.041C510.524 687.641 510.221 689.226 509.633 690.714C510.579 689.633 511.524 688.445 512.335 687.283C512.875 686.554 513.902 684.799 515.036 685.393C517.279 686.527 514.253 693.036 513.929 694.684C513.307 697.601 513.145 701.301 516.631 702.517C517.489 702.781 518.398 702.835 519.282 702.675C520.166 702.515 520.998 702.146 521.71 701.598C522.454 701.037 523.041 700.293 523.412 699.438C524.466 697.196 524.222 694.414 526.438 692.739C527.762 691.74 529.518 691.443 530.653 690.038C533.138 687.175 530.68 683.259 531.76 680.018Z" fill="#1B1464"/>
<path d="M768.542 652.82L727.583 648.417L704.564 653.495L711.346 694.009C711.67 702.112 722.72 708.567 736.364 708.567C750.008 708.567 761.085 702.085 761.382 694.009L768.542 652.82Z" fill="#FFC919"/>
<path d="M768.542 652.982C768.542 663.542 754.142 672.104 736.364 672.104C718.587 672.104 704.213 663.542 704.213 652.982C704.213 642.421 718.614 633.886 736.364 633.886C754.115 633.886 768.542 642.448 768.542 652.982Z" fill="#FFD240"/>
<path d="M760.193 652.982C760.193 660.814 749.522 667.134 736.364 667.134C723.206 667.134 712.562 660.814 712.562 652.982C712.562 645.149 723.369 638.829 736.364 638.829C749.359 638.829 760.193 645.176 760.193 652.982Z" fill="#CC9C00"/>
<path d="M736.742 665.001C738.063 665.001 739.379 665.164 740.66 665.487C763.03 641.53 809.284 634.723 809.284 634.723C762.949 613.953 740.822 656.088 740.822 656.088C739.072 658.933 737.571 661.924 736.337 665.028L736.742 665.001Z" fill="#22509B"/>
<path d="M734.392 649.551C734.392 649.551 737.094 579.327 808.177 579.732C808.177 579.732 750.765 612.684 740.093 661.192C740.093 661.219 732.69 670.97 734.392 649.551Z" fill="#22509B"/>
<path d="M734.284 666.486C735.424 666.465 736.563 666.546 737.688 666.729C737.985 666.729 738.742 665.487 739.039 665.487C737.983 662.668 736.662 659.955 735.094 657.384C735.094 657.384 716.56 613.413 673.846 637.154C673.846 637.208 715.669 640.368 734.284 666.486Z" fill="#22509B"/>
<path d="M732.393 663.326C732.393 663.326 701.512 632.103 685.382 670.943C685.382 670.943 704.538 656.25 725.611 665.757C729.152 666.615 732.776 667.077 736.418 667.134C736.013 666.567 733.122 664.001 732.393 663.326Z" fill="#22509B"/>
<path d="M751.521 663.704C770.919 659.383 788.346 670.943 788.346 670.943C772.135 632.103 741.335 663.326 741.335 663.326C740.606 664.028 735.581 666.27 735.013 666.864C736.31 667.08 734.446 667.486 742.686 666.675C745.766 666.143 748.746 665.141 751.521 663.704Z" fill="#22509B"/>
<path d="M739.228 652.252C739.228 652.252 733.176 599.125 675.602 599.962C675.602 599.962 723.963 624.46 735.229 661.111C735.229 661.138 741.93 668.458 739.228 652.252Z" fill="#22509B"/>
<path d="M740.633 639.207C740.633 639.207 750.224 578.895 689.3 544.944C689.3 544.944 732.879 600.34 733.744 646.256C733.825 646.256 738.472 658.005 740.633 639.207Z" fill="#22509B"/>
<path d="M793.884 584.162C758.437 594.236 740.876 631.185 737.31 665.568" stroke="#1D4382" stroke-width="0.56" stroke-linecap="round" stroke-linejoin="round"/>
<path d="M737.85 665.919C751.359 647.012 774.648 631.266 798.694 634.21" stroke="#1D4382" stroke-width="0.56" stroke-linecap="round" stroke-linejoin="round"/>
<path d="M739.85 663.515C739.85 663.515 768.65 645.716 782.375 665.379" stroke="#1D4382" stroke-width="0.56" stroke-linecap="round" stroke-linejoin="round"/>
<path d="M700.755 555.721C725.614 581.377 739.426 615.751 739.228 651.469" stroke="#1D4382" stroke-width="0.56" stroke-linecap="round" stroke-linejoin="round"/>
<path d="M691.866 605.175C691.866 605.175 727.232 619.004 738.12 657.087" stroke="#1D4382" stroke-width="0.56" stroke-linecap="round" stroke-linejoin="round"/>
<path d="M684.923 635.588C684.923 635.588 720.37 636.695 737.931 666.621" stroke="#1D4382" stroke-width="0.56" stroke-linecap="round" stroke-linejoin="round"/>
<path d="M692.109 664.271C703.106 654.467 725.692 658.356 737.31 665.568" stroke="#1D4382" stroke-width="0.56" stroke-linecap="round" stroke-linejoin="round"/>
<path opacity="0.3" d="M213.007 1014.85L285.252 1055.91H555.32L350.689 942.171L213.007 1014.85Z" fill="url(#paint10_linear_10_10)"/>
<path d="M361.334 735.225L298.572 698.789L243.132 730.796L243.78 953.298L306.515 989.761L361.955 957.755L361.334 735.225Z" fill="#F03794"/>
<path d="M306.515 989.761L243.78 953.298L243.132 730.796L305.894 767.231L306.515 989.761Z" fill="#EB0A7B"/>
<path d="M305.894 767.231L243.132 730.796L298.572 698.789L361.334 735.225L305.894 767.231Z" fill="#FF3A9D"/>
<path d="M361.334 735.225L361.955 957.755L306.515 989.761L305.894 767.231L361.334 735.225Z" fill="#F03794"/>
<path d="M290.224 861.845L227.462 825.409L172.049 857.388L172.427 992.84L235.189 1029.3L290.602 997.297L290.224 861.845Z" fill="#80DAFF"/>
<path d="M235.189 1029.3L172.427 992.84L172.049 857.388L234.784 893.851L235.189 1029.3Z" fill="#36C4FF"/>
<path d="M234.784 893.851L172.049 857.388L227.462 825.409L290.224 861.845L234.784 893.851Z" fill="#A6E5FF"/>
<path d="M290.224 861.845L290.602 997.297L235.189 1029.3L234.784 893.851L290.224 861.845Z" fill="#80DAFF"/>
<path d="M456.3 958.511L388.946 919.402L329.453 953.731L329.642 1019.9L396.97 1059.04L456.463 1024.68L456.3 958.511Z" fill="#FFC919"/>
<path d="M396.97 1059.04L329.642 1019.9L329.453 953.731L396.808 992.867L396.97 1059.04Z" fill="#FFC300"/>
<path d="M396.808 992.867L329.453 953.731L388.946 919.402L456.3 958.511L396.808 992.867Z" fill="#FFD13D"/>
<path d="M456.3 958.511L456.462 1024.68L396.97 1059.04L396.808 992.867L456.3 958.511Z" fill="#FFC919"/>
<path opacity="0.3" d="M570.179 1005.48L674.062 1058.88H757.141L611.732 990.652L570.179 1005.48Z" fill="url(#paint11_linear_10_10)"/>
<path d="M625.484 959.673L585.417 955.351L562.912 960.321L569.558 999.863C569.855 1007.75 580.689 1014.1 594.036 1014.1C607.382 1014.1 618.189 1007.75 618.487 999.863L625.484 959.673Z" fill="#FFC919"/>
<path d="M594.036 978.525C611.404 978.525 625.484 970.157 625.484 959.835C625.484 949.512 611.404 941.144 594.036 941.144C576.667 941.144 562.587 949.512 562.587 959.835C562.587 970.157 576.667 978.525 594.036 978.525Z" fill="#FFD240"/>
<path d="M617.298 959.835C617.298 967.478 606.896 973.664 594.036 973.664C581.175 973.664 570.747 967.478 570.747 959.835C570.747 952.191 581.175 945.979 594.036 945.979C606.896 945.979 617.298 952.191 617.298 959.835Z" fill="#CC9C00"/>
<path d="M594.387 971.584C595.68 971.579 596.969 971.733 598.224 972.043C620.081 948.599 665.335 941.955 665.335 941.955C620 921.644 598.359 962.86 598.359 962.86C596.645 965.633 595.18 968.552 593.982 971.584H594.387Z" fill="#22509B"/>
<path d="M592.091 956.486C592.091 956.486 594.792 887.855 664.227 888.233C664.227 888.233 608.085 920.428 597.683 967.884C597.683 967.884 590.415 977.391 592.091 956.486Z" fill="#22509B"/>
<path d="M591.983 973.015C593.095 973.008 594.206 973.089 595.306 973.258C595.603 973.258 596.332 972.043 596.63 972.07C595.6 969.318 594.316 966.669 592.793 964.156C592.793 964.156 574.664 921.184 532.868 944.385C532.868 944.385 573.773 947.492 591.983 973.015Z" fill="#22509B"/>
<path d="M590.118 969.936C590.118 969.936 559.94 939.389 544.188 977.391C544.188 977.391 562.939 962.995 583.526 972.286C587.063 973.161 590.69 973.624 594.333 973.663C593.658 973.096 590.848 970.611 590.118 969.936Z" fill="#22509B"/>
<path d="M608.841 970.314C627.754 966.074 644.856 977.391 644.856 977.391C629.077 939.389 598.926 969.936 598.926 969.936C598.223 970.611 593.306 972.799 592.739 973.393C594.009 973.582 592.198 973.988 600.25 973.204C603.243 972.679 606.139 971.705 608.841 970.314Z" fill="#22509B"/>
<path d="M596.819 959.133C596.819 959.133 590.875 907.167 534.678 908.004C534.678 908.004 581.959 931.934 593.009 967.803C592.928 967.803 599.304 974.96 596.819 959.133Z" fill="#22509B"/>
<path d="M598.196 946.33C598.196 946.33 607.572 887.369 548.025 854.147C548.025 854.147 590.632 908.328 591.469 953.217C591.469 953.217 596.035 964.723 598.196 946.33Z" fill="#22509B"/>
<path d="M650.259 892.635C615.596 902.494 598.44 938.551 594.927 972.259" stroke="#1D4382" stroke-width="0.55" stroke-linecap="round" stroke-linejoin="round"/>
<path d="M595.468 972.475C608.679 953.92 631.455 938.578 654.906 941.468" stroke="#1D4382" stroke-width="0.55" stroke-linecap="round" stroke-linejoin="round"/>
<path d="M597.413 970.125C597.413 970.125 625.592 952.704 639.02 971.935" stroke="#1D4382" stroke-width="0.55" stroke-linecap="round" stroke-linejoin="round"/>
<path d="M559.21 864.708C583.585 889.763 597.164 923.372 597.035 958.322" stroke="#1D4382" stroke-width="0.55" stroke-linecap="round" stroke-linejoin="round"/>
<path d="M550.483 913.055C550.483 913.055 585.066 926.559 595.711 963.832" stroke="#1D4382" stroke-width="0.55" stroke-linecap="round" stroke-linejoin="round"/>
<path d="M543.729 942.792C543.729 942.792 578.366 943.899 595.549 973.15" stroke="#1D4382" stroke-width="0.55" stroke-linecap="round" stroke-linejoin="round"/>
<path d="M550.727 970.963C561.534 961.374 583.58 965.183 594.927 972.232" stroke="#1D4382" stroke-width="0.55" stroke-linecap="round" stroke-linejoin="round"/>
<path opacity="0.3" d="M692.839 904.601L771.001 948.113L830.358 952.056L716.101 886.315L692.839 904.601Z" fill="url(#paint12_linear_10_10)"/>
<path opacity="0.3" d="M834.276 836.321L886.744 866.031H937.213L854.593 820.034L834.276 836.321Z" fill="url(#paint13_linear_10_10)"/>
<path d="M704.457 734.361C704.457 734.361 718.317 741.41 733.771 748.081L753.818 733.28L760.113 740.681L737.499 760.722L708.185 750.836L704.457 734.361Z" fill="#68CEF7"/>
<path d="M829.305 700.248L802.962 712.105C802.962 712.105 800.261 713.78 803.314 715.4C803.314 715.4 825.576 712.213 832.412 708.135C836.418 703.298 840.161 698.249 843.624 693.009C841.408 689.336 842.435 685.555 840.76 681.557C838.058 685.123 829.305 700.248 829.305 700.248Z" fill="#FABCAF"/>
<path d="M856.322 670.187C856.322 670.187 849.378 666.324 837.977 681.341C839.591 685.355 841.477 689.253 843.624 693.009C847.001 688.092 849.793 682.799 851.945 677.236L856.322 670.187Z" fill="#EDEDED"/>
<path d="M839.653 661.354L839.977 772.093L737.958 831L737.634 720.235L839.653 661.354Z" fill="#0095FF"/>
<path d="M839.706 661.273L839.733 677.668L737.553 736.657L737.499 720.262L839.706 661.273Z" fill="#80DAFF"/>
<path d="M818.335 697.034L818.362 711.808L746.442 753.321L746.415 738.574L818.335 697.034Z" fill="#80DAFF"/>
<path d="M818.335 717.156L818.362 726.177L746.442 767.69L746.415 758.669L818.335 717.156Z" fill="#80DAFF"/>
<path d="M833.6 688.823L833.816 768.285L822.415 774.875L822.199 695.386L833.6 688.823Z" fill="#4ACBFF"/>
<path d="M795.073 745.381L795.127 769.176L745.55 797.779L745.496 773.983L795.073 745.381Z" fill="#4ACBFF"/>
<path d="M817.903 760.533L817.93 769.5L745.739 811.175L745.712 802.208L817.903 760.533Z" fill="#4ACBFF"/>
<path d="M817.93 773.74V778.197L745.739 819.872L745.712 815.416L817.93 773.74Z" fill="#80DAFF"/>
<path d="M818.119 732.389L818.2 755.563L799.666 766.259L799.612 743.085L818.119 732.389Z" fill="#80DAFF"/>
<g style="mix-blend-mode:multiply">
<path d="M818.687 677.641C820.497 676.588 821.983 677.425 821.983 679.532C821.92 680.667 821.591 681.772 821.023 682.757C820.456 683.742 819.664 684.58 818.714 685.204C816.903 686.23 815.417 685.393 815.417 683.313C815.48 682.178 815.809 681.073 816.377 680.088C816.945 679.103 817.736 678.265 818.687 677.641Z" fill="#00B4FF"/>
</g>
<g style="mix-blend-mode:multiply">
<path d="M808.339 683.286C810.149 682.233 811.635 683.07 811.635 685.15C811.572 686.278 811.243 687.375 810.675 688.351C810.107 689.327 809.316 690.156 808.366 690.768C806.556 691.821 805.07 690.984 805.07 688.904C805.124 687.774 805.449 686.674 806.018 685.696C806.587 684.718 807.383 683.892 808.339 683.286Z" fill="#00B4FF"/>
</g>
<g style="mix-blend-mode:multiply">
<path d="M828.71 672.401C830.52 671.348 832.006 672.212 832.033 674.346C831.975 675.514 831.643 676.652 831.066 677.67C830.489 678.688 829.683 679.556 828.71 680.207C826.9 681.287 825.387 680.423 825.387 678.262C825.452 677.096 825.786 675.96 826.363 674.943C826.939 673.926 827.742 673.057 828.71 672.401Z" fill="#00B4FF"/>
</g>
<path d="M714.642 915.431C714.642 918.564 714.642 920.158 720.289 919.807L742.47 919.186C744.497 918.781 747.604 917.619 747.279 915.161C746.955 912.703 744.199 912.163 742.065 911.812C737.067 910.948 732.014 910.192 726.962 909.516C725.587 909.269 724.197 909.115 722.801 909.057C713.372 909.057 714.642 912.298 714.642 915.431Z" fill="#1A1A1A"/>
<path d="M692.137 905.33C697.54 909.597 712.778 891.825 713.751 890.934C714.858 889.448 717.695 881.589 708.833 885.91C704.756 888.123 700.83 890.605 697.081 893.338C695.988 893.986 694.941 894.708 693.947 895.498C691.596 897.578 688.949 900.387 690.813 903.736C691.143 904.351 691.593 904.893 692.137 905.33Z" fill="#1A1A1A"/>
<path d="M728.853 810.635C728.853 810.635 731.555 879.86 729.475 909.543C724.738 912.934 719.088 914.817 713.264 914.945C713.264 914.945 709.184 844.721 708.698 834.836C708.698 834.836 706.888 816.658 705.402 857.847C705.402 857.847 704.294 885.829 703.727 891.96C703.727 891.96 696.513 904.385 689.894 901.116C689.894 901.116 689.408 828.407 691.38 796.266L728.853 810.635Z" fill="#1B1464"/>
<path d="M780.051 757.913C778.511 755.725 773.675 757.238 769.46 760.209C770.487 756.995 770.649 754.213 769.839 753.943C769.028 753.672 767.542 756.076 766.543 759.344C765.759 761.748 764.381 765.07 764.111 766.637C763.084 768.014 761.95 768.068 763.598 770.769C767.326 776.819 765.867 771.553 768.569 770.634C771.116 769.931 773.566 768.915 775.864 767.609C780.078 764.584 781.591 760.074 780.051 757.913Z" fill="#FABCAF"/>
<path d="M690.758 751.296L688.381 806.692C693.333 812.946 700.21 817.394 707.947 819.347C715.683 821.3 723.848 820.649 731.177 817.495C729.691 799.183 725.503 764.206 725.503 764.206C732.555 777.549 739.012 782.626 739.012 782.626C748.657 784.49 768.731 771.985 768.731 771.985C768.731 771.985 766.516 764.827 763.328 765.935L743.416 771.877C743.416 771.877 729.691 743.679 717.992 742.463C713.021 733.55 697.702 734.793 697.702 734.793C697.702 734.793 690.596 737.71 690.758 751.296Z" fill="#A6E5FF"/>
<path d="M719.451 713.699C719.571 711.759 719.292 709.816 718.632 707.988C717.972 706.161 716.945 704.488 715.613 703.072C714.282 701.656 712.675 700.528 710.891 699.757C709.107 698.986 707.184 698.588 705.24 698.588C703.297 698.588 701.374 698.986 699.589 699.757C697.805 700.528 696.198 701.656 694.867 703.072C693.536 704.488 692.508 706.161 691.848 707.988C691.188 709.816 690.909 711.759 691.029 713.699C691.029 717.669 693.92 721.801 697.783 724.961V734.739C700.755 742.842 709.617 736.494 709.617 736.494L708.969 730.579C709.856 730.78 710.761 730.889 711.67 730.904C719.641 731.012 719.451 722.099 719.451 713.699Z" fill="#FABCAF"/>
<path d="M711.859 712.942C711.049 713.645 711.508 717.939 710.454 718.344C709.4 718.749 706.915 714.239 705.942 716.346C705.402 717.453 706.32 720.262 706.429 721.45C706.731 723.687 706.667 725.959 706.239 728.176C705.24 732.335 702.052 732.686 698.756 730.444C694.818 727.554 691.843 723.544 690.218 718.938C688.435 714.266 680.113 715.13 694.649 698.06C709.86 680.153 725.989 700.869 711.859 712.942Z" fill="#0072D6"/>
<path d="M697.675 731.39C697.675 731.39 700.161 736.467 709.563 734.091C709.563 734.091 717.992 735.09 717.992 742.518C717.388 741.247 716.377 740.214 715.119 739.583C713.862 738.952 712.429 738.759 711.049 739.033C711.049 739.033 689.624 744.867 697.675 731.39Z" fill="white"/>
<path d="M844.597 825.112C850.649 820.331 852.405 820.494 853.999 822.654C855.593 824.815 855.782 826.247 849.46 830.757C843.138 835.268 836.329 838.212 834.33 836.402C831.439 833.701 838.41 830.001 844.597 825.112Z" fill="#0E0F2E"/>
<path d="M847.298 828.623C843.84 830.865 839.841 832.324 839.004 831.324C838.166 830.325 841.327 827.732 844.407 825.085C847.487 822.438 851.756 819.818 853.188 821.493C855.404 824.032 850 826.949 847.298 828.623Z" fill="#FABCAF"/>
<path d="M867.372 834.781C873.262 829.38 875.018 829.569 876.639 831.891C878.26 834.214 878.504 835.781 872.29 840.724C866.076 845.666 859.429 849.177 857.43 847.233C854.566 844.451 861.402 840.237 867.372 834.781Z" fill="#0E0F2E"/>
<path d="M870.236 838.617C866.832 841.156 862.887 842.83 862.131 841.804C861.374 840.778 864.373 837.807 867.534 834.863C870.696 831.918 874.721 828.947 876.153 830.757C878.125 833.35 872.722 836.672 870.236 838.617Z" fill="#FABCAF"/>
<path d="M846.19 709.512C846.19 709.512 838.409 726.312 847.676 821.898C847.676 821.898 850.162 824.599 855.349 821.52C855.349 821.52 858.051 769.068 859.051 744.867C859.051 744.867 860.05 730.525 869.858 831.891C871.106 832.237 872.415 832.307 873.693 832.097C874.971 831.887 876.188 831.403 877.261 830.676C877.261 830.676 880.746 776.468 879.206 741.032C878.612 727.257 877.261 716.318 874.667 712.483L858.24 719.506L846.19 709.512Z" fill="#0072D6"/>
<path d="M858.402 635.777C859.231 633.462 860.271 631.229 861.509 629.105C862.738 627.91 864.323 627.147 866.025 626.932C867.726 626.718 869.451 627.064 870.939 627.917C886.014 637.748 876.666 660.652 880.692 674.886C881.637 678.235 883.394 682.314 881.232 685.69C878.152 690.255 872.587 684.042 871.857 679.883C870.641 672.887 869.642 665.271 868.939 658.275C868.534 654.008 870.371 639.639 865.805 638.234L858.402 635.777Z" fill="#DB3387"/>
<path d="M868.912 635.507C868.652 635.511 868.4 635.415 868.21 635.236C863.509 631.185 860.537 633.805 860.402 633.913C860.187 634.114 859.901 634.221 859.607 634.21C859.313 634.2 859.035 634.074 858.835 633.859C858.634 633.644 858.527 633.358 858.537 633.065C858.547 632.771 858.674 632.493 858.889 632.292C858.889 632.292 863.401 628.133 869.696 633.562C869.811 633.653 869.907 633.767 869.977 633.897C870.046 634.027 870.089 634.169 870.102 634.316C870.114 634.463 870.097 634.61 870.05 634.75C870.004 634.89 869.929 635.019 869.831 635.128C869.718 635.259 869.576 635.361 869.416 635.426C869.257 635.492 869.084 635.519 868.912 635.507Z" fill="white"/>
<path d="M853.107 670.7C853.593 669.943 864.076 665.298 868.453 667.999C872.455 670.449 876.093 673.45 879.26 676.912C879.26 681.368 873.451 705.083 874.667 712.51C876.153 713.996 861.347 727.824 844.948 712.132C844.948 712.132 845.434 708.108 846.785 700.383C846.785 700.383 837.653 694.198 844.569 682.827C846.055 680.585 851.378 673.455 853.107 670.7Z" fill="white"/>
<path d="M872.722 651.307C872.722 642.502 867.021 635.371 859.97 635.371C852.918 635.371 847.217 642.502 847.217 651.307C847.217 660.112 850.648 668.944 857.403 669.349V673.698C857.403 673.698 861.888 685.042 869.345 667.675L870.128 660.652C871.791 657.816 872.685 654.595 872.722 651.307Z" fill="#FABCAF"/>
<path d="M865.859 688.742C864.265 692.28 860.456 697.142 856.835 704.948L831.277 715.751C828.238 715.598 825.261 714.836 822.523 713.51C819.497 712.132 816.741 711.619 816.39 712.321C816.039 713.023 818.173 714.779 821.199 716.156C816.147 717.156 811.581 717.966 812.121 720.478C812.662 722.99 817.146 726.393 822.199 725.394C825.085 724.026 827.891 722.493 830.601 720.802C830.601 720.802 852.864 717.615 859.699 713.537C864.765 708.88 869.504 703.881 873.883 698.573C870.425 694.252 870.317 691.848 865.859 688.742Z" fill="#FABCAF"/>
<path d="M878.206 675.291C876.828 674.265 874.775 674.697 871.83 677.803C868.229 681.937 865.335 686.637 863.266 691.713C863.266 691.713 867.967 699.816 874.397 702.085C874.208 701.869 879.287 690.984 879.8 689.768C880.989 685.663 881.043 677.398 878.206 675.291Z" fill="#EDEDED"/>
<path d="M856.971 653.36C861.293 654.656 865.805 655.764 867.913 659.464C869.318 658.005 869.074 655.439 868.777 650.605C875.505 641.692 870.587 660.328 870.533 660.544C872.317 653.981 876.72 646.418 873.83 639.585C870.371 631.482 856.7 631.266 851.027 637.235C849.325 639.018 846.65 644.636 847.595 647.067C849.162 650.767 852.972 652.252 856.971 653.36Z" fill="#F03794"/>
<path d="M418.125 482.093C421.475 481.796 424.122 480.878 424.041 480.014C423.96 479.149 421.34 478.744 417.854 479.041C415.315 479.258 411.694 479.257 410.154 479.636C409.533 479.474 378.679 467.752 378.679 467.752C374.978 459.838 371.276 454.949 369.655 451.546C365.197 454.652 365.089 456.948 361.55 461.431C365.934 466.742 370.683 471.742 375.761 476.395C382.11 480.203 407.831 485.037 408.182 485.389C409.82 487.467 411.707 489.336 413.802 490.953C418.152 493.653 422.907 493.329 424.312 490.953C425.716 488.576 422.501 484.794 418.125 482.093Z" fill="#FABCAF"/>
<path d="M357.308 437.933C358.686 436.907 360.739 437.339 363.684 440.445C367.278 444.579 370.179 449.267 372.276 454.328C372.276 454.328 367.575 462.431 361.144 464.726C361.306 464.51 356.227 453.599 355.741 452.41C354.525 448.305 354.471 440.04 357.308 437.933Z" fill="#FF0F88"/>
<path d="M438.28 436.367C437.658 433.666 428.58 431.91 424.365 432.828C420.151 433.747 418.692 435.205 419.286 437.987C419.586 438.81 420.158 439.506 420.907 439.959C420.907 440.607 421.177 441.255 421.285 441.85C421.745 444.55 422.771 446.765 423.582 446.549C424.392 446.333 424.636 444.172 424.284 441.606C426.795 442.532 429.495 442.828 432.147 442.471C436.388 441.579 438.901 439.149 438.28 436.367Z" fill="#FABCAF"/>
<path d="M635.346 740.627C620.27 749.324 608.085 770.337 608.139 787.731C608.193 805.125 634.211 824.275 635.589 825.274C636.94 822.708 662.795 773.551 662.741 756.211C662.687 738.871 650.421 731.93 635.346 740.627ZM634.535 786.732C626.268 791.513 619.513 787.677 619.486 778.143C619.758 772.951 621.256 767.897 623.858 763.395C626.459 758.892 630.09 755.07 634.454 752.241C642.748 747.46 649.503 751.296 649.53 760.83C649.251 766.024 647.747 771.078 645.141 775.579C642.535 780.081 638.9 783.902 634.535 786.732Z" fill="white"/>
<path d="M263.989 1002.94L223.031 998.539L200.012 1003.62L206.793 1044.13C207.09 1052.23 218.168 1058.69 231.811 1058.69C245.455 1058.69 256.532 1052.21 256.83 1044.13L263.989 1002.94Z" fill="#F03794"/>
<path d="M263.989 1003.1C263.989 1013.66 249.589 1022.23 231.812 1022.23C214.034 1022.23 199.661 1013.66 199.661 1003.1C199.661 992.543 214.061 983.981 231.812 983.981C249.562 983.981 263.989 992.57 263.989 1003.1Z" fill="#FF54AA"/>
<path d="M255.614 1003.1C255.614 1010.94 244.969 1017.26 231.812 1017.26C218.654 1017.26 208.009 1010.94 208.009 1003.1C208.009 995.271 218.654 988.951 231.812 988.951C244.969 988.951 255.614 995.271 255.614 1003.1Z" fill="#EB0A7B"/>
<path d="M232.19 1015.12C233.511 1015.13 234.826 1015.29 236.107 1015.61C258.478 991.625 304.732 984.845 304.732 984.845C258.397 964.048 236.243 1006.21 236.243 1006.21C234.498 1009.05 233.006 1012.05 231.785 1015.15L232.19 1015.12Z" fill="#2D6CD1"/>
<path d="M229.839 999.701C229.839 999.701 232.541 929.476 303.624 929.881C303.624 929.881 246.212 962.833 235.54 1011.34C235.54 1011.48 228.137 1021.07 229.839 999.701Z" fill="#2D6CD1"/>
<path d="M229.704 1016.61C230.844 1016.59 231.983 1016.67 233.108 1016.85C233.433 1016.85 234.162 1015.61 234.486 1015.61C233.413 1012.8 232.093 1010.09 230.542 1007.51C230.542 1007.51 212.008 963.562 169.293 987.276C169.293 987.303 211.116 990.49 229.704 1016.61Z" fill="#2D6CD1"/>
<path d="M227.84 1013.45C227.84 1013.45 196.959 982.225 180.83 1021.06C180.83 1021.06 199.985 1006.34 221.059 1015.85C224.596 1016.73 228.222 1017.2 231.866 1017.26C231.433 1016.66 228.597 1014.18 227.84 1013.45Z" fill="#2D6CD1"/>
<path d="M246.969 1013.83C266.34 1009.48 283.794 1021.06 283.794 1021.06C267.583 982.225 236.783 1013.45 236.783 1013.45C236.054 1014.15 231.028 1016.39 230.461 1016.99C231.758 1017.18 229.894 1017.58 238.134 1016.8C241.214 1016.27 244.193 1015.26 246.969 1013.83Z" fill="#2D6CD1"/>
<path d="M234.676 1002.4C234.676 1002.4 228.597 949.355 171.049 950.111C171.049 950.111 219.411 974.609 230.677 1011.26C230.677 1011.26 237.215 1018.58 234.676 1002.4Z" fill="#2D6CD1"/>
<path d="M236.08 989.329C236.08 989.329 245.672 928.99 184.747 895.039C184.747 895.039 228.326 950.435 229.191 996.351C229.218 996.351 234 1008.13 236.08 989.329Z" fill="#2D6CD1"/>
<path d="M289.332 934.257C253.885 944.331 236.324 981.307 232.757 1015.66" stroke="#295FB8" stroke-width="0.56" stroke-linecap="round" stroke-linejoin="round"/>
<path d="M233.297 1016.04C246.806 997.135 270.095 981.361 294.141 984.332" stroke="#295FB8" stroke-width="0.56" stroke-linecap="round" stroke-linejoin="round"/>
<path d="M235.27 1013.64C235.27 1013.64 264.098 995.838 277.823 1015.5" stroke="#295FB8" stroke-width="0.56" stroke-linecap="round" stroke-linejoin="round"/>
<path d="M196.175 905.843C221.074 931.482 234.925 965.858 234.756 1001.59" stroke="#295FB8" stroke-width="0.56" stroke-linecap="round" stroke-linejoin="round"/>
<path d="M187.313 955.297C187.313 955.297 222.679 969.126 233.54 1007.21" stroke="#295FB8" stroke-width="0.56" stroke-linecap="round" stroke-linejoin="round"/>
<path d="M180.37 985.71C180.37 985.71 215.817 986.817 233.379 1016.72" stroke="#295FB8" stroke-width="0.56" stroke-linecap="round" stroke-linejoin="round"/>
<path d="M187.557 1014.39C198.526 1004.56 221.139 1008.48 232.757 1015.66" stroke="#295FB8" stroke-width="0.56" stroke-linecap="round" stroke-linejoin="round"/>
<path d="M426.041 843.586C417.719 838.752 406.21 839.427 393.404 846.72C368.142 861.278 347.717 896.66 347.798 925.668C347.798 940.091 352.931 950.246 361.145 955.027L363.846 956.675C355.741 951.894 350.554 941.738 350.5 927.315C350.5 898.307 370.844 862.952 396.105 848.367C408.831 841.021 420.421 840.264 428.689 845.18L426.041 843.586Z" fill="#E3E3E3"/>
<path d="M396.322 848.421C421.61 833.836 442.251 845.531 442.251 874.566C442.251 903.601 421.907 938.956 396.619 953.542C371.33 968.127 350.689 956.405 350.689 927.369C350.689 898.334 371.06 862.925 396.322 848.421Z" fill="white"/>
<path d="M397.402 916.944L397.915 916.674C401.401 914.972 404.021 916.971 403.751 921.157C403.542 923.246 402.868 925.262 401.779 927.056C400.69 928.851 399.213 930.379 397.456 931.529L396.943 931.799C393.458 933.474 390.837 931.502 391.107 927.316C391.312 925.226 391.985 923.209 393.074 921.414C394.164 919.619 395.643 918.091 397.402 916.944Z" fill="#F03794"/>
<path d="M396.808 896.714C397.51 896.309 398.24 895.931 398.942 895.58C404.967 892.663 410.695 892.257 415.153 894.526C416.612 895.255 416.666 897.794 415.315 900.252C414.668 901.375 413.736 902.307 412.613 902.953C412.257 903.195 411.847 903.348 411.42 903.4C410.992 903.452 410.558 903.4 410.154 903.25C408.268 902.442 406.218 902.091 404.17 902.227C402.123 902.364 400.137 902.982 398.375 904.033C397.861 904.277 397.375 904.547 396.862 904.844C391.237 908.347 386.59 913.215 383.353 918.997C382.763 920.099 381.897 921.029 380.84 921.698C380.451 921.973 379.997 922.14 379.522 922.183C379.048 922.225 378.57 922.142 378.139 921.941C376.761 921.103 376.788 918.51 378.139 916.107C382.611 908.161 389.036 901.486 396.808 896.714Z" fill="#F03794"/>
<path d="M396.726 875.89C397.861 875.242 398.969 874.647 400.104 874.107C408.803 869.867 416.936 869.002 423.609 871.649C425.122 872.243 425.311 874.701 424.041 877.186C423.435 878.423 422.5 879.47 421.339 880.211C421.004 880.441 420.62 880.592 420.218 880.653C419.815 880.713 419.405 880.683 419.016 880.562C413.612 878.402 406.777 879.131 399.59 882.615C398.645 883.074 397.726 883.56 396.889 884.074C387.74 889.745 380.065 897.501 374.491 906.707C373.902 907.671 373.097 908.485 372.14 909.084C371.754 909.372 371.291 909.538 370.81 909.562C370.329 909.586 369.852 909.467 369.439 909.219C368.142 908.247 368.277 905.573 369.79 903.223C376.479 892.11 385.711 882.742 396.726 875.89Z" fill="#F03794"/>
<path opacity="0.3" d="M788.319 1020.31L846.19 1049.99L935.24 1014.37L875.856 983.225L788.319 1020.31Z" fill="url(#paint14_linear_10_10)"/>
<path d="M893.039 932.258L880.368 925.047C880.453 925.151 880.553 925.241 880.665 925.317L893.336 932.663C893.213 932.604 893.11 932.51 893.039 932.393" fill="#835D01"/>
<path d="M879.152 911.731L866.48 904.385L880.367 924.912L893.039 932.258L879.152 911.731Z" fill="#F03794"/>
<path d="M875.099 896.471L886.446 889.908L895.578 884.668H896.578H896.713L909.384 892.041C909.218 891.986 909.037 891.986 908.871 892.041C908.64 892.059 908.417 892.133 908.222 892.257L899.091 897.524L887.743 904.087L880.61 908.193L867.966 900.738L875.099 896.471Z" fill="#F03794"/>
<path d="M880.638 907.95C879.341 908.706 878.53 910.813 879.152 911.731L893.039 932.258C893.363 932.744 893.957 932.744 894.525 932.42C895.204 931.942 895.699 931.247 895.929 930.449L909.654 893.986C910.303 892.311 909.465 891.285 908.168 891.906L899.036 897.173L887.689 903.736L880.638 907.95Z" fill="white"/>
<path d="M866.21 903.439V902.386V902.224V902.062C866.218 902.008 866.218 901.953 866.21 901.9L866.345 901.711L879.017 909.057C878.679 909.259 878.386 909.525 878.152 909.84C877.893 910.153 877.691 910.51 877.558 910.894C877.403 911.233 877.32 911.601 877.314 911.974C877.296 912.278 877.372 912.579 877.531 912.839L864.859 905.492V903.439H866.21Z" fill="#F03794"/>
<path d="M801.368 1010.45C800.693 1010.13 800.044 1009.8 799.396 1009.42L786.698 1002.05C787.346 1002.43 788.022 1002.75 788.697 1003.08L789.372 1003.37C789.832 1003.56 790.318 1003.78 790.804 1003.94L791.372 1004.13C792.436 1004.48 793.518 1004.78 794.614 1005.02H794.938C795.731 1005.17 796.514 1005.27 797.289 1005.35H798.153C798.694 1005.35 799.234 1005.35 799.774 1005.35H800.72H802.071H803.151H804.313L805.529 1005.21L806.556 1005.05L807.907 1004.78L808.852 1004.59L810.311 1004.21L811.203 1003.97L812.77 1003.48L813.58 1003.21C814.337 1002.97 815.12 1002.67 815.877 1002.37L818.281 1001.35L819.038 1001L820.767 1000.16L821.604 999.701L823.901 998.458C824.901 997.864 825.927 997.243 826.927 996.594L827.575 996.162L829.899 994.596L830.628 994.056C831.574 993.38 832.52 992.651 833.465 991.922L833.843 991.598L836.275 989.599L837.139 988.843C837.842 988.222 838.517 987.627 839.166 987.006L839.976 986.25C840.895 985.386 841.787 984.521 842.678 983.549L842.921 983.306C843.732 982.469 844.515 981.631 845.326 980.74L846.055 979.93C846.731 979.173 847.433 978.39 848.109 977.58C848.271 977.391 848.46 977.202 848.622 976.986L851.054 973.988C851.297 973.664 851.54 973.312 851.81 972.988C852.08 972.664 852.891 971.584 853.404 970.855C853.917 970.125 854.89 968.802 855.619 967.748C855.809 967.424 856.052 967.127 856.241 966.83C857.673 964.723 858.943 962.536 860.348 960.321C860.512 960.006 860.692 959.699 860.888 959.403C861.374 958.565 861.807 957.728 862.266 956.891C862.725 956.053 862.887 955.783 863.211 955.216C863.536 954.649 863.509 954.595 863.671 954.298C864.184 953.325 864.67 952.38 865.13 951.408L865.562 950.544C866.156 949.301 866.724 948.059 867.264 946.789L867.399 946.519C867.433 946.415 867.478 946.316 867.534 946.222L867.696 945.898L867.94 945.466C867.996 945.371 868.059 945.281 868.129 945.196V945.007C868.175 944.898 868.239 944.798 868.318 944.71L868.642 944.25C868.707 944.146 868.779 944.047 868.858 943.953L869.074 943.683V943.548L869.29 943.305L869.534 943.062L869.75 942.819L870.02 942.603L870.182 942.441L870.425 942.252L870.668 942.063L870.911 941.874L871.155 941.738L871.398 941.576H871.56L871.803 941.441H872.019H872.181H872.424H872.641H872.884H873.1H873.343H874.154H874.451H874.829C874.994 941.486 875.149 941.559 875.288 941.657L887.959 949.004C887.694 948.864 887.413 948.755 887.122 948.68C886.88 948.653 886.635 948.653 886.392 948.68C886.141 948.653 885.887 948.653 885.636 948.68L884.852 948.923L884.042 949.328C883.57 949.598 883.126 949.915 882.718 950.273C882.271 950.653 881.855 951.069 881.475 951.516C881.105 951.972 880.762 952.45 880.449 952.947V953.109C880.119 953.65 879.822 954.209 879.557 954.784L879.314 955.324C878.963 956.161 878.584 956.972 878.206 957.782L877.855 958.511L877.423 959.376C877.261 959.754 877.071 960.105 876.909 960.483L875.964 962.293L875.504 963.211C875.431 963.313 875.368 963.421 875.315 963.535L874.559 964.885C874.126 965.723 873.667 966.56 873.181 967.37L872.938 967.802C872.849 967.97 872.749 968.133 872.641 968.289C871.317 970.53 869.939 972.691 868.534 974.825C868.372 975.095 868.156 975.365 867.966 975.635C867.264 976.689 866.535 977.715 865.778 978.741L865.427 979.227C865.022 979.795 864.589 980.335 864.184 980.875L863.428 981.847L863.509 981.766C862.86 982.604 862.185 983.414 861.509 984.251L861.293 984.494L860.78 985.089L859.51 986.574C859.24 986.871 858.97 987.141 858.727 987.438L857.997 988.249L857.457 988.843L855.592 990.787L855.376 991.031L853.134 993.245L852.729 993.623L851.918 994.38L850.81 995.406L849.919 996.189L849.027 996.946L848.46 997.432C847.847 997.972 847.226 998.485 846.596 998.971L846.217 999.268C845.434 999.89 844.677 1000.46 843.894 1001.02L843.462 1001.35L842.732 1001.86L841.624 1002.64L840.436 1003.43L839.76 1003.89L839.409 1004.1L837.248 1005.45L836.734 1005.72L835.086 1006.67L834.438 1006.99L833.6 1007.43L832.925 1007.78L831.871 1008.29L831.088 1008.78L830.763 1008.94L828.683 1009.8L826.657 1010.59H826.359L825.576 1010.86L824.522 1011.18L823.982 1011.34L822.982 1011.48L822.28 1011.67L821.523 1011.83L820.578 1012.04H820.118H819.227L818.2 1012.23H817.849H816.984H815.823H815.498H812.445H810.824H810.338H809.987C809.189 1012.16 808.395 1012.04 807.609 1011.88H807.285C806.206 1011.82 805.132 1011.68 804.07 1011.48H803.746H803.476L802.044 1010.88L801.368 1010.45Z" fill="#F03794"/>
<path d="M763.922 996.892C763.544 995.865 763.192 994.812 762.868 993.705L775.539 1001.08C775.891 1002.27 776.296 1003.4 776.701 1004.51C777.106 1005.62 777.35 1006.02 777.674 1006.75C777.998 1007.48 778.025 1007.61 778.214 1008.02C778.855 1009.34 779.567 1010.63 780.349 1011.88L781.078 1012.99C781.537 1013.66 781.997 1014.34 782.483 1014.96C782.969 1015.58 783.077 1015.72 783.402 1016.07C783.726 1016.42 784.401 1017.23 784.942 1017.77L785.914 1018.74C786.509 1019.31 787.13 1019.82 787.751 1020.34L788.643 1021.06C789.587 1021.77 790.57 1022.42 791.588 1023.01L778.89 1015.66C777.884 1015.06 776.91 1014.4 775.972 1013.69C775.647 1013.48 775.377 1013.21 775.08 1012.96C774.783 1012.72 773.837 1011.94 773.243 1011.37L772.27 1010.42C771.73 1009.86 771.217 1009.29 770.73 1008.69C770.244 1008.1 770.109 1007.97 769.812 1007.59C769.514 1007.21 768.866 1006.32 768.407 1005.64C768.245 1005.37 768.029 1005.16 767.866 1004.89C767.704 1004.62 767.866 1004.62 767.65 1004.51C766.878 1003.27 766.175 1001.99 765.543 1000.67C765.543 1000.67 765.219 999.89 765.057 999.512C764.894 999.133 764.381 998.026 764.084 997.243C764.054 997.116 763.999 996.997 763.922 996.892Z" fill="#F03794"/>
<path d="M775.54 1001.08C783.267 1027.11 807.798 1035.33 836.734 1018.63C857.889 1006.43 877.531 983.036 889.31 956.053C891.04 952.137 890.337 948.545 887.797 947.951C886.7 947.825 885.592 948.082 884.663 948.68C882.612 949.971 881.001 951.855 880.043 954.082C870.344 976.31 854.107 995.595 836.815 1005.64C814.094 1018.77 794.695 1013.26 787.373 994.164L775.54 1001.08Z" fill="white"/>
<path d="M787.265 994.299L774.594 986.952L762.868 993.705L775.539 1001.08L787.265 994.299Z" fill="#D99902"/>
<path d="M750.467 998.836V998.593V997.972L764.165 961.509V961.347L764.327 961.104V960.969H765.192H765.327L777.998 968.343C777.822 968.289 777.634 968.289 777.458 968.343C777.227 968.375 777.005 968.458 776.81 968.586C776.483 968.768 776.198 969.017 775.972 969.315C775.685 969.653 775.456 970.036 775.297 970.449L761.599 1006.91C761.502 1007.15 761.438 1007.39 761.41 1007.64C761.382 1007.85 761.382 1008.06 761.41 1008.26C761.431 1008.43 761.486 1008.6 761.572 1008.75C761.649 1008.87 761.75 1008.97 761.869 1009.05L749.198 1001.7C749.085 1001.61 748.985 1001.51 748.9 1001.4V1001.13V1000.75L750.467 998.836Z" fill="#FF3A9D"/>
<path d="M778.566 966.884C777.868 967.32 777.336 967.976 777.053 968.748L763.355 1005.21C762.733 1006.88 763.544 1007.91 764.841 1007.26L775.648 1001.08L787.373 994.299L792.561 991.328C793.858 990.571 794.668 988.492 794.047 987.546L780.16 967.019C779.754 966.533 779.133 966.533 778.566 966.884Z" fill="white"/>
<path d="M874.1 892.636C873.802 891.636 873.451 890.664 873.1 889.745C872.938 889.286 872.722 888.854 872.533 888.395C872.343 887.936 872.046 887.261 871.776 886.72C871.506 886.18 870.884 885.046 870.425 884.263L869.939 883.425C869.588 882.885 869.209 882.399 868.831 881.886L868.021 880.751L866.724 879.347C866.427 879.023 866.156 878.699 865.859 878.402C865.562 878.104 864.806 877.483 864.265 877.051C864.016 876.813 863.754 876.587 863.482 876.376C862.658 875.753 861.801 875.176 860.915 874.647L873.613 882.021C874.504 882.544 875.361 883.121 876.18 883.749C876.45 883.939 876.693 884.209 876.963 884.425C877.51 884.846 878.033 885.296 878.53 885.775C878.828 886.072 879.098 886.396 879.395 886.72C879.692 887.045 880.287 887.612 880.692 888.125L881.502 889.259C881.881 889.746 882.259 890.259 882.61 890.799L882.988 891.474C883.448 892.257 883.907 893.068 884.339 893.932C884.339 894.067 884.474 894.175 884.555 894.337C884.636 894.499 884.907 895.201 885.096 895.634C885.285 896.066 885.501 896.498 885.663 896.957L885.825 897.362C886.122 898.172 886.393 899.01 886.663 899.874V900.117C886.936 901.005 887.161 901.906 887.338 902.818L887.581 903.925L874.91 896.552C874.64 895.255 874.343 894.013 873.992 892.825L874.1 892.636Z" fill="#F03794"/>
<path d="M876.612 866.004L875.234 865.545L874.343 865.275C873.783 865.108 873.215 864.973 872.641 864.87C872.42 864.8 872.194 864.746 871.965 864.708H871.533C870.614 864.546 869.642 864.384 868.669 864.303H867.615C866.967 864.303 866.319 864.303 865.67 864.303H864.508H862.833H861.564L860.159 864.438L858.673 864.627L857.457 864.816L855.809 865.113L854.62 865.383L852.891 865.815L851.783 866.112L849.865 866.707L848.919 867.031C848.001 867.328 847.082 867.679 846.218 868.057H846.082C845.137 868.435 844.164 868.867 843.192 869.299L842.273 869.732L840.193 870.758L839.166 871.298L836.464 872.811L823.793 865.437L825.792 864.33L826.576 863.925L827.602 863.384L828.386 862.925L829.71 862.304L830.574 861.899L830.953 861.737C831.79 861.332 832.655 860.981 833.492 860.656L835.924 859.738H836.275L837.221 859.441L838.491 859.009L839.139 858.82L840.22 858.523L841.057 858.307L841.976 858.091L843.138 857.847L843.732 857.712L844.813 857.523L846.001 857.334H846.434H847.514L848.919 857.199H850.189H851.864H853.026H854.971H855.566H856.025C856.998 857.199 857.943 857.442 858.889 857.604H859.213L859.888 857.766L861.591 858.199L862.482 858.469L863.563 858.793H863.86L865.535 859.468L866.373 859.819C867.156 860.197 867.967 860.602 868.723 861.062L881.394 868.435C880.611 867.976 879.827 867.571 879.017 867.193L878.179 866.842L876.612 866.004Z" fill="#F35BA7"/>
<path d="M765.084 945.304V945.034C765.099 944.971 765.099 944.907 765.084 944.845C765.097 944.755 765.097 944.664 765.084 944.575C765.084 944.575 765.084 944.385 765.084 944.304C765.071 944.206 765.071 944.106 765.084 944.007C765.073 943.909 765.073 943.809 765.084 943.71C765.084 943.71 765.084 943.521 765.084 943.44V943.116V942.819C765.381 941.847 765.705 940.874 766.002 939.929L767.056 936.904V936.715C767.434 935.661 767.84 934.635 768.245 933.582L769.217 931.151L769.38 930.773V930.53L770.676 927.478C771.001 926.775 771.352 926.046 771.676 925.317L771.919 924.804L772.081 924.453C772.595 923.345 773.108 922.238 773.675 921.157L774.351 919.834L774.972 918.618C775.188 918.213 775.377 917.808 775.594 917.43C775.81 917.052 776.35 916.08 776.728 915.404C777.107 914.729 777.701 913.622 778.214 912.703L778.674 911.866C778.89 911.515 779.106 911.191 779.322 910.813C780.565 908.787 781.835 906.761 783.131 904.79L783.753 903.79L784.158 903.223C784.861 902.197 785.59 901.197 786.32 900.171L787.616 898.307L787.995 897.821L788.805 896.768L790.318 894.796L791.696 893.068L792.371 892.257L792.777 891.744C793.587 890.772 794.398 889.827 795.235 888.881C795.451 888.638 795.668 888.422 795.857 888.179L796.586 887.369L797.694 886.126L800.396 883.425C801.233 882.534 802.098 881.697 803.097 880.859L804.259 879.779C804.529 879.482 804.827 879.212 805.124 878.942C805.389 878.722 805.641 878.487 805.88 878.24C806.826 877.402 807.771 876.565 808.744 875.755L809.014 875.539L809.582 875.052L811.581 873.432L813.283 872.135L813.958 871.622L814.877 871.028C815.796 870.362 816.696 869.714 817.579 869.083C817.856 868.87 818.145 868.672 818.443 868.489L819.227 867.976L820.254 867.301L822.955 865.68L823.577 865.302L836.248 872.676C834.825 873.504 833.393 874.404 831.952 875.377L831.169 875.89C829.818 876.781 828.467 877.726 827.143 878.726L826.468 879.239C825.225 880.184 823.982 881.157 822.766 882.156L822.199 882.615C820.902 883.722 819.497 884.857 818.308 886.045L817.444 886.856C816.174 888.044 814.904 889.259 813.661 890.529C812.391 891.825 811.149 893.23 809.906 894.526L809.176 895.309C808.015 896.66 806.826 898.01 805.691 899.415L805.016 900.225C804.043 901.441 803.07 902.683 802.125 903.925C801.855 904.277 801.584 904.601 801.341 904.952C800.747 905.735 800.207 906.545 799.639 907.329C799.072 908.112 798.18 909.354 797.478 910.381L796.451 911.92C795.154 913.919 793.884 915.918 792.642 917.97C792.29 918.592 791.885 919.213 791.534 919.834C791.183 920.455 790.534 921.617 790.048 922.535L788.292 925.722C788.103 926.127 787.887 926.532 787.67 926.937C786.833 928.585 786.022 930.259 785.239 931.934L784.996 932.447C784.158 934.257 783.375 936.067 782.618 937.849L782.456 938.227C781.7 940.118 780.943 942.009 780.268 943.899V944.115C779.565 946.06 778.917 948.032 778.295 950.003C778.071 950.696 777.926 951.412 777.863 952.137C777.78 952.746 777.78 953.364 777.863 953.974C777.96 954.478 778.143 954.962 778.403 955.405C778.656 955.794 778.987 956.125 779.376 956.378L766.705 949.004C766.319 948.781 765.994 948.465 765.759 948.086C765.68 947.978 765.617 947.86 765.57 947.735C765.514 947.632 765.468 947.523 765.435 947.41C765.42 947.312 765.42 947.212 765.435 947.113V946.816C765.435 946.816 765.435 946.816 765.435 946.654C765.435 946.654 765.435 946.492 765.435 946.384C765.422 946.304 765.422 946.222 765.435 946.141C765.423 946.051 765.423 945.961 765.435 945.871V945.358L765.084 945.304Z" fill="#F35BA7"/>
<path d="M836.329 872.676C811.067 887.261 788.265 917.646 778.214 950.057C776.998 954.028 778.214 957.053 781.132 956.837C781.915 956.758 782.671 956.509 783.347 956.107C785.804 954.517 787.614 952.104 788.454 949.301C796.748 922.562 815.471 897.524 836.356 885.505C861.59 870.947 882.772 879.347 887.689 903.844L899.037 897.281C893.957 865.788 867.723 854.552 836.329 872.676Z" fill="white"/>
<path d="M402.454 577.382C401.563 574.871 396.51 575.006 391.647 576.734C393.484 574.033 394.349 571.332 393.701 570.792C393.052 570.252 390.999 572.224 389.054 575.033C387.676 577.166 385.433 579.975 384.731 581.407C383.38 582.46 382.299 582.217 383.137 585.242C385.082 592.076 385.109 586.62 387.946 586.458C390.594 586.477 393.235 586.168 395.808 585.539C400.671 583.811 403.346 579.894 402.454 577.382Z" fill="#FABCAF"/>
<path d="M303.894 743.328C303.894 746.461 303.894 748.054 309.568 747.703L331.75 747.109C333.776 746.677 336.883 745.543 336.532 743.085C336.18 740.627 333.479 740.087 331.344 739.709C326.346 738.871 321.294 738.088 316.241 737.413C314.865 737.18 313.475 737.027 312.081 736.954C302.652 736.954 303.894 740.195 303.894 743.328Z" fill="#1A1A1A"/>
<path d="M281.416 733.28C286.819 737.521 302.03 719.776 303.03 718.884C304.11 717.399 306.974 709.539 298.113 713.834C294.041 716.057 290.115 718.537 286.36 721.261C285.267 721.919 284.22 722.65 283.226 723.449C280.875 725.529 278.201 728.338 280.065 731.552C280.402 732.208 280.86 732.795 281.416 733.28Z" fill="#1A1A1A"/>
<path d="M318.133 638.559C318.133 638.559 320.834 707.784 318.754 737.44C314.02 740.835 308.369 742.718 302.544 742.842C302.544 742.842 298.464 672.617 297.951 662.732C297.951 662.732 296.167 644.555 294.681 685.717C294.681 685.717 293.574 713.726 293.006 719.83C293.006 719.83 285.766 732.254 279.173 728.986C279.173 728.986 278.66 656.304 280.659 624.163L318.133 638.559Z" fill="#1B1464"/>
<path d="M295.627 578.22C290.748 594.359 284.967 610.211 278.309 625.702C290.358 652.252 320.456 646.58 320.456 646.58C323.995 628.565 331.263 591.589 331.263 591.589C360.982 604.878 361.955 601.664 361.955 601.664C368.898 598.963 385.217 589.834 385.217 589.834C385.217 589.834 387.919 581.893 380.894 581.434C380.894 581.434 366.116 586.512 360.955 586.593C360.955 586.593 331.398 577.463 327.426 573.088C325.211 565.795 308.865 558.989 308.865 558.989C308.865 558.989 301.544 553.749 295.627 578.22Z" fill="white"/>
<path d="M326.265 528.009C324.386 527.55 322.435 527.464 320.524 527.759C318.612 528.053 316.777 528.721 315.124 529.724C313.47 530.727 312.031 532.046 310.888 533.606C309.744 535.165 308.92 536.935 308.46 538.813C307.272 543 309.406 548.266 312.783 552.642L310.379 561.204C311.027 569.847 320.726 565.93 320.726 565.93L321.888 560.529C322.49 560.813 323.113 561.047 323.752 561.231C331.317 563.365 333.56 554.749 335.829 546.673C336.442 544.82 336.68 542.864 336.53 540.919C336.38 538.973 335.844 537.077 334.954 535.34C334.064 533.604 332.837 532.061 331.346 530.803C329.854 529.544 328.127 528.595 326.265 528.009Z" fill="#FABCAF"/>
<path d="M343.799 529.333C343.799 529.333 339.071 545.836 326.994 543.594C326.367 546.261 325.924 548.968 325.67 551.697C325.67 551.697 320.699 531.034 319.916 557.531C319.916 557.531 312.729 566.552 307.65 549.968C305.677 543.54 303.894 528.361 312.297 525.498C317.376 523.769 322.888 526.983 327.589 528.604C329.937 529.43 332.378 529.966 334.856 530.197C335.91 530.278 343.502 530.71 343.799 529.333Z" fill="#71207D"/>
<path d="M311.216 558.368C311.216 558.368 311.216 563.284 320.807 563.446C320.807 563.446 326.427 564.364 327.535 573.034C327.535 573.034 323.59 568.226 320.888 568.604C311.324 569.928 299.706 558.8 311.216 558.368Z" fill="#DBDBDB"/>
</g>
</g>
<defs>
<linearGradient id="paint0_linear_10_10" x1="960.25" y1="-164.163" x2="960.25" y2="1133.05" gradientUnits="userSpaceOnUse">
<stop stop-color="#13183E"/>
<stop offset="0.479167" stop-color="#484483"/>
<stop offset="1" stop-color="#5771F4"/>
<stop offset="1" stop-color="#52599D"/>
</linearGradient>
<linearGradient id="paint1_linear_10_10" x1="959.999" y1="-0.00964782" x2="959.999" y2="1080" gradientUnits="userSpaceOnUse">
<stop stop-color="#162887"/>
<stop offset="1" stop-color="#CDD4F7" stop-opacity="0"/>
</linearGradient>
<linearGradient id="paint2_linear_10_10" x1="474.294" y1="638.478" x2="131.871" y2="440.733" gradientUnits="userSpaceOnUse">
<stop stop-color="white" stop-opacity="0"/>
<stop offset="0.18" stop-color="white" stop-opacity="0.01"/>
<stop offset="0.34" stop-color="white" stop-opacity="0.06"/>
<stop offset="0.5" stop-color="white" stop-opacity="0.13"/>
<stop offset="0.65" stop-color="white" stop-opacity="0.23"/>
<stop offset="0.79" stop-color="white" stop-opacity="0.36"/>
<stop offset="0.93" stop-color="white" stop-opacity="0.51"/>
<stop offset="1" stop-color="white" stop-opacity="0.6"/>
</linearGradient>
<linearGradient id="paint3_linear_10_10" x1="667.875" y1="436.016" x2="466.625" y2="319.795" gradientUnits="userSpaceOnUse">
<stop stop-color="white" stop-opacity="0"/>
<stop offset="0.18" stop-color="white" stop-opacity="0.01"/>
<stop offset="0.34" stop-color="white" stop-opacity="0.06"/>
<stop offset="0.5" stop-color="white" stop-opacity="0.13"/>
<stop offset="0.65" stop-color="white" stop-opacity="0.23"/>
<stop offset="0.79" stop-color="white" stop-opacity="0.36"/>
<stop offset="0.93" stop-color="white" stop-opacity="0.51"/>
<stop offset="1" stop-color="white" stop-opacity="0.6"/>
</linearGradient>
<linearGradient id="paint4_linear_10_10" x1="346.69" y1="394.664" x2="247.632" y2="337.459" gradientUnits="userSpaceOnUse">
<stop stop-color="white" stop-opacity="0"/>
<stop offset="0.18" stop-color="white" stop-opacity="0.01"/>
<stop offset="0.34" stop-color="white" stop-opacity="0.06"/>
<stop offset="0.5" stop-color="white" stop-opacity="0.13"/>
<stop offset="0.65" stop-color="white" stop-opacity="0.23"/>
<stop offset="0.79" stop-color="white" stop-opacity="0.36"/>
<stop offset="0.93" stop-color="white" stop-opacity="0.51"/>
<stop offset="1" stop-color="white" stop-opacity="0.6"/>
</linearGradient>
<linearGradient id="paint5_linear_10_10" x1="186.665" y1="350.747" x2="116.808" y2="310.404" gradientUnits="userSpaceOnUse">
<stop stop-color="white" stop-opacity="0"/>
<stop offset="0.18" stop-color="white" stop-opacity="0.01"/>
<stop offset="0.34" stop-color="white" stop-opacity="0.06"/>
<stop offset="0.5" stop-color="white" stop-opacity="0.13"/>
<stop offset="0.65" stop-color="white" stop-opacity="0.23"/>
<stop offset="0.79" stop-color="white" stop-opacity="0.36"/>
<stop offset="0.93" stop-color="white" stop-opacity="0.51"/>
<stop offset="1" stop-color="white" stop-opacity="0.6"/>
</linearGradient>
<linearGradient id="paint6_linear_10_10" x1="1022.02" y1="1335.26" x2="644.325" y2="680.864" gradientUnits="userSpaceOnUse">
<stop stop-opacity="0"/>
<stop offset="0.86" stop-opacity="0.64"/>
<stop offset="1"/>
</linearGradient>
<linearGradient id="paint7_linear_10_10" x1="866.967" y1="528.901" x2="736.451" y2="302.744" gradientUnits="userSpaceOnUse">
<stop stop-color="white" stop-opacity="0"/>
<stop offset="0.21" stop-color="white" stop-opacity="0.01"/>
<stop offset="0.38" stop-color="white" stop-opacity="0.05"/>
<stop offset="0.52" stop-color="white" stop-opacity="0.11"/>
<stop offset="0.65" stop-color="white" stop-opacity="0.2"/>
<stop offset="0.78" stop-color="white" stop-opacity="0.32"/>
<stop offset="0.9" stop-color="white" stop-opacity="0.46"/>
<stop offset="1" stop-color="white" stop-opacity="0.6"/>
</linearGradient>
<linearGradient id="paint8_linear_10_10" x1="699.675" y1="879.617" x2="653.631" y2="799.846" gradientUnits="userSpaceOnUse">
<stop stop-opacity="0"/>
<stop offset="0.86" stop-opacity="0.64"/>
<stop offset="1"/>
</linearGradient>
<linearGradient id="paint9_linear_10_10" x1="553.483" y1="927.235" x2="514.649" y2="859.917" gradientUnits="userSpaceOnUse">
<stop stop-opacity="0"/>
<stop offset="0.86" stop-opacity="0.64"/>
<stop offset="1"/>
</linearGradient>
<linearGradient id="paint10_linear_10_10" x1="435.848" y1="1124.86" x2="332.526" y2="945.871" gradientUnits="userSpaceOnUse">
<stop stop-opacity="0"/>
<stop offset="0.86" stop-opacity="0.64"/>
<stop offset="1"/>
</linearGradient>
<linearGradient id="paint11_linear_10_10" x1="698.594" y1="1092.67" x2="628.758" y2="971.674" gradientUnits="userSpaceOnUse">
<stop stop-opacity="0"/>
<stop offset="0.86" stop-opacity="0.64"/>
<stop offset="1"/>
</linearGradient>
<linearGradient id="paint12_linear_10_10" x1="789.075" y1="975.905" x2="732.04" y2="877.09" gradientUnits="userSpaceOnUse">
<stop stop-opacity="0"/>
<stop offset="0.86" stop-opacity="0.64"/>
<stop offset="1"/>
</linearGradient>
<linearGradient id="paint13_linear_10_10" x1="905.035" y1="884.587" x2="864.5" y2="814.325" gradientUnits="userSpaceOnUse">
<stop stop-opacity="0"/>
<stop offset="0.86" stop-opacity="0.64"/>
<stop offset="1"/>
</linearGradient>
<linearGradient id="paint14_linear_10_10" x1="878.855" y1="1046.91" x2="844.72" y2="987.753" gradientUnits="userSpaceOnUse">
<stop stop-opacity="0"/>
<stop offset="0.86" stop-opacity="0.64"/>
<stop offset="1"/>
</linearGradient>
<clipPath id="clip0_10_10">
<rect width="1920" height="1080" fill="white"/>
</clipPath>
<clipPath id="clip1_10_10">
<rect width="1386" height="867" fill="white" transform="translate(80 212)"/>
</clipPath>
</defs>
</svg>
