<svg width="1386" height="867" viewBox="0 0 1386 867" fill="none" xmlns="http://www.w3.org/2000/svg">
<g clip-path="url(#clip0_85_1091)">
<g opacity="0.6">
<path d="M419.015 52.2091C425.661 48.4008 431.065 51.4798 431.092 59.0965L431.929 355.578C431.702 359.735 430.498 363.78 428.414 367.384C426.329 370.988 423.424 374.05 419.934 376.321L27.0174 603.065C20.3981 606.9 14.9946 603.821 14.9676 596.204L14.1841 299.804C14.4014 295.651 15.5992 291.609 17.6795 288.009C19.7598 284.408 22.6635 281.351 26.1529 279.088L419.015 52.2091Z" fill="url(#paint0_linear_85_1091)"/>
</g>
<g opacity="0.3">
<path d="M602.491 4.07842C606.409 1.80964 609.57 3.61926 609.597 8.10281L610.083 182.367C609.933 184.803 609.209 187.17 607.969 189.273C606.729 191.376 605.01 193.156 602.95 194.467L372.059 327.731C368.168 329.973 365.007 328.164 364.98 323.707L364.494 149.443C364.624 147.003 365.327 144.628 366.548 142.512C367.769 140.395 369.471 138.596 371.518 137.261L602.491 4.07842Z" fill="url(#paint1_linear_85_1091)"/>
</g>
<g opacity="0.3">
<path d="M273.85 74.3837C275.768 73.2764 277.335 74.1677 277.335 76.3824L277.578 162.056C277.519 163.258 277.174 164.429 276.573 165.471C275.971 166.514 275.131 167.398 274.12 168.052L160.457 233.766C158.539 234.873 156.972 233.982 156.972 231.767L156.702 145.986C156.763 144.784 157.109 143.614 157.71 142.572C158.311 141.53 159.151 140.645 160.16 139.989L273.85 74.3837Z" fill="url(#paint2_linear_85_1091)"/>
</g>
<g opacity="0.3">
<path d="M111.717 62.3916C113.068 61.6083 114.176 62.2296 114.176 63.7961L114.338 124.243C114.291 125.086 114.046 125.907 113.623 126.639C113.201 127.371 112.613 127.993 111.906 128.456L31.7454 174.777C30.3945 175.561 29.2868 174.94 29.2868 173.373L29.0977 112.872C29.1482 112.026 29.397 111.204 29.8241 110.472C30.2512 109.74 30.8446 109.119 31.5563 108.659L111.717 62.3916Z" fill="url(#paint3_linear_85_1091)"/>
</g>
<path d="M138.141 434.526L142.193 436.849L154.108 443.629L133.926 478.606L122.2 471.934L117.958 469.503L138.141 434.526Z" fill="#D3F2FF"/>
<path d="M98.6681 489.625L98.6951 497.053L98.7491 515.473L70.0835 532.003L70.0295 513.88L70.0024 506.155L98.6681 489.625Z" fill="#D3F2FF"/>
<path d="M146.219 407.841L151.623 404.762C149.779 415.797 146.642 426.576 142.275 436.876L138.222 434.553L118.013 469.666L122.282 472.096C115.471 481.372 107.581 489.804 98.7764 497.215V489.787L70.0027 506.155V513.88C62.3082 516.802 53.9992 517.731 45.849 516.581L50.7662 508.019L30.449 496.432L25.5048 505.021C20.3223 498.621 16.8792 490.992 15.5083 482.873L22.5599 478.795V445.87L15.8055 449.76C17.8128 438.261 21.2151 427.051 25.9371 416.376L30.5571 419.077L50.7392 384.127L46.4704 381.696C53.3155 372.683 61.2159 364.522 70.0027 357.388V364.005L98.6413 347.448V341.344C105.999 338.813 113.867 338.126 121.552 339.345L117.932 345.72L138.249 357.361L141.788 351.121C146.595 357.172 149.859 364.3 151.298 371.892L146.111 374.89L146.219 407.841ZM83.7546 495C116.176 476.364 142.113 431.204 142.004 394.12C141.896 357.037 115.662 342.046 83.3764 360.683C51.0904 379.319 24.9374 424.479 25.0455 461.617C25.1536 498.755 51.3336 513.637 83.7546 495Z" fill="#D3F2FF"/>
<path d="M98.6139 321.519L98.6679 341.263V347.367L70.0293 363.924L70.0023 357.307L69.9482 338.049L98.6139 321.519Z" fill="#D3F2FF"/>
<path d="M168.643 361.898L168.724 394.823L151.541 404.735L146.219 407.814L146.138 374.89L151.325 371.892L168.643 361.898Z" fill="#D3F2FF"/>
<path d="M133.764 318.17L154.081 329.757L141.788 351.067L138.249 357.226L117.932 345.585L121.579 339.264L133.764 318.17Z" fill="#D3F2FF"/>
<path d="M30.4757 496.324L50.7929 507.911L45.8757 516.473L34.9336 535.406L14.5894 523.792L25.5315 504.913L30.4757 496.324Z" fill="#D3F2FF"/>
<path d="M22.5056 445.762L22.5867 478.687L15.5351 482.765L0.10807 491.678L0 458.754L15.7512 449.652L22.5056 445.762Z" fill="#D3F2FF"/>
<path d="M34.7716 374.971L46.4702 381.615L50.739 384.046L30.5569 418.996L25.9369 416.376L14.5625 409.948L34.7716 374.971Z" fill="#D3F2FF"/>
<path d="M83.079 381.399C105.504 368.462 123.605 378.86 123.794 404.627C123.984 430.394 105.747 461.752 83.2682 474.689C60.7896 487.627 42.7418 477.228 42.5527 451.488C42.3636 425.748 60.6545 394.336 83.079 381.399ZM83.2682 452.623C95.0748 445.789 104.666 429.26 104.612 415.674C104.558 402.088 94.9397 396.767 83.1331 403.493C71.3264 410.218 61.7892 426.829 61.8162 440.387C61.8432 453.946 71.4615 459.294 83.2682 452.623Z" fill="#D3F2FF"/>
<path d="M686.03 357.901L688.38 359.251L695.351 363.222L683.571 383.614L676.736 379.724L674.25 378.293L686.03 357.901Z" fill="#D3F2FF"/>
<path d="M663.01 390.042V394.363L663.037 405.113L646.341 414.756L646.314 404.168L646.287 399.684L663.01 390.042Z" fill="#D3F2FF"/>
<path d="M690.73 342.316L693.837 340.534C692.789 346.966 690.975 353.25 688.434 359.251L686.083 357.901L674.304 378.293L676.789 379.697C672.801 385.113 668.175 390.028 663.01 394.336V390.015L646.286 399.738V404.222C641.79 405.916 636.937 406.437 632.183 405.734L635.074 400.738L623.213 393.985L620.323 398.982C617.298 395.253 615.287 390.806 614.487 386.072L618.702 383.533V364.329L614.757 366.625C615.941 359.934 617.937 353.413 620.701 347.205L623.403 348.745L635.155 328.353L632.67 326.921C636.676 321.683 641.282 316.933 646.395 312.768V316.604L663.091 306.961V303.396C667.378 301.922 671.961 301.523 676.438 302.235L674.304 305.935L686.164 312.714L688.245 309.122C690.993 312.672 692.846 316.832 693.648 321.249L690.622 323.005L690.73 342.316ZM654.284 393.148C673.196 382.344 688.326 355.956 688.272 334.349C688.218 312.741 672.899 303.963 654.068 314.821C635.236 325.679 620.025 352.04 620.079 373.701C620.133 395.363 635.479 404.033 654.284 393.148Z" fill="#D3F2FF"/>
<path d="M662.957 291.998L663.011 303.504V307.069L646.314 316.712L646.287 312.876L646.26 301.64L662.957 291.998Z" fill="#D3F2FF"/>
<path d="M703.807 315.55L703.861 334.754L693.838 340.534L690.731 342.316L690.677 323.113L693.703 321.357L703.807 315.55Z" fill="#D3F2FF"/>
<path d="M683.463 290.053L695.324 296.806L688.164 309.23L686.084 312.822L674.25 306.043L676.357 302.343L683.463 290.053Z" fill="#D3F2FF"/>
<path d="M623.241 393.931L635.101 400.684L632.21 405.68L625.834 416.727L613.974 409.948L620.35 398.955L623.241 393.931Z" fill="#D3F2FF"/>
<path d="M618.593 364.437L618.647 383.641L614.514 386.018L605.517 391.23L605.463 372.027L614.649 366.733L618.593 364.437Z" fill="#D3F2FF"/>
<path d="M625.726 323.167L632.562 327.029L635.074 328.461L623.295 348.853L620.593 347.313L613.974 343.559L625.726 323.167Z" fill="#D3F2FF"/>
<path d="M653.825 326.813C666.901 319.278 677.546 325.328 677.573 340.318C677.6 355.308 667.063 373.647 653.987 381.183C640.91 388.719 630.265 382.668 630.238 367.678C630.211 352.688 640.829 334.484 653.825 326.813ZM653.96 368.326C657.595 365.966 660.617 362.776 662.778 359.02C664.939 355.263 666.176 351.047 666.388 346.719C666.388 338.805 660.768 335.645 653.879 339.616C650.24 341.973 647.216 345.162 645.055 348.919C642.894 352.676 641.658 356.894 641.451 361.223C641.451 369.137 647.07 372.351 653.96 368.354" fill="#D3F2FF"/>
<path opacity="0.3" d="M120.147 725.228L355.119 867H1386L625.213 441.873L120.147 725.228Z" fill="url(#paint4_linear_85_1091)"/>
<g opacity="0.5">
<path d="M771.945 140.124C773.404 140.989 774.647 144.905 774.647 148.903L774.161 319.494C774.161 323.491 772.972 326.084 771.459 325.247L671.494 267.528C670.062 266.69 668.792 262.747 668.792 258.75L669.279 88.1585C669.279 84.1341 670.468 81.5682 671.981 82.4055L771.945 140.124Z" fill="url(#paint5_linear_85_1091)"/>
</g>
<path d="M559.939 3.1331C559.64 2.9945 559.309 2.93891 558.981 2.97218C558.653 3.00544 558.34 3.12633 558.074 3.32216L498.068 37.9481C497.288 38.4398 496.636 39.1103 496.166 39.9041C495.696 40.6978 495.422 41.5921 495.367 42.5127L495.502 87.2402C495.468 87.568 495.522 87.899 495.66 88.1984C495.798 88.4977 496.014 88.7545 496.285 88.9418L500.446 91.3726C500.182 91.1802 499.973 90.9217 499.84 90.6231C499.707 90.3244 499.655 89.9961 499.689 89.6711V44.9436C499.745 44.0229 500.019 43.1287 500.489 42.3349C500.958 41.5411 501.611 40.8707 502.391 40.379L562.262 5.753C562.527 5.55717 562.84 5.43629 563.168 5.40302C563.496 5.36975 563.827 5.42534 564.126 5.56394L559.939 3.1331Z" fill="#E3E3E3"/>
<path d="M562.262 5.753C563.721 4.91571 564.964 5.753 564.964 7.29253V51.993C564.909 52.9137 564.635 53.8079 564.165 54.6017C563.695 55.3954 563.043 56.0659 562.262 56.5576L502.526 91.1836C501.068 92.0208 499.825 91.3456 499.825 89.671V44.9436C499.88 44.0229 500.154 43.1287 500.624 42.3349C501.094 41.5411 501.746 40.8706 502.526 40.379L562.262 5.753Z" fill="white"/>
<path d="M563.343 5.67198C563.492 5.57549 563.665 5.52414 563.843 5.52414C564.02 5.52414 564.194 5.57549 564.342 5.67198C564.802 6.0231 564.721 6.96843 564.153 7.7517L539.405 44.1063L564.288 51.3178C564.829 51.4798 564.937 52.3171 564.477 53.1814C564.255 53.637 563.908 54.0208 563.478 54.2888C563.365 54.3668 563.236 54.4193 563.101 54.4426C562.966 54.466 562.827 54.4596 562.694 54.4238L537.352 46.9423L532.894 53.5325C532.674 53.8505 532.388 54.1177 532.056 54.3158C531.815 54.4673 531.527 54.525 531.246 54.4779L526.464 53.0464L501.256 90.0492C501.05 90.3689 500.773 90.6369 500.446 90.8325C500.302 90.93 500.133 90.9821 499.96 90.9821C499.786 90.9821 499.617 90.93 499.473 90.8325C499.014 90.5083 499.095 89.563 499.635 88.7527L524.41 52.3981L499.527 45.0246C498.987 44.8625 498.879 44.0523 499.311 43.188C499.542 42.7377 499.886 42.3559 500.311 42.0806C500.428 42.0003 500.56 41.9446 500.7 41.9168C500.839 41.8889 500.982 41.8895 501.121 41.9185L532.029 51.3178L562.532 6.45525C562.753 6.14733 563.027 5.88195 563.343 5.67198V5.67198Z" fill="#E3E3E3"/>
<path d="M142.193 184.474C145.408 182.61 148.056 184.096 148.056 187.796V190.767L105.368 215.346C103.676 216.45 102.269 217.938 101.26 219.689C100.25 221.439 99.6679 223.403 99.5596 225.42V231.362V215.751C99.6679 213.733 100.25 211.77 101.26 210.019C102.269 208.269 103.676 206.781 105.368 205.676L142.193 184.474Z" fill="#FFC300"/>
<path d="M196.985 162.542C200.2 160.679 202.821 162.164 202.821 165.864L203.01 229.877C202.905 231.892 202.326 233.854 201.322 235.604C200.318 237.354 198.915 238.843 197.228 239.951L105.693 292.754C102.478 294.591 99.8569 293.105 99.8569 289.405L99.6948 231.362V225.42C99.788 223.415 100.35 221.459 101.335 219.709C102.32 217.96 103.702 216.465 105.369 215.346L147.948 190.767L196.985 162.542Z" fill="#FFD13D"/>
<g opacity="0.76">
<path d="M155.865 170.159C157.107 169.43 158.134 170.159 158.134 171.455C158.092 172.234 157.867 172.992 157.477 173.668C157.088 174.343 156.544 174.918 155.892 175.345L100.289 207.459C99.0467 208.188 98.02 207.459 98.02 206.162C98.0623 205.384 98.2874 204.626 98.6769 203.95C99.0665 203.274 99.6097 202.7 100.262 202.273L155.865 170.159Z" fill="white"/>
<path d="M142.464 85.3496C143.706 84.6473 144.706 85.2145 144.706 86.646C144.666 87.4252 144.442 88.1839 144.052 88.8599C143.662 89.5359 143.118 90.11 142.464 90.5354L124.875 100.691C123.632 101.42 122.633 100.691 122.633 99.3944C122.675 98.6157 122.9 97.8579 123.29 97.1822C123.679 96.5065 124.222 95.932 124.875 95.5051L142.464 85.3496Z" fill="white"/>
<path d="M186.205 73.3304C187.448 72.6011 188.474 73.3304 188.474 74.5998C188.434 75.3791 188.21 76.1377 187.82 76.8137C187.431 77.4897 186.886 78.0638 186.232 78.4892L168.643 88.6447C167.401 89.3739 166.401 88.6447 166.374 87.3482C166.416 86.5732 166.641 85.8191 167.031 85.1478C167.421 84.4765 167.964 83.907 168.616 83.4859L186.205 73.3304Z" fill="white"/>
<path d="M123.254 139.665C124.524 138.963 125.524 139.53 125.524 140.962C125.481 141.74 125.256 142.498 124.867 143.174C124.477 143.85 123.934 144.424 123.281 144.851L105.693 155.007C104.45 155.709 103.423 155.007 103.423 153.71C103.467 152.929 103.695 152.168 104.089 151.492C104.484 150.816 105.033 150.243 105.693 149.821L123.254 139.665Z" fill="#F03794"/>
<path d="M149.623 124.594C150.866 123.892 151.893 124.594 151.893 125.891C151.853 126.67 151.628 127.428 151.239 128.104C150.849 128.78 150.305 129.355 149.65 129.78L132.062 139.935C130.819 140.665 129.819 139.935 129.819 138.639C129.86 137.86 130.084 137.101 130.473 136.425C130.863 135.749 131.407 135.175 132.062 134.75L149.623 124.594Z" fill="white"/>
<path d="M140.627 162.596C141.869 161.894 142.896 162.461 142.896 163.893C142.854 164.671 142.629 165.429 142.239 166.105C141.85 166.781 141.306 167.355 140.654 167.782L102.505 189.795C101.262 190.497 100.262 189.795 100.235 188.498C100.283 187.718 100.513 186.959 100.907 186.284C101.301 185.608 101.848 185.034 102.505 184.609L140.627 162.596Z" fill="#F03794"/>
<path d="M203.74 62.3106C204.982 61.6083 206.009 62.1755 206.009 63.607C205.973 64.3909 205.751 65.1549 205.361 65.836C204.971 66.517 204.425 67.0954 203.767 67.5234L194.932 72.6281C193.689 73.3304 192.689 72.7632 192.689 71.3317C192.74 70.566 192.969 69.8227 193.358 69.1614C193.748 68.5001 194.287 67.9391 194.932 67.5234L203.74 62.3106Z" fill="white"/>
<path d="M112.015 101.609C113.258 100.907 114.257 101.609 114.284 102.906C114.244 103.685 114.02 104.444 113.63 105.12C113.241 105.796 112.696 106.37 112.042 106.795L85.8079 121.92C84.5651 122.649 83.5654 122.082 83.5654 120.651C83.599 119.87 83.8204 119.109 84.2107 118.432C84.6011 117.755 85.1489 117.182 85.8079 116.761L112.015 101.609Z" fill="#36C4FF"/>
<path d="M206.387 48.6168C207.63 47.8876 208.63 48.4548 208.657 49.8863C208.618 50.6689 208.391 51.4308 207.996 52.1077C207.601 52.7846 207.049 53.3566 206.387 53.7756L150.812 85.7277C149.569 86.4569 148.542 85.8897 148.542 84.4312C148.585 83.6562 148.81 82.9021 149.2 82.2308C149.589 81.5595 150.133 80.99 150.785 80.5689L206.387 48.6168Z" fill="#F03794"/>
<path d="M148.84 139.449C150.001 138.774 150.974 139.314 150.974 140.665V140.962C150.935 141.696 150.724 142.411 150.358 143.049C149.992 143.687 149.481 144.23 148.867 144.635L133.467 153.494C132.305 154.196 131.359 153.629 131.359 152.279V151.982C131.402 151.248 131.617 150.536 131.988 149.902C132.359 149.268 132.875 148.731 133.494 148.335L148.84 139.449Z" fill="white"/>
<path d="M121.795 155.979C122.957 155.304 123.929 155.979 123.929 157.194V157.492C123.89 158.226 123.679 158.941 123.313 159.579C122.947 160.217 122.436 160.76 121.822 161.165L98.7491 174.453C97.5874 175.129 96.6147 174.615 96.6147 173.265V172.86C96.6527 172.122 96.8661 171.404 97.2374 170.765C97.6086 170.126 98.1268 169.585 98.7491 169.187L121.795 155.979Z" fill="white"/>
<path d="M205.658 103.77C206.819 103.095 207.792 103.635 207.792 104.985V105.336C207.754 106.074 207.541 106.792 207.17 107.431C206.798 108.07 206.28 108.611 205.658 109.01L156.513 137.316C155.324 138.018 154.378 137.316 154.378 136.1V135.803C154.422 135.073 154.635 134.364 155.001 133.731C155.367 133.098 155.875 132.559 156.486 132.157L205.658 103.77Z" fill="white"/>
<path d="M157.053 90.3193C158.323 89.617 159.323 90.3193 159.323 91.6157C159.281 92.3944 159.056 93.1523 158.666 93.8279C158.276 94.5036 157.733 95.0781 157.08 95.5051L101.478 127.592C100.235 128.321 99.2358 127.592 99.2358 126.296C99.2781 125.517 99.5032 124.759 99.8927 124.084C100.282 123.408 100.825 122.833 101.478 122.406L157.053 90.3193Z" fill="white"/>
<path d="M185.016 153.17C186.259 152.468 187.286 153.17 187.286 154.466C187.245 155.246 187.021 156.004 186.632 156.68C186.242 157.356 185.697 157.93 185.043 158.356L167.509 168.511C166.266 169.214 165.239 168.511 165.239 167.215C165.289 166.435 165.52 165.677 165.914 165.002C166.308 164.327 166.854 163.753 167.509 163.326L185.016 153.17Z" fill="#36C4FF"/>
<path d="M202.632 142.177C203.875 141.475 204.901 142.177 204.901 143.474C204.856 144.255 204.627 145.014 204.232 145.69C203.838 146.366 203.29 146.939 202.632 147.363L193.824 152.468C192.581 153.17 191.555 152.468 191.555 151.171C191.597 150.393 191.822 149.635 192.212 148.959C192.601 148.283 193.144 147.709 193.797 147.282L202.632 142.177Z" fill="white"/>
<path d="M199.497 79.5966C200.632 78.9213 201.578 79.5966 201.578 80.785C201.542 81.506 201.334 82.2081 200.973 82.8328C200.611 83.4576 200.105 83.9871 199.497 84.3772L154.378 110.441C153.243 111.089 152.298 110.441 152.298 109.226C152.336 108.505 152.544 107.804 152.906 107.18C153.268 106.555 153.772 106.025 154.378 105.634L199.497 79.5966Z" fill="#36C4FF"/>
<path d="M144.463 111.17C145.706 110.441 146.706 111.008 146.733 112.44C146.685 113.224 146.455 113.987 146.061 114.666C145.667 115.346 145.12 115.925 144.463 116.356L88.8611 148.551C87.6453 149.254 86.6187 148.551 86.6187 147.255C86.6243 146.439 86.832 145.637 87.2233 144.92C87.6146 144.204 88.1773 143.596 88.8611 143.15L144.463 111.17Z" fill="white"/>
</g>
<g opacity="0.76">
<path d="M726.961 214.697C725.719 213.968 724.719 214.697 724.692 215.994C724.734 216.772 724.959 217.53 725.349 218.206C725.738 218.882 726.281 219.456 726.934 219.883L782.536 251.97C783.779 252.672 784.806 251.97 784.806 250.674C784.764 249.895 784.539 249.137 784.149 248.462C783.759 247.786 783.216 247.211 782.563 246.784L726.961 214.697Z" fill="white"/>
<path d="M740.281 129.861C739.038 129.159 738.039 129.861 738.039 131.157C738.079 131.937 738.303 132.695 738.693 133.371C739.082 134.047 739.627 134.621 740.281 135.047L757.869 145.202C759.112 145.904 760.112 145.337 760.112 143.906C760.074 143.126 759.851 142.367 759.461 141.69C759.071 141.014 758.525 140.44 757.869 140.016L740.281 129.861Z" fill="white"/>
<path d="M696.621 117.842C695.378 117.113 694.351 117.68 694.351 119.111C694.391 119.89 694.615 120.649 695.005 121.325C695.395 122.001 695.939 122.575 696.593 123.001L714.182 133.156C715.425 133.858 716.451 133.291 716.451 131.86C716.411 131.084 716.187 130.329 715.797 129.658C715.407 128.986 714.863 128.417 714.209 127.997L696.621 117.842Z" fill="white"/>
<path d="M759.571 184.177C758.328 183.447 757.302 184.177 757.302 185.473C757.344 186.252 757.569 187.01 757.959 187.685C758.348 188.361 758.891 188.936 759.544 189.363L777.133 199.518C778.376 200.22 779.402 199.518 779.402 198.222C779.363 197.439 779.137 196.677 778.742 196C778.347 195.323 777.795 194.751 777.133 194.332L759.571 184.177Z" fill="#F03794"/>
<path d="M733.202 169.106C731.959 168.403 730.933 169.106 730.933 170.402C730.975 171.181 731.2 171.939 731.59 172.614C731.979 173.29 732.522 173.864 733.175 174.291L750.763 184.447C752.006 185.149 753.006 184.447 753.033 183.15C752.991 182.372 752.766 181.614 752.376 180.938C751.986 180.263 751.443 179.688 750.791 179.261L733.202 169.106Z" fill="white"/>
<path d="M742.199 207.108C740.956 206.378 739.93 206.973 739.93 208.404C739.976 209.182 740.203 209.938 740.592 210.613C740.981 211.288 741.522 211.863 742.172 212.293L780.321 234.306C781.564 235.008 782.59 234.306 782.59 233.01C782.543 232.229 782.313 231.47 781.919 230.795C781.525 230.119 780.977 229.546 780.321 229.12L742.199 207.108Z" fill="#F03794"/>
<path d="M679.086 106.822C677.843 106.12 676.816 106.822 676.816 108.118C676.859 108.897 677.084 109.655 677.473 110.331C677.863 111.006 678.406 111.581 679.059 112.008L687.894 117.113C689.136 117.815 690.136 117.113 690.136 115.816C690.102 115.035 689.881 114.274 689.491 113.597C689.1 112.92 688.553 112.347 687.894 111.927L679.086 106.822Z" fill="white"/>
<path d="M770.811 146.121C769.568 145.418 768.568 145.986 768.568 147.417C768.615 148.187 768.842 148.936 769.232 149.602C769.621 150.269 770.162 150.834 770.811 151.252L797.018 166.378C798.261 167.107 799.26 166.513 799.287 165.108C799.228 164.334 798.992 163.584 798.599 162.915C798.206 162.246 797.665 161.675 797.018 161.246L770.811 146.121Z" fill="#36C4FF"/>
<path d="M676.438 92.9662C675.195 92.2639 674.196 92.8311 674.196 94.2626C674.229 95.0434 674.451 95.8045 674.841 96.4815C675.231 97.1586 675.779 97.7316 676.438 98.152L732.175 130.239C733.418 130.968 734.418 130.374 734.418 128.943C734.376 128.164 734.151 127.406 733.761 126.73C733.371 126.055 732.828 125.48 732.175 125.053L676.438 92.9662Z" fill="#F03794"/>
<path d="M733.985 183.961C732.824 183.285 731.851 183.961 731.851 185.176V185.473C731.894 186.203 732.107 186.913 732.473 187.546C732.839 188.178 733.348 188.717 733.958 189.119L749.358 198.006C750.52 198.681 751.466 198.006 751.493 196.79V196.493C751.451 195.756 751.235 195.04 750.864 194.402C750.494 193.763 749.978 193.221 749.358 192.82L733.985 183.961Z" fill="white"/>
<path d="M761.03 200.49C759.869 199.815 758.896 200.49 758.896 201.706V202.003C758.934 202.741 759.147 203.459 759.519 204.098C759.89 204.737 760.408 205.278 761.03 205.676L784.076 218.965C785.238 219.64 786.211 219.1 786.211 217.749V217.479C786.174 216.744 785.963 216.029 785.597 215.39C785.231 214.752 784.719 214.209 784.103 213.806L761.03 200.49Z" fill="white"/>
<path d="M677.168 148.281C676.006 147.606 675.06 148.281 675.033 149.497V149.794C675.071 150.532 675.285 151.25 675.656 151.889C676.027 152.528 676.545 153.069 677.168 153.467L726.312 181.827C727.501 182.502 728.447 181.962 728.447 180.612V180.314C728.403 179.581 728.191 178.868 727.825 178.23C727.459 177.593 726.951 177.049 726.339 176.641L677.168 148.281Z" fill="white"/>
<path d="M725.772 134.831C724.503 134.101 723.503 134.696 723.503 136.127C723.545 136.906 723.77 137.664 724.16 138.339C724.549 139.015 725.093 139.59 725.745 140.016L781.347 172.104C782.59 172.806 783.59 172.239 783.59 170.807C783.552 170.027 783.329 169.268 782.939 168.592C782.549 167.915 782.003 167.341 781.347 166.918L725.772 134.831Z" fill="white"/>
<path d="M697.809 197.681C696.566 196.979 695.567 197.681 695.54 198.978C695.582 199.757 695.807 200.514 696.196 201.19C696.586 201.866 697.129 202.44 697.782 202.867L715.37 213.023C716.613 213.725 717.64 213.023 717.64 211.726C717.598 210.948 717.373 210.19 716.983 209.514C716.593 208.838 716.05 208.264 715.397 207.837L697.809 197.681Z" fill="#36C4FF"/>
<path d="M680.275 186.689C679.032 185.986 678.005 186.554 678.005 187.985C678.053 188.766 678.283 189.524 678.677 190.2C679.071 190.875 679.618 191.449 680.275 191.874L689.083 196.979C690.325 197.681 691.352 196.979 691.352 195.683C691.312 194.904 691.088 194.145 690.698 193.469C690.308 192.793 689.764 192.219 689.11 191.793L680.275 186.689Z" fill="white"/>
<path d="M683.328 124.243C682.193 123.568 681.248 124.108 681.248 125.431C681.283 126.152 681.491 126.855 681.853 127.479C682.215 128.104 682.72 128.634 683.328 129.024L728.447 155.061C729.582 155.736 730.528 155.061 730.528 153.872C730.498 153.15 730.294 152.445 729.931 151.819C729.569 151.193 729.059 150.665 728.447 150.28L683.328 124.243Z" fill="#36C4FF"/>
<path d="M738.363 155.682C737.12 154.953 736.12 155.52 736.12 156.951C736.154 157.732 736.375 158.493 736.765 159.17C737.156 159.847 737.704 160.42 738.363 160.841L793.965 192.928C795.207 193.657 796.207 193.09 796.207 191.631C796.165 190.856 795.94 190.102 795.55 189.431C795.16 188.76 794.617 188.19 793.965 187.769L738.363 155.682Z" fill="white"/>
</g>
<g opacity="0.76">
<path d="M726.961 333.376C725.719 332.647 724.719 333.241 724.692 334.673C724.734 335.452 724.959 336.209 725.349 336.885C725.738 337.561 726.281 338.135 726.934 338.562L782.536 370.649C783.779 371.379 784.806 370.784 784.806 369.353C784.764 368.574 784.539 367.816 784.149 367.141C783.759 366.465 783.216 365.89 782.563 365.463L726.961 333.376Z" fill="white"/>
<path d="M740.281 248.486C739.038 247.784 738.039 248.486 738.039 249.782C738.079 250.562 738.303 251.32 738.693 251.996C739.082 252.672 739.627 253.246 740.281 253.672L757.869 263.827C759.112 264.557 760.112 263.827 760.112 262.531C760.074 261.751 759.851 260.992 759.461 260.315C759.071 259.639 758.525 259.065 757.869 258.642L740.281 248.486Z" fill="white"/>
<path d="M696.621 236.521C695.378 235.792 694.351 236.359 694.351 237.79C694.391 238.57 694.615 239.328 695.005 240.004C695.395 240.68 695.939 241.254 696.593 241.68L714.182 251.835C715.425 252.564 716.451 251.97 716.451 250.539C716.409 249.764 716.184 249.01 715.794 248.338C715.405 247.667 714.861 247.097 714.209 246.676L696.621 236.521Z" fill="white"/>
<path d="M759.571 302.856C758.328 302.154 757.302 302.856 757.302 304.152C757.344 304.931 757.569 305.689 757.959 306.364C758.348 307.04 758.891 307.615 759.544 308.042L777.133 318.197C778.376 318.899 779.402 318.197 779.402 316.901C779.359 316.119 779.131 315.359 778.736 314.683C778.342 314.006 777.792 313.434 777.133 313.011L759.571 302.856Z" fill="#F03794"/>
<path d="M733.202 287.785C731.959 287.082 730.933 287.785 730.933 289.081C730.973 289.86 731.197 290.619 731.587 291.295C731.976 291.971 732.521 292.545 733.175 292.97L750.763 303.126C752.006 303.828 753.006 303.126 753.033 301.829C752.991 301.051 752.766 300.293 752.376 299.617C751.986 298.942 751.443 298.367 750.791 297.94L733.202 287.785Z" fill="white"/>
<path d="M742.199 325.787C740.956 325.085 739.93 325.652 739.93 327.083C739.972 327.862 740.197 328.62 740.587 329.295C740.976 329.971 741.519 330.546 742.172 330.973L780.321 352.985C781.564 353.687 782.59 353.12 782.59 351.689C782.543 350.908 782.313 350.15 781.919 349.474C781.525 348.798 780.977 348.225 780.321 347.799L742.199 325.787Z" fill="#F03794"/>
<path d="M679.086 225.501C677.843 224.799 676.816 225.501 676.816 226.797C676.857 227.577 677.081 228.335 677.47 229.011C677.86 229.687 678.405 230.262 679.059 230.687L687.894 235.792C689.136 236.494 690.136 235.792 690.136 234.495C690.098 233.715 689.875 232.956 689.485 232.28C689.095 231.603 688.549 231.03 687.894 230.606L679.086 225.501Z" fill="white"/>
<path d="M770.811 264.692C769.568 263.989 768.568 264.557 768.568 265.988C768.606 266.768 768.83 267.527 769.22 268.204C769.61 268.88 770.155 269.454 770.811 269.877L797.018 285.003C798.261 285.732 799.26 285.165 799.287 283.733C799.243 282.955 799.017 282.198 798.628 281.523C798.238 280.847 797.696 280.272 797.045 279.844L770.811 264.692Z" fill="#36C4FF"/>
<path d="M676.438 211.672C675.195 210.943 674.196 211.51 674.196 212.942C674.229 213.722 674.451 214.484 674.841 215.161C675.231 215.838 675.779 216.411 676.438 216.831L732.175 248.918C733.418 249.647 734.418 249.08 734.418 247.622C734.376 246.847 734.151 246.093 733.761 245.421C733.371 244.75 732.828 244.18 732.175 243.759L676.438 211.672Z" fill="#F03794"/>
<path d="M733.985 302.64C732.824 301.965 731.851 302.64 731.851 303.855V304.152C731.89 304.887 732.101 305.602 732.467 306.24C732.833 306.878 733.344 307.421 733.958 307.826L749.358 316.685C750.52 317.36 751.466 316.685 751.493 315.469V315.172C751.453 314.438 751.238 313.725 750.867 313.091C750.496 312.457 749.979 311.92 749.358 311.526L733.985 302.64Z" fill="white"/>
<path d="M761.03 319.169C759.869 318.494 758.896 319.169 758.896 320.385V320.682C758.934 321.42 759.147 322.138 759.519 322.777C759.89 323.416 760.408 323.957 761.03 324.355L784.076 337.644C785.238 338.319 786.211 337.806 786.211 336.428V336.158C786.171 335.424 785.96 334.709 785.594 334.071C785.228 333.433 784.718 332.89 784.103 332.485L761.03 319.169Z" fill="white"/>
<path d="M677.168 266.96C676.006 266.285 675.06 266.96 675.033 268.176V268.473C675.071 269.211 675.285 269.929 675.656 270.568C676.027 271.207 676.545 271.748 677.168 272.146L726.312 300.506C727.501 301.208 728.447 300.506 728.447 299.291V298.993C728.403 298.264 728.19 297.554 727.825 296.921C727.459 296.288 726.95 295.749 726.339 295.347L677.168 266.96Z" fill="white"/>
<path d="M725.772 253.51C724.503 252.807 723.503 253.51 723.503 254.806C723.545 255.585 723.77 256.343 724.16 257.018C724.549 257.694 725.093 258.269 725.745 258.696L781.347 290.783C782.59 291.512 783.59 290.783 783.59 289.486C783.552 288.706 783.329 287.947 782.939 287.271C782.549 286.594 782.003 286.021 781.347 285.597L725.772 253.51Z" fill="white"/>
<path d="M697.809 316.36C696.566 315.658 695.567 316.36 695.54 317.657C695.58 318.436 695.804 319.195 696.194 319.871C696.583 320.547 697.128 321.121 697.782 321.546L715.37 331.702C716.613 332.404 717.64 331.702 717.64 330.405C717.598 329.627 717.373 328.869 716.983 328.193C716.593 327.517 716.05 326.943 715.397 326.516L697.809 316.36Z" fill="#36C4FF"/>
<path d="M680.275 305.368C679.032 304.665 678.005 305.368 678.005 306.664C678.051 307.445 678.28 308.205 678.674 308.88C679.069 309.556 679.617 310.13 680.275 310.553L689.083 315.658C690.325 316.36 691.352 315.658 691.352 314.362C691.31 313.583 691.085 312.825 690.695 312.15C690.306 311.474 689.762 310.899 689.11 310.472L680.275 305.368Z" fill="white"/>
<path d="M683.328 242.787C682.193 242.112 681.248 242.787 681.248 243.975C681.283 244.696 681.491 245.399 681.853 246.023C682.215 246.648 682.72 247.178 683.328 247.568L728.447 273.632C729.582 274.28 730.528 273.632 730.528 272.416C730.494 271.695 730.287 270.992 729.925 270.367C729.563 269.742 729.056 269.213 728.447 268.824L683.328 242.787Z" fill="#36C4FF"/>
<path d="M738.363 274.361C737.12 273.632 736.12 274.199 736.12 275.63C736.156 276.414 736.378 277.178 736.768 277.859C737.158 278.54 737.705 279.119 738.363 279.547L793.965 311.634C795.207 312.336 796.207 311.769 796.207 310.337C796.167 309.558 795.943 308.8 795.553 308.124C795.163 307.448 794.619 306.873 793.965 306.448L738.363 274.361Z" fill="white"/>
</g>
<path d="M380.137 74.7889C393.321 67.1722 404.047 73.3034 404.101 88.4286C404.155 103.554 393.483 122.055 380.299 129.645L350.579 146.742C337.395 154.358 326.669 148.227 326.615 133.075C326.561 117.923 337.233 99.4484 350.417 91.8318L380.137 74.7889Z" fill="#F03794"/>
<path d="M357.361 95.9642C357.501 95.8827 357.659 95.8363 357.821 95.8292L387.999 94.6948C388.837 94.6948 388.837 96.0182 387.999 96.9366L357.929 130.617C357.79 130.76 357.636 130.887 357.469 130.995C356.902 131.319 356.389 130.995 356.389 130.374V97.8279C356.395 97.4631 356.486 97.1047 356.655 96.7813C356.824 96.4578 357.066 96.1781 357.361 95.9642V95.9642Z" fill="white"/>
<path opacity="0.3" d="M545.079 604.334L625.213 664.403L643.018 642.147L559.669 605.306L545.079 604.334Z" fill="url(#paint6_linear_85_1091)"/>
<path d="M282.901 187.58C282.901 187.58 278.092 191.658 279.199 217.614C279.199 217.614 279.443 236.17 279.199 245.812L307.136 239.384L303.434 188.201L282.901 187.58Z" fill="#0072D6"/>
<path d="M326.291 246.028L338.8 224.421C338.8 224.421 341.286 220.477 344.744 224.934C344.744 224.934 333.748 266.096 326.939 262.018C321.473 256.326 316.442 250.232 311.891 243.786C314.106 240.113 313.863 237.817 315.538 233.82C318.24 237.223 323.157 240.086 326.291 246.028Z" fill="#FABCAF"/>
<path d="M299.192 220.828C299.192 220.828 306.163 216.966 317.537 231.983C315.924 235.997 314.037 239.895 311.891 243.651C308.508 238.728 305.715 233.425 303.569 227.851L299.192 220.828Z" fill="#FF0F88"/>
<path d="M302.407 221.315C301.948 220.585 291.438 215.913 287.061 218.614C283.064 221.06 279.427 224.051 276.254 227.5C276.254 231.983 282.09 255.698 280.847 263.098C279.361 264.584 294.167 278.412 310.567 262.747C310.567 262.747 310.08 258.723 308.729 250.998C308.729 250.998 317.861 244.813 310.945 233.442C309.459 231.227 304.137 224.178 302.407 221.315Z" fill="#FF3A9D"/>
<path d="M308.297 201.949C308.297 193.144 302.596 185.986 295.545 185.986C288.493 185.986 282.792 193.144 282.792 201.949C282.871 205.245 283.802 208.464 285.494 211.294L286.278 218.317C293.735 235.657 298.219 224.34 298.219 224.34V219.964C304.866 219.586 308.297 210.673 308.297 201.949Z" fill="#FABCAF"/>
<path d="M287.899 210.052C285.197 202.975 286.494 199.491 285.197 199.248C280.929 198.519 284.765 208.512 285.873 211.24C281.685 213.941 281.631 202.381 281.199 198.195C280.767 194.008 280.685 189.363 283.901 186.392C286.043 184.753 288.548 183.653 291.204 183.183C293.86 182.713 296.59 182.887 299.165 183.691C301.863 184.747 304.228 186.507 306.015 188.787C307.801 191.067 308.944 193.784 309.324 196.655C309.486 204.515 288.71 195.251 287.899 210.052Z" fill="#0072D6"/>
<path d="M631.751 65.0925C630.257 64.4014 628.605 64.1221 626.966 64.2835C625.327 64.445 623.761 65.0413 622.43 66.0109L124.281 353.525C120.472 355.999 117.303 359.34 115.035 363.274C112.767 367.209 111.463 371.624 111.231 376.159L112.231 730.225C112.072 731.85 112.354 733.488 113.048 734.967C113.742 736.445 114.823 737.709 116.176 738.625L120.363 741.055C119.03 740.127 117.971 738.857 117.297 737.38C116.622 735.902 116.356 734.271 116.527 732.656L115.527 378.59C115.757 374.058 117.059 369.645 119.328 365.715C121.597 361.785 124.767 358.449 128.577 355.983L626.591 68.4417C627.927 67.4724 629.498 66.8765 631.14 66.7151C632.783 66.5537 634.44 66.8327 635.939 67.5234L631.751 65.0925Z" fill="#F03794"/>
<path d="M626.591 68.4417C633.832 64.2552 639.722 67.6044 639.749 75.9233L640.748 429.989C640.512 434.523 639.207 438.937 636.939 442.87C634.671 446.804 631.505 450.146 627.699 452.623L129.522 740.056C122.282 744.243 116.419 740.866 116.392 732.575L115.392 378.509C115.621 373.977 116.924 369.564 119.193 365.634C121.462 361.704 124.631 358.368 128.442 355.902L626.591 68.4417Z" fill="white"/>
<path d="M606.436 102.825C612.758 99.1783 617.892 102.095 617.892 109.361L618.702 417.781C618.494 421.734 617.353 425.581 615.371 429.008C613.389 432.435 610.624 435.344 607.301 437.497L173.426 687.955C167.131 691.601 161.998 688.657 161.998 681.419L161.106 372.999C161.309 369.052 162.445 365.209 164.423 361.786C166.4 358.363 169.162 355.458 172.48 353.309L606.436 102.825Z" fill="#AFD4F7"/>
<path d="M138.411 536.298C144.625 532.705 149.65 535.595 149.677 542.699C149.477 546.585 148.36 550.368 146.415 553.739C144.471 557.11 141.756 559.972 138.492 562.091C132.305 565.657 127.253 562.794 127.226 555.663C127.427 551.782 128.546 548.003 130.49 544.637C132.435 541.271 135.149 538.413 138.411 536.298V536.298Z" fill="#999999"/>
<path d="M138.438 539.674C143.004 536.973 146.732 539.134 146.732 544.4C146.585 547.267 145.761 550.058 144.329 552.546C142.897 555.034 140.897 557.148 138.492 558.715C133.899 561.416 130.17 559.228 130.17 553.962C130.321 551.096 131.148 548.307 132.585 545.824C134.023 543.34 136.028 541.232 138.438 539.674V539.674Z" fill="white"/>
<path d="M628.158 269.904C629.752 268.986 631.076 269.742 631.076 271.579C631.021 272.581 630.731 273.555 630.229 274.423C629.726 275.292 629.026 276.029 628.185 276.576C626.591 277.521 625.267 276.765 625.267 274.928C625.326 273.924 625.618 272.947 626.12 272.075C626.621 271.203 627.319 270.46 628.158 269.904V269.904Z" fill="#949494"/>
<g style="mix-blend-mode:multiply" opacity="0.5">
<path d="M574.555 172.914L575.284 431.474L456.245 500.186L455.516 241.626L574.555 172.914Z" fill="#4F77FF"/>
</g>
<path d="M581.85 165.486L582.579 417.024L466.755 483.872L466.053 232.334L581.85 165.486Z" fill="#A0E3FF"/>
<path d="M581.85 165.459L581.877 181.152L465.999 248.054L465.972 232.334L581.85 165.459Z" fill="#47C9FF"/>
<path d="M568.449 250.674L568.503 270.012L530.598 291.89L530.543 272.551L568.449 250.674Z" fill="#00B4FF"/>
<path d="M568.179 203.38L568.233 216.669L481.885 266.501L481.858 253.186L568.179 203.38Z" fill="#00B4FF"/>
<path d="M568.179 222.53L568.233 243.489L481.912 293.322L481.831 272.362L568.179 222.53Z" fill="#00B4FF"/>
<path d="M568.422 332.917L568.53 371.216L530.625 393.094L530.517 354.795L568.422 332.917Z" fill="#00B4FF"/>
<path d="M568.449 277.359L568.503 296.725L530.598 318.602L530.543 299.237L568.449 277.359Z" fill="#00B4FF"/>
<path d="M568.449 379.292L568.53 407.895L530.625 429.773L530.543 401.17L568.449 379.292Z" fill="#00B4FF"/>
<path d="M568.449 304.071L568.503 323.41L530.598 345.287L530.543 325.949L568.449 304.071Z" fill="#00B4FF"/>
<path d="M520.547 277.845L521.006 435.094L482.047 457.565L481.615 300.317L520.547 277.845Z" fill="#00B4FF"/>
<g style="mix-blend-mode:multiply">
<path d="M563.613 180.233C565.693 179.018 567.368 179.99 567.368 182.367C567.315 183.675 566.945 184.95 566.291 186.083C565.637 187.217 564.718 188.175 563.613 188.876C561.533 190.092 559.858 189.119 559.831 186.716C559.907 185.414 560.289 184.149 560.946 183.022C561.603 181.896 562.517 180.94 563.613 180.233Z" fill="#00B4FF"/>
</g>
<g style="mix-blend-mode:multiply">
<path d="M551.725 186.689C553.806 185.5 555.508 186.446 555.508 188.822C555.445 190.121 555.072 191.385 554.418 192.508C553.764 193.632 552.85 194.582 551.752 195.278C549.672 196.466 547.97 195.521 547.97 193.144C548.032 191.846 548.406 190.581 549.059 189.458C549.713 188.334 550.627 187.385 551.725 186.689V186.689Z" fill="#00B4FF"/>
</g>
<g style="mix-blend-mode:multiply">
<path d="M575.069 174.237C577.176 172.995 578.878 173.994 578.878 176.452C578.82 177.791 578.448 179.098 577.79 180.266C577.133 181.435 576.21 182.432 575.096 183.177C573.015 184.42 571.286 183.42 571.286 180.936C571.357 179.603 571.735 178.305 572.391 177.143C573.047 175.981 573.964 174.986 575.069 174.237V174.237Z" fill="#00B4FF"/>
</g>
<g style="mix-blend-mode:multiply" opacity="0.5">
<path d="M232.27 303.234L435.198 232.118L415.178 362.519L212.223 433.662L232.27 303.234Z" fill="#4F77FF"/>
</g>
<path d="M239.619 292.214L442.574 221.099L422.527 351.554L219.599 422.669L239.619 292.214Z" fill="#00B4FF"/>
<path d="M246.346 323.572L275.687 313.281L262.503 399.225L233.162 409.516L246.346 323.572Z" fill="#7AD8FF"/>
<path d="M281.388 311.58L426.796 260.613L425.094 271.714L279.686 322.654L281.388 311.58Z" fill="#7AD8FF"/>
<path d="M279.632 326.678L425.148 275.657L423.446 286.731L277.93 337.725L279.632 326.678Z" fill="#A0E3FF"/>
<path d="M277.794 342.722L341.502 320.385L333.288 373.944L269.581 396.281L277.794 342.722Z" fill="#A0E3FF"/>
<path d="M347.581 318.872L422.825 292.511L418.475 320.979L343.204 347.34L347.581 318.872Z" fill="#7AD8FF"/>
<path d="M342.988 352.364L418.232 325.976L415.287 345.179L340.043 371.568L342.988 352.364Z" fill="#A0E3FF"/>
<path d="M239.754 291.944L442.683 220.828L438.954 245.11L236.025 316.225L239.754 291.944Z" fill="#80DAFF"/>
<path d="M429.579 231.794C432.443 230.066 434.793 231.011 434.793 233.928C434.633 235.628 434.078 237.268 433.172 238.717C432.267 240.165 431.037 241.383 429.579 242.274C426.661 244.029 424.311 243.084 424.311 240.194C424.484 238.483 425.049 236.835 425.963 235.379C426.876 233.922 428.114 232.695 429.579 231.794V231.794Z" fill="#00B4FF"/>
<path d="M414.8 236.413C417.718 234.738 420.042 235.738 420.069 238.601C419.911 240.298 419.355 241.934 418.444 243.375C417.533 244.817 416.293 246.022 414.827 246.892C411.963 248.54 409.613 247.568 409.586 244.651C409.748 242.965 410.305 241.341 411.211 239.91C412.117 238.479 413.346 237.281 414.8 236.413V236.413Z" fill="#00B4FF"/>
<path d="M400.13 240.842C403.021 239.195 405.371 240.167 405.371 243.03C405.189 244.692 404.622 246.289 403.718 247.695C402.813 249.101 401.594 250.278 400.157 251.133C397.293 252.781 394.943 251.808 394.916 248.918C395.102 247.261 395.67 245.67 396.575 244.269C397.479 242.868 398.696 241.695 400.13 240.842V240.842Z" fill="#00B4FF"/>
<g style="mix-blend-mode:multiply" opacity="0.5">
<path d="M430.605 373.701L431.038 529.41L289.601 612.14L289.142 456.431L430.605 373.701Z" fill="#4F77FF"/>
</g>
<path d="M437.765 360.413L438.197 511.071L299.408 591.181L298.976 440.522L437.765 360.413Z" fill="#A0E3FF"/>
<path d="M353.768 443.899L353.849 471.124L311.647 495.648L311.566 468.396L353.768 443.899Z" fill="#00B4FF"/>
<path d="M428.039 432.069L428.093 449.111L312.133 516.473L312.106 499.43L428.039 432.069Z" fill="#00B4FF"/>
<path d="M426.904 402.115L426.931 414.188L360.036 453.082L360.009 441.009L426.904 402.115Z" fill="#00A7ED"/>
<path d="M426.904 418.321L426.931 428.314L360.036 467.181L360.009 457.187L426.904 418.321Z" fill="#00B4FF"/>
<path d="M388.458 478.822L388.512 497.755L312.188 542.105L312.134 523.171L388.458 478.822Z" fill="#00B4FF"/>
<path d="M388.458 505.075L388.539 526.655L312.215 571.005L312.134 549.451L388.458 505.075Z" fill="#00A7ED"/>
<path d="M428.174 454.675L428.228 476.148L392.7 496.783L392.646 475.337L428.174 454.675Z" fill="#00A7ED"/>
<path d="M428.174 482.846L428.228 503.886L392.7 524.549L392.646 503.481L428.174 482.846Z" fill="#00B4FF"/>
<path d="M437.9 360.278L437.981 385.802L298.976 466.046L298.895 440.522L437.9 360.278Z" fill="#47C9FF"/>
<g style="mix-blend-mode:multiply" opacity="0.6">
<g style="mix-blend-mode:multiply">
<path d="M417.259 379.454C419.772 377.915 421.798 379.157 421.798 382.155C421.741 383.796 421.303 385.402 420.521 386.845C419.738 388.289 418.63 389.531 417.286 390.474C414.773 392.014 412.747 390.771 412.747 387.773C412.818 386.135 413.262 384.535 414.043 383.094C414.825 381.652 415.925 380.408 417.259 379.454Z" fill="#00B4FF"/>
</g>
<g style="mix-blend-mode:multiply">
<path d="M402.967 387.719C405.479 386.18 407.506 387.395 407.506 390.42C407.444 392.053 407.005 393.649 406.222 395.083C405.439 396.517 404.334 397.75 402.994 398.685C400.481 400.224 398.455 398.982 398.428 395.984C398.51 394.353 398.962 392.762 399.748 391.33C400.534 389.899 401.634 388.664 402.967 387.719Z" fill="#00B4FF"/>
</g>
<g style="mix-blend-mode:multiply">
<path d="M431.092 371.784C433.604 370.217 435.658 371.487 435.658 374.485C435.6 376.17 435.162 377.82 434.376 379.312C433.59 380.805 432.476 382.1 431.119 383.101C428.579 384.667 426.526 383.398 426.526 380.238C426.603 378.576 427.054 376.953 427.844 375.49C428.634 374.026 429.745 372.76 431.092 371.784V371.784Z" fill="#00B4FF"/>
</g>
</g>
<path opacity="0.3" d="M393.213 671.831L466.431 719.286L513.901 689.63L446.384 647.36L393.213 671.831Z" fill="url(#paint7_linear_85_1091)"/>
<path d="M407.695 440.468C407.695 434.445 405.425 431.258 402.724 430.583C400.022 429.908 402.264 433.284 400.805 438.956V439.361C399.076 436.849 397.32 435.229 396.591 435.661C395.861 436.093 396.591 439.361 398.671 442.764C399.393 444.068 399.998 445.433 400.481 446.843C400.57 447.235 400.678 447.623 400.805 448.004L400.589 456.107L407.398 455.134L405.263 448.355C406.796 446.005 407.638 443.273 407.695 440.468V440.468Z" fill="#FABCAF"/>
<path d="M364.413 492.272C364.115 490.706 362.738 487.411 361.981 484.98C360.954 481.766 359.468 479.389 358.658 479.578C357.847 479.767 358.009 482.657 359.036 485.844C354.821 482.873 349.985 481.388 348.445 483.548C346.905 485.709 348.445 490.22 352.633 493.191C354.94 494.497 357.399 495.513 359.955 496.216C362.656 497.134 361.171 502.401 364.899 496.216C366.547 493.704 365.412 493.65 364.413 492.272Z" fill="#FABCAF"/>
<path d="M425.742 673.748C425.742 676.881 425.607 678.475 420.096 678.124L397.914 677.529C395.888 677.097 392.754 675.963 393.105 673.505C393.457 671.047 396.185 670.507 398.293 670.129C403.318 669.292 408.37 668.508 413.395 667.833C414.781 667.6 416.18 667.447 417.583 667.374C427.012 667.374 425.742 670.615 425.742 673.748Z" fill="#1A1A1A"/>
<path d="M448.248 663.674C442.844 667.914 427.606 650.169 426.634 649.278C425.526 647.792 422.689 639.932 431.551 644.227C435.614 646.45 439.531 648.931 443.277 651.655C444.376 652.303 445.423 653.034 446.411 653.842C448.761 655.922 451.436 658.731 449.572 661.945C449.252 662.605 448.802 663.193 448.248 663.674V663.674Z" fill="#1A1A1A"/>
<path d="M411.504 568.979C411.504 568.979 408.803 638.204 410.91 667.86C415.644 671.256 421.295 673.139 427.12 673.262C427.12 673.262 431.2 603.038 431.686 593.152C431.686 593.152 433.47 574.975 434.956 616.137C434.956 616.137 436.09 644.146 436.631 650.25C436.631 650.25 443.871 662.674 450.491 659.406C450.491 659.406 450.977 586.724 449.005 554.583L411.504 568.979Z" fill="#0072D6"/>
<path d="M399.4 452.271C399.4 452.271 403.48 473.879 408.559 481.982C408.559 481.982 419.691 493.353 451.328 501.51L444.898 488.653C444.898 488.653 422.635 476.553 415.476 472.096C415.476 472.096 409.181 457.754 405.695 448.868C403.311 449.367 401.123 450.55 399.4 452.271V452.271Z" fill="#5C1A66"/>
<path d="M449.599 509.639C450.112 537.324 452.085 564.036 452.085 564.036C433.172 586.265 408.559 572.436 408.559 572.436C410.045 554.124 412.99 516.554 412.99 516.554C380.731 521.253 380.731 517.904 380.731 517.904C374.787 513.448 361.549 500.24 361.549 500.24C361.549 500.24 361.063 491.813 367.979 493.299C367.979 493.299 380.839 502.212 385.784 503.697C385.784 503.697 420.42 501.402 423.014 499.727C425.986 491.03 442.683 493.056 442.683 493.056L434.577 492.326L439.278 485.142C439.278 485.142 457.569 482.927 456.083 499.727C454.716 503.487 452.496 506.88 449.599 509.639V509.639Z" fill="#71207D"/>
<path d="M449.356 472.042C449.504 470.085 449.246 468.117 448.598 466.264C447.95 464.411 446.926 462.711 445.591 461.271C444.256 459.832 442.637 458.683 440.838 457.898C439.038 457.113 437.095 456.707 435.131 456.707C433.167 456.707 431.224 457.113 429.425 457.898C427.625 458.683 426.006 459.832 424.671 461.271C423.336 462.711 422.312 464.411 421.664 466.264C421.016 468.117 420.758 470.085 420.906 472.042C420.906 480.442 420.717 489.355 428.579 489.355C429.553 489.34 430.522 489.223 431.47 489.004L430.795 494.811C430.795 494.811 438.9 501.212 442.682 493.056V483.197C446.519 480.01 449.356 475.986 449.356 472.042Z" fill="#FABCAF"/>
<path d="M442.872 489.814C442.872 489.814 440.17 494.784 430.795 492.326C430.795 492.326 423.014 492.326 423.014 499.727C423.593 498.623 424.552 497.765 425.714 497.314C426.876 496.862 428.163 496.846 429.336 497.269C429.336 497.269 451.193 502.698 442.872 489.814Z" fill="white"/>
<path d="M451.76 468.018C452.382 466.181 453.814 464.642 453.462 462.616C452.814 458.754 448.221 459.024 446.195 456.377C445.222 455.08 445.546 453.676 443.709 453.055C441.872 452.434 440.008 453.352 438.306 453.055C434.793 452.596 430.2 447.815 426.958 450.867C425.851 451.893 425.823 453.919 425.067 455.134C424.311 456.35 422.933 456.701 421.528 457.538C416.881 460.239 421.285 467.181 424.581 469.179C426.418 470.314 429.039 469.99 430.525 471.88C431.011 472.475 430.66 473.339 430.525 474.041C430.524 475.641 430.221 477.226 429.633 478.714C430.579 477.633 431.524 476.445 432.335 475.283C432.875 474.554 433.902 472.799 435.036 473.393C437.279 474.527 434.253 481.036 433.929 482.684C433.307 485.601 433.145 489.301 436.631 490.517C437.489 490.781 438.398 490.835 439.282 490.675C440.166 490.515 440.998 490.146 441.71 489.598C442.454 489.037 443.041 488.293 443.412 487.438C444.466 485.196 444.222 482.414 446.438 480.739C447.762 479.74 449.518 479.443 450.653 478.038C453.138 475.175 450.68 471.259 451.76 468.018Z" fill="#1B1464"/>
<path d="M688.542 440.82L647.583 436.417L624.564 441.495L631.346 482.009C631.67 490.112 642.72 496.567 656.364 496.567C670.008 496.567 681.085 490.085 681.382 482.009L688.542 440.82Z" fill="#FFC919"/>
<path d="M688.542 440.982C688.542 451.542 674.142 460.104 656.364 460.104C638.587 460.104 624.213 451.542 624.213 440.982C624.213 430.421 638.614 421.886 656.364 421.886C674.115 421.886 688.542 430.448 688.542 440.982Z" fill="#FFD240"/>
<path d="M680.193 440.982C680.193 448.814 669.522 455.134 656.364 455.134C643.206 455.134 632.562 448.814 632.562 440.982C632.562 433.149 643.369 426.829 656.364 426.829C669.359 426.829 680.193 433.176 680.193 440.982Z" fill="#CC9C00"/>
<path d="M656.742 453.001C658.063 453.001 659.379 453.164 660.66 453.487C683.03 429.53 729.284 422.723 729.284 422.723C682.949 401.953 660.822 444.088 660.822 444.088C659.072 446.933 657.571 449.924 656.337 453.028L656.742 453.001Z" fill="#22509B"/>
<path d="M654.392 437.551C654.392 437.551 657.094 367.327 728.177 367.732C728.177 367.732 670.765 400.684 660.093 449.192C660.093 449.219 652.69 458.97 654.392 437.551Z" fill="#22509B"/>
<path d="M654.284 454.486C655.424 454.465 656.563 454.546 657.688 454.729C657.985 454.729 658.742 453.487 659.039 453.487C657.983 450.668 656.662 447.955 655.094 445.384C655.094 445.384 636.56 401.413 593.846 425.154C593.846 425.208 635.669 428.368 654.284 454.486Z" fill="#22509B"/>
<path d="M652.393 451.326C652.393 451.326 621.512 420.103 605.382 458.943C605.382 458.943 624.538 444.25 645.611 453.757C649.152 454.615 652.776 455.077 656.418 455.134C656.013 454.567 653.122 452.001 652.393 451.326Z" fill="#22509B"/>
<path d="M671.521 451.704C690.919 447.383 708.346 458.943 708.346 458.943C692.135 420.103 661.335 451.326 661.335 451.326C660.606 452.028 655.581 454.27 655.013 454.864C656.31 455.08 654.446 455.486 662.686 454.675C665.766 454.143 668.746 453.141 671.521 451.704V451.704Z" fill="#22509B"/>
<path d="M659.228 440.252C659.228 440.252 653.176 387.125 595.602 387.962C595.602 387.962 643.963 412.46 655.229 449.111C655.229 449.138 661.93 456.458 659.228 440.252Z" fill="#22509B"/>
<path d="M660.633 427.207C660.633 427.207 670.224 366.895 609.3 332.944C609.3 332.944 652.879 388.34 653.744 434.256C653.825 434.256 658.472 446.005 660.633 427.207Z" fill="#22509B"/>
<path d="M713.884 372.162C678.437 382.236 660.876 419.185 657.31 453.568" stroke="#1D4382" stroke-width="0.56" stroke-linecap="round" stroke-linejoin="round"/>
<path d="M657.85 453.919C671.359 435.012 694.648 419.266 718.694 422.21" stroke="#1D4382" stroke-width="0.56" stroke-linecap="round" stroke-linejoin="round"/>
<path d="M659.85 451.515C659.85 451.515 688.65 433.716 702.375 453.379" stroke="#1D4382" stroke-width="0.56" stroke-linecap="round" stroke-linejoin="round"/>
<path d="M620.755 343.721C645.614 369.377 659.426 403.751 659.228 439.469" stroke="#1D4382" stroke-width="0.56" stroke-linecap="round" stroke-linejoin="round"/>
<path d="M611.866 393.175C611.866 393.175 647.232 407.004 658.12 445.087" stroke="#1D4382" stroke-width="0.56" stroke-linecap="round" stroke-linejoin="round"/>
<path d="M604.923 423.588C604.923 423.588 640.37 424.695 657.931 454.621" stroke="#1D4382" stroke-width="0.56" stroke-linecap="round" stroke-linejoin="round"/>
<path d="M612.109 452.271C623.106 442.467 645.692 446.356 657.31 453.568" stroke="#1D4382" stroke-width="0.56" stroke-linecap="round" stroke-linejoin="round"/>
<path opacity="0.3" d="M133.007 802.853L205.252 843.907H475.32L270.689 730.171L133.007 802.853Z" fill="url(#paint8_linear_85_1091)"/>
<path d="M281.334 523.225L218.572 486.789L163.132 518.796L163.78 741.298L226.515 777.761L281.955 745.755L281.334 523.225Z" fill="#F03794"/>
<path d="M226.515 777.761L163.78 741.298L163.132 518.796L225.894 555.231L226.515 777.761Z" fill="#EB0A7B"/>
<path d="M225.894 555.231L163.132 518.796L218.572 486.789L281.334 523.225L225.894 555.231Z" fill="#FF3A9D"/>
<path d="M281.334 523.225L281.955 745.755L226.515 777.761L225.894 555.231L281.334 523.225Z" fill="#F03794"/>
<path d="M210.224 649.845L147.462 613.409L92.0488 645.388L92.4271 780.84L155.189 817.303L210.602 785.297L210.224 649.845Z" fill="#80DAFF"/>
<path d="M155.189 817.303L92.4271 780.84L92.0488 645.388L154.784 681.851L155.189 817.303Z" fill="#36C4FF"/>
<path d="M154.784 681.851L92.0488 645.388L147.462 613.409L210.224 649.845L154.784 681.851Z" fill="#A6E5FF"/>
<path d="M210.224 649.845L210.602 785.297L155.189 817.303L154.784 681.851L210.224 649.845Z" fill="#80DAFF"/>
<path d="M376.3 746.511L308.946 707.402L249.453 741.731L249.642 807.904L316.97 847.04L376.463 812.684L376.3 746.511Z" fill="#FFC919"/>
<path d="M316.97 847.04L249.642 807.904L249.453 741.731L316.808 780.867L316.97 847.04Z" fill="#FFC300"/>
<path d="M316.808 780.867L249.453 741.731L308.946 707.402L376.3 746.511L316.808 780.867Z" fill="#FFD13D"/>
<path d="M376.3 746.511L376.462 812.684L316.97 847.04L316.808 780.867L376.3 746.511Z" fill="#FFC919"/>
<path opacity="0.3" d="M490.179 793.481L594.062 846.878H677.141L531.732 778.652L490.179 793.481Z" fill="url(#paint9_linear_85_1091)"/>
<path d="M545.484 747.673L505.417 743.351L482.912 748.321L489.558 787.863C489.855 795.749 500.689 802.097 514.036 802.097C527.382 802.097 538.189 795.749 538.487 787.863L545.484 747.673Z" fill="#FFC919"/>
<path d="M514.036 766.525C531.404 766.525 545.484 758.157 545.484 747.835C545.484 737.512 531.404 729.144 514.036 729.144C496.667 729.144 482.587 737.512 482.587 747.835C482.587 758.157 496.667 766.525 514.036 766.525Z" fill="#FFD240"/>
<path d="M537.298 747.835C537.298 755.478 526.896 761.664 514.036 761.664C501.175 761.664 490.747 755.478 490.747 747.835C490.747 740.191 501.175 733.979 514.036 733.979C526.896 733.979 537.298 740.191 537.298 747.835Z" fill="#CC9C00"/>
<path d="M514.387 759.584C515.68 759.579 516.969 759.733 518.224 760.043C540.081 736.599 585.335 729.955 585.335 729.955C540 709.644 518.359 750.86 518.359 750.86C516.645 753.633 515.18 756.552 513.982 759.584H514.387Z" fill="#22509B"/>
<path d="M512.091 744.486C512.091 744.486 514.792 675.855 584.227 676.233C584.227 676.233 528.085 708.428 517.683 755.884C517.683 755.884 510.415 765.391 512.091 744.486Z" fill="#22509B"/>
<path d="M511.983 761.015C513.095 761.008 514.206 761.089 515.306 761.258C515.603 761.258 516.332 760.043 516.63 760.07C515.6 757.318 514.316 754.669 512.793 752.156C512.793 752.156 494.664 709.184 452.868 732.385C452.868 732.385 493.773 735.492 511.983 761.015Z" fill="#22509B"/>
<path d="M510.118 757.936C510.118 757.936 479.94 727.389 464.188 765.391C464.188 765.391 482.939 750.995 503.526 760.286C507.063 761.161 510.69 761.624 514.333 761.663C513.658 761.096 510.848 758.611 510.118 757.936Z" fill="#22509B"/>
<path d="M528.841 758.314C547.754 754.074 564.856 765.391 564.856 765.391C549.077 727.389 518.926 757.936 518.926 757.936C518.223 758.611 513.306 760.799 512.739 761.393C514.009 761.582 512.198 761.988 520.25 761.204C523.243 760.679 526.139 759.705 528.841 758.314V758.314Z" fill="#22509B"/>
<path d="M516.819 747.133C516.819 747.133 510.875 695.167 454.678 696.004C454.678 696.004 501.959 719.934 513.009 755.803C512.928 755.803 519.304 762.96 516.819 747.133Z" fill="#22509B"/>
<path d="M518.197 734.33C518.197 734.33 527.572 675.369 468.025 642.147C468.025 642.147 510.632 696.328 511.469 741.217C511.469 741.217 516.035 752.723 518.197 734.33Z" fill="#22509B"/>
<path d="M570.259 680.635C535.596 690.494 518.44 726.551 514.927 760.259" stroke="#1D4382" stroke-width="0.55" stroke-linecap="round" stroke-linejoin="round"/>
<path d="M515.468 760.475C528.679 741.92 551.455 726.578 574.906 729.468" stroke="#1D4382" stroke-width="0.55" stroke-linecap="round" stroke-linejoin="round"/>
<path d="M517.413 758.125C517.413 758.125 545.592 740.704 559.02 759.935" stroke="#1D4382" stroke-width="0.55" stroke-linecap="round" stroke-linejoin="round"/>
<path d="M479.21 652.708C503.585 677.763 517.164 711.372 517.035 746.322" stroke="#1D4382" stroke-width="0.55" stroke-linecap="round" stroke-linejoin="round"/>
<path d="M470.483 701.055C470.483 701.055 505.066 714.559 515.711 751.832" stroke="#1D4382" stroke-width="0.55" stroke-linecap="round" stroke-linejoin="round"/>
<path d="M463.729 730.792C463.729 730.792 498.366 731.899 515.549 761.15" stroke="#1D4382" stroke-width="0.55" stroke-linecap="round" stroke-linejoin="round"/>
<path d="M470.727 758.963C481.534 749.374 503.58 753.183 514.927 760.232" stroke="#1D4382" stroke-width="0.55" stroke-linecap="round" stroke-linejoin="round"/>
<path opacity="0.3" d="M612.839 692.601L691.001 736.113L750.358 740.056L636.101 674.315L612.839 692.601Z" fill="url(#paint10_linear_85_1091)"/>
<path opacity="0.3" d="M754.276 624.321L806.744 654.031H857.213L774.593 608.034L754.276 624.321Z" fill="url(#paint11_linear_85_1091)"/>
<path d="M624.457 522.361C624.457 522.361 638.317 529.41 653.771 536.081L673.818 521.28L680.113 528.681L657.499 548.722L628.185 538.836L624.457 522.361Z" fill="#68CEF7"/>
<path d="M749.305 488.248L722.962 500.105C722.962 500.105 720.261 501.78 723.314 503.4C723.314 503.4 745.576 500.213 752.412 496.135C756.418 491.298 760.161 486.249 763.624 481.009C761.408 477.336 762.435 473.555 760.76 469.557C758.058 473.123 749.305 488.248 749.305 488.248Z" fill="#FABCAF"/>
<path d="M776.322 458.187C776.322 458.187 769.378 454.324 757.977 469.341C759.591 473.355 761.477 477.253 763.624 481.009C767.001 476.092 769.793 470.799 771.945 465.236L776.322 458.187Z" fill="#EDEDED"/>
<path d="M759.653 449.354L759.977 560.093L657.958 619L657.634 508.235L759.653 449.354Z" fill="#0095FF"/>
<path d="M759.706 449.273L759.733 465.668L657.553 524.657L657.499 508.262L759.706 449.273Z" fill="#80DAFF"/>
<path d="M738.335 485.034L738.362 499.808L666.442 541.321L666.415 526.574L738.335 485.034Z" fill="#80DAFF"/>
<path d="M738.335 505.156L738.362 514.177L666.442 555.69L666.415 546.669L738.335 505.156Z" fill="#80DAFF"/>
<path d="M753.6 476.823L753.816 556.285L742.415 562.875L742.199 483.386L753.6 476.823Z" fill="#4ACBFF"/>
<path d="M715.073 533.381L715.127 557.176L665.55 585.779L665.496 561.983L715.073 533.381Z" fill="#4ACBFF"/>
<path d="M737.903 548.533L737.93 557.5L665.739 599.175L665.712 590.208L737.903 548.533Z" fill="#4ACBFF"/>
<path d="M737.93 561.74V566.197L665.739 607.872L665.712 603.416L737.93 561.74Z" fill="#80DAFF"/>
<path d="M738.119 520.389L738.2 543.563L719.666 554.259L719.612 531.085L738.119 520.389Z" fill="#80DAFF"/>
<g style="mix-blend-mode:multiply">
<path d="M738.687 465.641C740.497 464.588 741.983 465.425 741.983 467.532C741.92 468.667 741.591 469.772 741.023 470.757C740.456 471.742 739.664 472.58 738.714 473.204C736.903 474.23 735.417 473.393 735.417 471.313C735.48 470.178 735.809 469.073 736.377 468.088C736.945 467.103 737.736 466.265 738.687 465.641V465.641Z" fill="#00B4FF"/>
</g>
<g style="mix-blend-mode:multiply">
<path d="M728.339 471.286C730.149 470.233 731.635 471.07 731.635 473.15C731.572 474.278 731.243 475.375 730.675 476.351C730.107 477.327 729.316 478.156 728.366 478.768C726.556 479.821 725.07 478.984 725.07 476.904C725.124 475.774 725.449 474.674 726.018 473.696C726.587 472.718 727.383 471.892 728.339 471.286V471.286Z" fill="#00B4FF"/>
</g>
<g style="mix-blend-mode:multiply">
<path d="M748.71 460.401C750.52 459.348 752.006 460.212 752.033 462.346C751.975 463.514 751.643 464.652 751.066 465.67C750.489 466.688 749.683 467.556 748.71 468.207C746.9 469.287 745.387 468.423 745.387 466.262C745.452 465.096 745.786 463.96 746.363 462.943C746.939 461.926 747.742 461.057 748.71 460.401V460.401Z" fill="#00B4FF"/>
</g>
<path d="M634.642 703.431C634.642 706.564 634.642 708.158 640.289 707.807L662.47 707.186C664.497 706.781 667.604 705.619 667.279 703.161C666.955 700.703 664.199 700.163 662.065 699.812C657.067 698.948 652.014 698.192 646.962 697.516C645.587 697.269 644.197 697.115 642.801 697.057C633.372 697.057 634.642 700.298 634.642 703.431Z" fill="#1A1A1A"/>
<path d="M612.137 693.33C617.54 697.597 632.778 679.825 633.751 678.934C634.858 677.448 637.695 669.589 628.833 673.91C624.756 676.123 620.83 678.605 617.081 681.338C615.988 681.986 614.941 682.708 613.947 683.498C611.596 685.578 608.949 688.387 610.813 691.736C611.143 692.351 611.593 692.893 612.137 693.33V693.33Z" fill="#1A1A1A"/>
<path d="M648.853 598.635C648.853 598.635 651.555 667.86 649.475 697.543C644.738 700.934 639.088 702.817 633.264 702.945C633.264 702.945 629.184 632.721 628.698 622.836C628.698 622.836 626.888 604.658 625.402 645.847C625.402 645.847 624.294 673.829 623.727 679.96C623.727 679.96 616.513 692.385 609.894 689.116C609.894 689.116 609.408 616.407 611.38 584.266L648.853 598.635Z" fill="#1B1464"/>
<path d="M700.051 545.913C698.511 543.725 693.675 545.238 689.46 548.209C690.487 544.995 690.649 542.213 689.839 541.943C689.028 541.672 687.542 544.076 686.543 547.344C685.759 549.748 684.381 553.07 684.111 554.637C683.084 556.014 681.95 556.068 683.598 558.769C687.326 564.819 685.867 559.553 688.569 558.634C691.116 557.931 693.566 556.915 695.864 555.609C700.078 552.584 701.591 548.074 700.051 545.913Z" fill="#FABCAF"/>
<path d="M610.758 539.296L608.381 594.692C613.333 600.946 620.21 605.394 627.947 607.347C635.683 609.3 643.848 608.649 651.177 605.495C649.691 587.183 645.503 552.206 645.503 552.206C652.555 565.549 659.012 570.626 659.012 570.626C668.657 572.49 688.731 559.985 688.731 559.985C688.731 559.985 686.516 552.827 683.328 553.935L663.416 559.877C663.416 559.877 649.691 531.679 637.992 530.463C633.021 521.55 617.702 522.793 617.702 522.793C617.702 522.793 610.596 525.71 610.758 539.296Z" fill="#A6E5FF"/>
<path d="M639.451 501.699C639.571 499.759 639.292 497.816 638.632 495.988C637.972 494.161 636.945 492.488 635.613 491.072C634.282 489.656 632.675 488.528 630.891 487.757C629.107 486.986 627.184 486.588 625.24 486.588C623.297 486.588 621.374 486.986 619.589 487.757C617.805 488.528 616.198 489.656 614.867 491.072C613.536 492.488 612.508 494.161 611.848 495.988C611.188 497.816 610.909 499.759 611.029 501.699C611.029 505.669 613.92 509.801 617.783 512.961V522.739C620.755 530.842 629.617 524.494 629.617 524.494L628.969 518.579C629.856 518.78 630.761 518.889 631.67 518.904C639.641 519.012 639.451 510.099 639.451 501.699Z" fill="#FABCAF"/>
<path d="M631.859 500.942C631.049 501.645 631.508 505.939 630.454 506.344C629.4 506.749 626.915 502.239 625.942 504.346C625.402 505.453 626.32 508.262 626.429 509.45C626.731 511.687 626.667 513.959 626.239 516.176C625.24 520.335 622.052 520.686 618.756 518.444C614.818 515.554 611.843 511.544 610.218 506.938C608.435 502.266 600.113 503.13 614.649 486.06C629.86 468.153 645.989 488.869 631.859 500.942Z" fill="#0072D6"/>
<path d="M617.675 519.39C617.675 519.39 620.161 524.467 629.563 522.091C629.563 522.091 637.992 523.09 637.992 530.518C637.388 529.247 636.377 528.214 635.119 527.583C633.862 526.952 632.429 526.759 631.049 527.033C631.049 527.033 609.624 532.867 617.675 519.39Z" fill="white"/>
<path d="M764.597 613.112C770.649 608.331 772.405 608.494 773.999 610.654C775.593 612.815 775.782 614.247 769.46 618.757C763.138 623.268 756.329 626.212 754.33 624.402C751.439 621.701 758.41 618.001 764.597 613.112Z" fill="#0E0F2E"/>
<path d="M767.298 616.623C763.84 618.865 759.841 620.324 759.004 619.324C758.166 618.325 761.327 615.732 764.407 613.085C767.487 610.438 771.756 607.818 773.188 609.493C775.404 612.032 770 614.949 767.298 616.623Z" fill="#FABCAF"/>
<path d="M787.372 622.781C793.262 617.38 795.018 617.569 796.639 619.891C798.26 622.214 798.504 623.781 792.29 628.724C786.076 633.666 779.429 637.177 777.43 635.233C774.566 632.451 781.402 628.237 787.372 622.781Z" fill="#0E0F2E"/>
<path d="M790.236 626.617C786.832 629.156 782.887 630.83 782.131 629.804C781.374 628.778 784.373 625.807 787.534 622.863C790.696 619.918 794.721 616.947 796.153 618.757C798.125 621.35 792.722 624.672 790.236 626.617Z" fill="#FABCAF"/>
<path d="M766.19 497.512C766.19 497.512 758.409 514.312 767.676 609.898C767.676 609.898 770.162 612.599 775.349 609.52C775.349 609.52 778.051 557.068 779.051 532.867C779.051 532.867 780.05 518.525 789.858 619.891C791.106 620.237 792.415 620.307 793.693 620.097C794.971 619.887 796.188 619.403 797.261 618.676C797.261 618.676 800.746 564.468 799.206 529.032C798.612 515.257 797.261 504.318 794.667 500.483L778.24 507.506L766.19 497.512Z" fill="#0072D6"/>
<path d="M778.402 423.777C779.231 421.462 780.271 419.229 781.509 417.105C782.738 415.91 784.323 415.147 786.025 414.932C787.726 414.718 789.451 415.064 790.939 415.917C806.014 425.748 796.666 448.652 800.692 462.886C801.637 466.235 803.394 470.314 801.232 473.69C798.152 478.255 792.587 472.042 791.857 467.883C790.641 460.887 789.642 453.271 788.939 446.275C788.534 442.008 790.371 427.639 785.805 426.234L778.402 423.777Z" fill="#DB3387"/>
<path d="M788.912 423.507C788.652 423.511 788.4 423.415 788.21 423.236C783.509 419.185 780.537 421.805 780.402 421.913C780.187 422.114 779.901 422.221 779.607 422.21C779.313 422.2 779.035 422.074 778.835 421.859C778.634 421.644 778.527 421.358 778.537 421.065C778.547 420.771 778.674 420.493 778.889 420.292C778.889 420.292 783.401 416.133 789.696 421.562C789.811 421.653 789.907 421.767 789.977 421.897C790.046 422.027 790.089 422.169 790.102 422.316C790.114 422.463 790.097 422.61 790.05 422.75C790.004 422.89 789.929 423.019 789.831 423.128C789.718 423.259 789.576 423.361 789.416 423.426C789.257 423.492 789.084 423.519 788.912 423.507V423.507Z" fill="white"/>
<path d="M773.107 458.7C773.593 457.943 784.076 453.298 788.453 455.999C792.455 458.449 796.093 461.45 799.26 464.912C799.26 469.368 793.451 493.083 794.667 500.51C796.153 501.996 781.347 515.824 764.948 500.132C764.948 500.132 765.434 496.108 766.785 488.383C766.785 488.383 757.653 482.198 764.569 470.827C766.055 468.585 771.378 461.455 773.107 458.7Z" fill="white"/>
<path d="M792.722 439.307C792.722 430.502 787.021 423.371 779.97 423.371C772.918 423.371 767.217 430.502 767.217 439.307C767.217 448.112 770.648 456.944 777.403 457.349V461.698C777.403 461.698 781.888 473.042 789.345 455.675L790.128 448.652C791.791 445.816 792.685 442.595 792.722 439.307Z" fill="#FABCAF"/>
<path d="M785.859 476.742C784.265 480.28 780.456 485.142 776.835 492.948L751.277 503.751C748.238 503.598 745.261 502.836 742.523 501.51C739.497 500.132 736.741 499.619 736.39 500.321C736.039 501.023 738.173 502.779 741.199 504.156C736.147 505.156 731.581 505.966 732.121 508.478C732.662 510.99 737.146 514.393 742.199 513.394C745.085 512.026 747.891 510.493 750.601 508.802C750.601 508.802 772.864 505.615 779.699 501.537C784.765 496.88 789.504 491.881 793.883 486.573C790.425 482.252 790.317 479.848 785.859 476.742Z" fill="#FABCAF"/>
<path d="M798.206 463.291C796.828 462.265 794.775 462.697 791.83 465.803C788.229 469.937 785.335 474.637 783.266 479.713C783.266 479.713 787.967 487.816 794.397 490.085C794.208 489.869 799.287 478.984 799.8 477.768C800.989 473.663 801.043 465.398 798.206 463.291Z" fill="#EDEDED"/>
<path d="M776.971 441.36C781.293 442.656 785.805 443.764 787.913 447.464C789.318 446.005 789.074 443.439 788.777 438.605C795.505 429.692 790.587 448.328 790.533 448.544C792.317 441.981 796.72 434.418 793.83 427.585C790.371 419.482 776.7 419.266 771.027 425.235C769.325 427.018 766.65 432.636 767.595 435.067C769.162 438.767 772.972 440.252 776.971 441.36Z" fill="#F03794"/>
<path d="M338.125 270.093C341.475 269.796 344.122 268.878 344.041 268.014C343.96 267.149 341.34 266.744 337.854 267.041C335.315 267.258 331.694 267.257 330.154 267.636C329.533 267.474 298.679 255.752 298.679 255.752C294.978 247.838 291.276 242.949 289.655 239.546C285.197 242.652 285.089 244.948 281.55 249.431C285.934 254.742 290.683 259.742 295.761 264.395C302.11 268.203 327.831 273.038 328.182 273.389C329.82 275.467 331.707 277.336 333.802 278.953C338.152 281.653 342.907 281.329 344.312 278.953C345.716 276.576 342.501 272.794 338.125 270.093Z" fill="#FABCAF"/>
<path d="M277.308 225.933C278.686 224.907 280.739 225.339 283.684 228.445C287.278 232.579 290.179 237.267 292.276 242.328C292.276 242.328 287.575 250.431 281.144 252.726C281.306 252.51 276.227 241.599 275.741 240.41C274.525 236.305 274.471 228.04 277.308 225.933Z" fill="#FF0F88"/>
<path d="M358.28 224.367C357.658 221.666 348.58 219.91 344.365 220.828C340.151 221.747 338.692 223.205 339.286 225.987C339.586 226.81 340.158 227.506 340.907 227.959C340.907 228.607 341.177 229.255 341.285 229.85C341.745 232.55 342.771 234.765 343.582 234.549C344.392 234.333 344.636 232.172 344.284 229.606C346.795 230.532 349.495 230.828 352.147 230.471C356.388 229.579 358.901 227.149 358.28 224.367Z" fill="#FABCAF"/>
<path d="M555.346 528.627C540.27 537.324 528.085 558.337 528.139 575.731C528.193 593.125 554.211 612.275 555.589 613.274C556.94 610.708 582.795 561.551 582.741 544.211C582.687 526.871 570.421 519.93 555.346 528.627ZM554.535 574.732C546.268 579.513 539.513 575.677 539.486 566.143C539.758 560.951 541.256 555.897 543.858 551.395C546.459 546.892 550.09 543.07 554.454 540.241C562.748 535.46 569.503 539.296 569.53 548.83C569.251 554.024 567.747 559.078 565.141 563.579C562.535 568.081 558.9 571.902 554.535 574.732V574.732Z" fill="white"/>
<path d="M183.989 790.942L143.031 786.539L120.012 791.617L126.793 832.131C127.09 840.234 138.168 846.689 151.811 846.689C165.455 846.689 176.532 840.207 176.83 832.131L183.989 790.942Z" fill="#F03794"/>
<path d="M183.989 791.104C183.989 801.664 169.589 810.226 151.812 810.226C134.034 810.226 119.661 801.664 119.661 791.104C119.661 780.543 134.061 771.981 151.812 771.981C169.562 771.981 183.989 780.57 183.989 791.104Z" fill="#FF54AA"/>
<path d="M175.614 791.104C175.614 798.936 164.969 805.257 151.812 805.257C138.654 805.257 128.009 798.936 128.009 791.104C128.009 783.271 138.654 776.951 151.812 776.951C164.969 776.951 175.614 783.271 175.614 791.104Z" fill="#EB0A7B"/>
<path d="M152.19 803.123C153.511 803.126 154.826 803.29 156.107 803.609C178.478 779.625 224.732 772.845 224.732 772.845C178.397 752.048 156.243 794.21 156.243 794.21C154.498 797.054 153.006 800.045 151.785 803.15L152.19 803.123Z" fill="#2D6CD1"/>
<path d="M149.839 787.701C149.839 787.701 152.541 717.476 223.624 717.881C223.624 717.881 166.212 750.833 155.54 799.342C155.54 799.477 148.137 809.065 149.839 787.701Z" fill="#2D6CD1"/>
<path d="M149.704 804.608C150.844 804.587 151.983 804.668 153.108 804.852C153.433 804.852 154.162 803.609 154.486 803.609C153.413 800.797 152.093 798.086 150.542 795.506C150.542 795.506 132.008 751.562 89.293 775.276C89.293 775.303 131.116 778.49 149.704 804.608Z" fill="#2D6CD1"/>
<path d="M147.84 801.448C147.84 801.448 116.959 770.225 100.83 809.065C100.83 809.065 119.985 794.345 141.059 803.852C144.596 804.727 148.222 805.198 151.866 805.257C151.433 804.662 148.597 802.178 147.84 801.448Z" fill="#2D6CD1"/>
<path d="M166.969 801.826C186.34 797.478 203.794 809.065 203.794 809.065C187.583 770.225 156.783 801.448 156.783 801.448C156.054 802.151 151.028 804.392 150.461 804.987C151.758 805.176 149.894 805.581 158.134 804.797C161.214 804.265 164.193 803.263 166.969 801.826V801.826Z" fill="#2D6CD1"/>
<path d="M154.676 790.402C154.676 790.402 148.597 737.355 91.0493 738.111C91.0493 738.111 139.411 762.609 150.677 799.261C150.677 799.261 157.215 806.58 154.676 790.402Z" fill="#2D6CD1"/>
<path d="M156.08 777.329C156.08 777.329 165.672 716.99 104.747 683.039C104.747 683.039 148.326 738.435 149.191 784.351C149.218 784.351 154 796.127 156.08 777.329Z" fill="#2D6CD1"/>
<path d="M209.332 722.257C173.885 732.331 156.324 769.307 152.757 803.663" stroke="#295FB8" stroke-width="0.56" stroke-linecap="round" stroke-linejoin="round"/>
<path d="M153.297 804.041C166.806 785.135 190.095 769.361 214.141 772.332" stroke="#295FB8" stroke-width="0.56" stroke-linecap="round" stroke-linejoin="round"/>
<path d="M155.27 801.637C155.27 801.637 184.098 783.838 197.823 803.501" stroke="#295FB8" stroke-width="0.56" stroke-linecap="round" stroke-linejoin="round"/>
<path d="M116.175 693.843C141.074 719.482 154.925 753.858 154.756 789.591" stroke="#295FB8" stroke-width="0.56" stroke-linecap="round" stroke-linejoin="round"/>
<path d="M107.313 743.297C107.313 743.297 142.679 757.126 153.54 795.209" stroke="#295FB8" stroke-width="0.56" stroke-linecap="round" stroke-linejoin="round"/>
<path d="M100.37 773.71C100.37 773.71 135.817 774.817 153.379 804.716" stroke="#295FB8" stroke-width="0.56" stroke-linecap="round" stroke-linejoin="round"/>
<path d="M107.557 802.394C118.526 792.562 141.139 796.479 152.757 803.663" stroke="#295FB8" stroke-width="0.56" stroke-linecap="round" stroke-linejoin="round"/>
<path d="M346.041 631.586C337.719 626.752 326.21 627.427 313.404 634.72C288.142 649.278 267.717 684.66 267.798 713.668C267.798 728.091 272.931 738.246 281.145 743.027L283.846 744.675C275.741 739.894 270.554 729.738 270.5 715.315C270.5 686.307 290.844 650.952 316.105 636.367C328.831 629.021 340.421 628.264 348.689 633.18L346.041 631.586Z" fill="#E3E3E3"/>
<path d="M316.322 636.421C341.61 621.836 362.251 633.531 362.251 662.566C362.251 691.601 341.907 726.956 316.619 741.542C291.33 756.127 270.689 744.405 270.689 715.369C270.689 686.334 291.06 650.925 316.322 636.421Z" fill="white"/>
<path d="M317.402 704.944L317.915 704.674C321.401 702.972 324.021 704.971 323.751 709.157C323.542 711.246 322.868 713.262 321.779 715.056C320.69 716.851 319.213 718.379 317.456 719.529L316.943 719.799C313.458 721.474 310.837 719.502 311.107 715.316C311.312 713.226 311.985 711.209 313.074 709.414C314.164 707.619 315.643 706.091 317.402 704.944V704.944Z" fill="#F03794"/>
<path d="M316.808 684.714C317.51 684.309 318.24 683.931 318.942 683.58C324.967 680.663 330.695 680.257 335.153 682.526C336.612 683.255 336.666 685.794 335.315 688.252C334.668 689.375 333.736 690.307 332.613 690.953C332.257 691.195 331.847 691.348 331.42 691.4C330.992 691.452 330.558 691.4 330.154 691.25C328.268 690.442 326.218 690.091 324.17 690.227C322.123 690.364 320.137 690.982 318.375 692.033C317.861 692.277 317.375 692.547 316.862 692.844C311.237 696.347 306.59 701.215 303.353 706.997C302.763 708.099 301.897 709.029 300.84 709.698C300.451 709.973 299.997 710.14 299.522 710.183C299.048 710.225 298.57 710.142 298.139 709.941C296.761 709.103 296.788 706.511 298.139 704.107C302.611 696.161 309.036 689.486 316.808 684.714V684.714Z" fill="#F03794"/>
<path d="M316.726 663.89C317.861 663.242 318.969 662.647 320.104 662.107C328.803 657.867 336.936 657.002 343.609 659.649C345.122 660.243 345.311 662.701 344.041 665.186C343.435 666.423 342.5 667.47 341.339 668.211C341.004 668.441 340.62 668.592 340.218 668.653C339.815 668.713 339.405 668.683 339.016 668.562C333.612 666.402 326.777 667.131 319.59 670.615C318.645 671.074 317.726 671.56 316.889 672.074C307.74 677.745 300.065 685.501 294.491 694.707C293.902 695.671 293.097 696.485 292.14 697.084C291.754 697.372 291.291 697.538 290.81 697.562C290.329 697.586 289.852 697.467 289.439 697.219C288.142 696.247 288.277 693.573 289.79 691.223C296.479 680.11 305.711 670.742 316.726 663.89V663.89Z" fill="#F03794"/>
<path opacity="0.3" d="M708.319 808.309L766.19 837.992L855.24 802.367L795.856 771.225L708.319 808.309Z" fill="url(#paint12_linear_85_1091)"/>
<path d="M813.039 720.258L800.368 713.047C800.453 713.151 800.553 713.241 800.665 713.317L813.336 720.663C813.213 720.604 813.11 720.51 813.039 720.393" fill="#835D01"/>
<path d="M799.152 699.731L786.48 692.385L800.367 712.912L813.039 720.258L799.152 699.731Z" fill="#F03794"/>
<path d="M795.099 684.471L806.446 677.908L815.578 672.668H816.578H816.713L829.384 680.041C829.218 679.986 829.037 679.986 828.871 680.041V680.041C828.64 680.059 828.417 680.133 828.222 680.257L819.091 685.524L807.743 692.087L800.61 696.193L787.966 688.738L795.099 684.471Z" fill="#F03794"/>
<path d="M800.638 695.95C799.341 696.706 798.53 698.813 799.152 699.731L813.039 720.258C813.363 720.744 813.957 720.744 814.525 720.42C815.204 719.942 815.699 719.247 815.929 718.449L829.654 681.986C830.303 680.311 829.465 679.285 828.168 679.906L819.036 685.173L807.689 691.736L800.638 695.95Z" fill="white"/>
<path d="M786.21 691.439V690.386V690.224V690.062C786.218 690.008 786.218 689.953 786.21 689.9L786.345 689.711L799.017 697.057C798.679 697.259 798.386 697.525 798.152 697.84V697.84C797.893 698.153 797.691 698.51 797.558 698.894V698.894C797.403 699.233 797.32 699.601 797.314 699.974V699.974C797.296 700.278 797.372 700.579 797.531 700.839L784.859 693.492V691.439H786.21Z" fill="#F03794"/>
<path d="M721.368 798.45C720.693 798.126 720.044 797.802 719.396 797.424L706.698 790.05C707.346 790.429 708.022 790.753 708.697 791.077L709.372 791.374C709.832 791.563 710.318 791.779 710.804 791.941L711.372 792.13C712.436 792.484 713.518 792.782 714.614 793.021H714.938C715.731 793.165 716.514 793.274 717.289 793.346H718.153C718.694 793.346 719.234 793.346 719.774 793.346H720.72H722.071H723.151H724.313L725.529 793.21L726.556 793.048L727.907 792.778L728.852 792.589L730.311 792.211L731.203 791.968L732.77 791.482L733.58 791.212C734.337 790.969 735.12 790.672 735.877 790.374L738.281 789.348L739.038 788.997L740.767 788.16L741.604 787.701L743.901 786.458C744.901 785.864 745.927 785.243 746.927 784.594L747.575 784.162L749.899 782.596L750.628 782.056C751.574 781.38 752.52 780.651 753.465 779.922L753.843 779.598L756.275 777.599L757.139 776.843C757.842 776.222 758.517 775.627 759.166 775.006L759.976 774.25C760.895 773.386 761.787 772.521 762.678 771.549L762.921 771.306C763.732 770.469 764.515 769.631 765.326 768.74L766.055 767.93C766.731 767.173 767.433 766.39 768.109 765.58C768.271 765.391 768.46 765.202 768.622 764.986L771.054 761.988C771.297 761.664 771.54 761.312 771.81 760.988C772.08 760.664 772.891 759.584 773.404 758.855C773.917 758.125 774.89 756.802 775.619 755.748C775.809 755.424 776.052 755.127 776.241 754.83C777.673 752.723 778.943 750.536 780.348 748.321C780.512 748.006 780.692 747.699 780.888 747.403C781.374 746.565 781.807 745.728 782.266 744.891C782.725 744.053 782.887 743.783 783.211 743.216C783.536 742.649 783.509 742.595 783.671 742.298C784.184 741.325 784.67 740.38 785.13 739.408L785.562 738.544C786.156 737.301 786.724 736.059 787.264 734.789L787.399 734.519C787.433 734.415 787.478 734.316 787.534 734.222L787.696 733.898L787.94 733.466C787.996 733.371 788.059 733.281 788.129 733.196V733.007C788.175 732.898 788.239 732.798 788.318 732.71L788.642 732.25C788.707 732.146 788.779 732.047 788.858 731.953L789.074 731.683V731.548L789.29 731.305L789.534 731.062L789.75 730.819L790.02 730.603L790.182 730.441L790.425 730.252L790.668 730.063L790.911 729.874L791.155 729.738L791.398 729.576H791.56L791.803 729.441H792.019H792.181H792.424H792.641H792.884H793.1H793.343H794.154H794.451H794.829C794.994 729.486 795.149 729.559 795.288 729.657L807.959 737.004C807.694 736.864 807.413 736.755 807.122 736.68C806.88 736.653 806.635 736.653 806.392 736.68C806.141 736.653 805.887 736.653 805.636 736.68L804.852 736.923L804.042 737.328C803.57 737.598 803.126 737.915 802.718 738.273C802.271 738.653 801.855 739.069 801.475 739.516V739.516C801.105 739.972 800.762 740.45 800.449 740.947V741.109C800.119 741.65 799.822 742.209 799.557 742.784L799.314 743.324C798.963 744.161 798.584 744.972 798.206 745.782L797.855 746.511L797.423 747.376C797.261 747.754 797.071 748.105 796.909 748.483L795.964 750.293L795.504 751.211C795.431 751.313 795.368 751.421 795.315 751.535L794.559 752.885C794.126 753.723 793.667 754.56 793.181 755.37L792.938 755.802C792.849 755.97 792.749 756.133 792.641 756.289C791.317 758.53 789.939 760.691 788.534 762.825C788.372 763.095 788.156 763.365 787.966 763.635C787.264 764.689 786.535 765.715 785.778 766.741L785.427 767.227C785.022 767.795 784.589 768.335 784.184 768.875L783.428 769.847L783.509 769.766C782.86 770.604 782.185 771.414 781.509 772.251L781.293 772.494L780.78 773.089L779.51 774.574C779.24 774.871 778.97 775.141 778.727 775.438L777.997 776.249L777.457 776.843L775.592 778.787L775.376 779.031L773.134 781.245L772.729 781.623L771.918 782.38L770.81 783.406L769.919 784.189L769.027 784.946L768.46 785.432C767.847 785.972 767.226 786.485 766.596 786.971L766.217 787.268C765.434 787.89 764.677 788.457 763.894 789.024L763.462 789.348L762.732 789.861L761.624 790.645L760.436 791.428L759.76 791.887L759.409 792.103L757.248 793.454L756.734 793.724L755.086 794.669L754.438 794.993L753.6 795.425L752.925 795.776L751.871 796.29L751.088 796.776L750.763 796.938L748.683 797.802L746.657 798.585H746.359L745.576 798.855L744.522 799.18L743.982 799.342L742.982 799.477L742.28 799.666L741.523 799.828L740.578 800.044H740.118H739.227L738.2 800.233H737.849H736.984H735.823H735.498H732.445H730.824H730.338H729.987C729.189 800.158 728.395 800.04 727.609 799.882H727.285C726.206 799.818 725.132 799.683 724.07 799.477H723.746H723.476L722.044 798.882L721.368 798.45Z" fill="#F03794"/>
<path d="M683.922 784.892C683.544 783.865 683.192 782.812 682.868 781.705L695.539 789.078C695.891 790.266 696.296 791.401 696.701 792.508C697.106 793.616 697.35 794.021 697.674 794.75C697.998 795.479 698.025 795.614 698.214 796.019C698.855 797.345 699.567 798.634 700.349 799.882L701.078 800.989C701.537 801.664 701.997 802.34 702.483 802.961C702.969 803.582 703.077 803.717 703.402 804.068C703.726 804.419 704.401 805.23 704.942 805.77L705.914 806.742C706.509 807.309 707.13 807.823 707.751 808.336L708.643 809.065C709.587 809.769 710.57 810.418 711.588 811.01L698.89 803.663C697.884 803.056 696.91 802.398 695.972 801.691C695.647 801.475 695.377 801.205 695.08 800.962C694.783 800.719 693.837 799.936 693.243 799.369L692.27 798.423C691.73 797.856 691.217 797.289 690.73 796.695C690.244 796.1 690.109 795.965 689.812 795.587C689.514 795.209 688.866 794.318 688.407 793.643C688.245 793.373 688.029 793.156 687.866 792.886C687.704 792.616 687.866 792.616 687.65 792.508C686.878 791.269 686.175 789.989 685.543 788.673C685.543 788.673 685.543 788.673 685.543 788.673C685.543 788.673 685.219 787.89 685.057 787.512C684.894 787.133 684.381 786.026 684.084 785.243C684.054 785.116 683.999 784.997 683.922 784.892Z" fill="#F03794"/>
<path d="M695.54 789.078C703.267 815.115 727.798 823.326 756.734 806.634C777.889 794.426 797.531 771.036 809.31 744.053C811.04 740.137 810.337 736.545 807.797 735.951C806.7 735.825 805.592 736.082 804.663 736.68C802.612 737.971 801.001 739.855 800.043 742.082C790.344 764.31 774.107 783.595 756.815 793.643C734.094 806.769 714.695 801.259 707.373 782.164L695.54 789.078Z" fill="white"/>
<path d="M707.265 782.299L694.594 774.952L682.868 781.705L695.539 789.078L707.265 782.299Z" fill="#D99902"/>
<path d="M670.467 786.836V786.593V785.972L684.165 749.509V749.347L684.327 749.104V748.969H685.192H685.327L697.998 756.343C697.822 756.289 697.634 756.289 697.458 756.343V756.343C697.227 756.375 697.005 756.458 696.81 756.586C696.483 756.768 696.198 757.017 695.972 757.315V757.315C695.685 757.653 695.456 758.036 695.297 758.449L681.599 794.912C681.502 795.145 681.438 795.391 681.41 795.641C681.382 795.847 681.382 796.056 681.41 796.263C681.431 796.434 681.486 796.599 681.572 796.749V796.749C681.649 796.867 681.75 796.968 681.869 797.046L669.198 789.699C669.085 789.614 668.985 789.514 668.9 789.402V789.402V789.132V788.754L670.467 786.836Z" fill="#FF3A9D"/>
<path d="M698.566 754.884C697.868 755.32 697.336 755.976 697.053 756.748L683.355 793.21C682.733 794.885 683.544 795.911 684.841 795.263L695.648 789.078L707.373 782.299L712.561 779.328C713.858 778.571 714.668 776.492 714.047 775.546L700.16 755.019C699.754 754.533 699.133 754.533 698.566 754.884Z" fill="white"/>
<path d="M794.1 680.636C793.802 679.636 793.451 678.664 793.1 677.745C792.938 677.286 792.722 676.854 792.533 676.395C792.343 675.936 792.046 675.261 791.776 674.72C791.506 674.18 790.884 673.046 790.425 672.263L789.939 671.425C789.588 670.885 789.209 670.399 788.831 669.886L788.021 668.751L786.724 667.347C786.427 667.023 786.156 666.699 785.859 666.402C785.562 666.104 784.806 665.483 784.265 665.051C784.016 664.813 783.754 664.587 783.482 664.376C782.658 663.753 781.801 663.176 780.915 662.647L793.613 670.021C794.504 670.544 795.361 671.121 796.18 671.749C796.45 671.939 796.693 672.209 796.963 672.425C797.51 672.846 798.033 673.296 798.53 673.775C798.828 674.072 799.098 674.396 799.395 674.72C799.692 675.045 800.287 675.612 800.692 676.125L801.502 677.259C801.881 677.746 802.259 678.259 802.61 678.799L802.988 679.474C803.448 680.257 803.907 681.068 804.339 681.932C804.339 682.067 804.474 682.175 804.555 682.337C804.636 682.499 804.907 683.201 805.096 683.634C805.285 684.066 805.501 684.498 805.663 684.957L805.825 685.362C806.122 686.172 806.393 687.01 806.663 687.874V688.117C806.936 689.005 807.161 689.906 807.338 690.818L807.581 691.925L794.91 684.552C794.64 683.255 794.343 682.013 793.992 680.825L794.1 680.636Z" fill="#F03794"/>
<path d="M796.612 654.004L795.234 653.545L794.343 653.275C793.783 653.108 793.215 652.973 792.641 652.87C792.42 652.8 792.194 652.746 791.965 652.708H791.533C790.614 652.546 789.642 652.384 788.669 652.303H787.615C786.967 652.303 786.319 652.303 785.67 652.303H784.508H782.833H781.564L780.159 652.438L778.673 652.627L777.457 652.816L775.809 653.113L774.62 653.383L772.891 653.815L771.783 654.112L769.865 654.707L768.919 655.031C768.001 655.328 767.082 655.679 766.218 656.057H766.082C765.137 656.435 764.164 656.867 763.192 657.299L762.273 657.732L760.193 658.758L759.166 659.298L756.464 660.811L743.793 653.437L745.792 652.33L746.576 651.925L747.602 651.384L748.386 650.925L749.71 650.304L750.574 649.899L750.953 649.737C751.79 649.332 752.655 648.981 753.492 648.656L755.924 647.738H756.275L757.221 647.441L758.491 647.009L759.139 646.82L760.22 646.523L761.057 646.307L761.976 646.091L763.138 645.847L763.732 645.712L764.813 645.523L766.001 645.334H766.434H767.514L768.919 645.199H770.189H771.864H773.026H774.971H775.566H776.025C776.998 645.199 777.943 645.442 778.889 645.604H779.213L779.888 645.766L781.591 646.199L782.482 646.469L783.563 646.793H783.86L785.535 647.468L786.373 647.819C787.156 648.197 787.967 648.602 788.723 649.062L801.394 656.435C800.611 655.976 799.827 655.571 799.017 655.193L798.179 654.842L796.612 654.004Z" fill="#F35BA7"/>
<path d="M685.084 733.304V733.034C685.099 732.971 685.099 732.907 685.084 732.845V732.845C685.097 732.755 685.097 732.664 685.084 732.575C685.084 732.575 685.084 732.385 685.084 732.304C685.071 732.206 685.071 732.106 685.084 732.007C685.073 731.909 685.073 731.809 685.084 731.71C685.084 731.71 685.084 731.521 685.084 731.44V731.116V730.819C685.381 729.847 685.705 728.874 686.002 727.929L687.056 724.904V724.715C687.434 723.661 687.84 722.635 688.245 721.582L689.217 719.151L689.38 718.773V718.53L690.676 715.478C691.001 714.775 691.352 714.046 691.676 713.317L691.919 712.804L692.081 712.453C692.595 711.345 693.108 710.238 693.675 709.157L694.351 707.834L694.972 706.618C695.188 706.213 695.377 705.808 695.594 705.43C695.81 705.052 696.35 704.08 696.728 703.404C697.107 702.729 697.701 701.622 698.214 700.703L698.674 699.866C698.89 699.515 699.106 699.191 699.322 698.813C700.565 696.787 701.835 694.761 703.131 692.79L703.753 691.79L704.158 691.223C704.861 690.197 705.59 689.197 706.32 688.171L707.616 686.307L707.995 685.821L708.805 684.768L710.318 682.796L711.696 681.068L712.371 680.257L712.777 679.744C713.587 678.772 714.398 677.827 715.235 676.881C715.451 676.638 715.668 676.422 715.857 676.179L716.586 675.369L717.694 674.126L720.396 671.425C721.233 670.534 722.098 669.697 723.097 668.859L724.259 667.779C724.529 667.482 724.827 667.212 725.124 666.942C725.389 666.722 725.641 666.487 725.88 666.24C726.826 665.402 727.771 664.565 728.744 663.755L729.014 663.539L729.582 663.052L731.581 661.432L733.283 660.135L733.958 659.622L734.877 659.028C735.796 658.362 736.696 657.714 737.579 657.083C737.856 656.87 738.145 656.672 738.443 656.489L739.227 655.976L740.254 655.301L742.955 653.68L743.577 653.302L756.248 660.676C754.825 661.504 753.393 662.404 751.952 663.377L751.169 663.89C749.818 664.781 748.467 665.726 747.143 666.726L746.468 667.239C745.225 668.184 743.982 669.157 742.766 670.156L742.199 670.615C740.902 671.722 739.497 672.857 738.308 674.045L737.444 674.856C736.174 676.044 734.904 677.259 733.661 678.529C732.391 679.825 731.149 681.23 729.906 682.526L729.176 683.309C728.015 684.66 726.826 686.01 725.691 687.415L725.016 688.225C724.043 689.441 723.07 690.683 722.125 691.925C721.855 692.277 721.584 692.601 721.341 692.952C720.747 693.735 720.207 694.545 719.639 695.329C719.072 696.112 718.18 697.354 717.478 698.381L716.451 699.92C715.154 701.919 713.884 703.918 712.642 705.97C712.29 706.592 711.885 707.213 711.534 707.834C711.183 708.455 710.534 709.617 710.048 710.535L708.292 713.722C708.103 714.127 707.887 714.532 707.67 714.937C706.833 716.585 706.022 718.259 705.239 719.934L704.996 720.447C704.158 722.257 703.375 724.067 702.618 725.849L702.456 726.227C701.7 728.118 700.943 730.009 700.268 731.899V732.115C699.565 734.06 698.917 736.032 698.295 738.003C698.071 738.696 697.926 739.412 697.863 740.137V740.137C697.78 740.746 697.78 741.364 697.863 741.974V741.974C697.96 742.478 698.143 742.962 698.403 743.405V743.405C698.656 743.794 698.987 744.125 699.376 744.378L686.705 737.004C686.319 736.781 685.994 736.465 685.759 736.086V736.086C685.68 735.978 685.617 735.86 685.57 735.735C685.514 735.632 685.468 735.523 685.435 735.41C685.42 735.312 685.42 735.212 685.435 735.113V734.816C685.435 734.816 685.435 734.816 685.435 734.654C685.435 734.654 685.435 734.492 685.435 734.384C685.422 734.304 685.422 734.222 685.435 734.141C685.423 734.051 685.423 733.961 685.435 733.871V733.358L685.084 733.304Z" fill="#F35BA7"/>
<path d="M756.329 660.676C731.067 675.261 708.265 705.646 698.214 738.057C696.998 742.028 698.214 745.053 701.132 744.837C701.915 744.758 702.671 744.509 703.347 744.107C705.804 742.517 707.614 740.104 708.454 737.301C716.748 710.562 735.471 685.524 756.356 673.505C781.59 658.947 802.772 667.347 807.689 691.844L819.037 685.281C813.957 653.788 787.723 642.552 756.329 660.676Z" fill="white"/>
<path d="M322.454 365.382C321.563 362.871 316.51 363.006 311.647 364.734C313.484 362.033 314.349 359.332 313.701 358.792C313.052 358.252 310.999 360.224 309.054 363.033C307.676 365.166 305.433 367.975 304.731 369.407C303.38 370.46 302.299 370.217 303.137 373.242C305.082 380.076 305.109 374.62 307.946 374.458C310.594 374.477 313.235 374.168 315.808 373.539C320.671 371.811 323.346 367.894 322.454 365.382Z" fill="#FABCAF"/>
<path d="M223.894 531.328C223.894 534.461 223.894 536.054 229.568 535.703L251.75 535.109C253.776 534.677 256.883 533.543 256.532 531.085C256.18 528.627 253.479 528.087 251.344 527.709C246.346 526.871 241.294 526.088 236.241 525.413C234.865 525.18 233.475 525.027 232.081 524.954C222.652 524.954 223.894 528.195 223.894 531.328Z" fill="#1A1A1A"/>
<path d="M201.416 521.28C206.819 525.521 222.03 507.776 223.03 506.884C224.11 505.399 226.974 497.539 218.113 501.834C214.041 504.057 210.115 506.537 206.36 509.261C205.267 509.919 204.22 510.65 203.226 511.449C200.875 513.529 198.201 516.338 200.065 519.552C200.402 520.208 200.86 520.795 201.416 521.28V521.28Z" fill="#1A1A1A"/>
<path d="M238.133 426.559C238.133 426.559 240.834 495.784 238.754 525.44C234.02 528.835 228.369 530.718 222.544 530.842C222.544 530.842 218.464 460.617 217.951 450.732C217.951 450.732 216.167 432.555 214.681 473.717C214.681 473.717 213.574 501.726 213.006 507.83C213.006 507.83 205.766 520.254 199.173 516.986C199.173 516.986 198.66 444.304 200.659 412.163L238.133 426.559Z" fill="#1B1464"/>
<path d="M215.627 366.22C210.748 382.359 204.967 398.211 198.309 413.702C210.358 440.252 240.456 434.58 240.456 434.58C243.995 416.565 251.263 379.589 251.263 379.589C280.982 392.878 281.955 389.664 281.955 389.664C288.898 386.963 305.217 377.834 305.217 377.834C305.217 377.834 307.919 369.893 300.894 369.434C300.894 369.434 286.116 374.512 280.955 374.593C280.955 374.593 251.398 365.463 247.426 361.088C245.211 353.795 228.865 346.989 228.865 346.989C228.865 346.989 221.544 341.749 215.627 366.22Z" fill="white"/>
<path d="M246.265 316.009C244.386 315.55 242.435 315.464 240.524 315.759C238.612 316.053 236.777 316.721 235.124 317.724C233.47 318.727 232.031 320.046 230.888 321.606C229.744 323.165 228.92 324.935 228.46 326.813C227.272 331 229.406 336.266 232.783 340.642L230.379 349.204C231.027 357.847 240.726 353.93 240.726 353.93L241.888 348.529C242.49 348.813 243.113 349.047 243.752 349.231C251.317 351.365 253.56 342.749 255.829 334.673C256.442 332.82 256.68 330.864 256.53 328.919C256.38 326.973 255.844 325.077 254.954 323.34C254.064 321.604 252.837 320.061 251.346 318.803C249.854 317.544 248.127 316.595 246.265 316.009V316.009Z" fill="#FABCAF"/>
<path d="M263.799 317.333C263.799 317.333 259.071 333.836 246.994 331.594C246.367 334.261 245.924 336.968 245.67 339.697C245.67 339.697 240.699 319.034 239.916 345.531C239.916 345.531 232.729 354.552 227.65 337.968C225.677 331.54 223.894 316.361 232.297 313.498C237.376 311.769 242.888 314.983 247.589 316.604C249.937 317.43 252.378 317.966 254.856 318.197C255.91 318.278 263.502 318.71 263.799 317.333Z" fill="#71207D"/>
<path d="M231.216 346.368C231.216 346.368 231.216 351.284 240.807 351.446C240.807 351.446 246.427 352.364 247.535 361.034C247.535 361.034 243.59 356.226 240.888 356.604C231.324 357.928 219.706 346.8 231.216 346.368Z" fill="#DBDBDB"/>
</g>
<defs>
<linearGradient id="paint0_linear_85_1091" x1="394.294" y1="426.478" x2="51.8715" y2="228.733" gradientUnits="userSpaceOnUse">
<stop stop-color="white" stop-opacity="0"/>
<stop offset="0.18" stop-color="white" stop-opacity="0.01"/>
<stop offset="0.34" stop-color="white" stop-opacity="0.06"/>
<stop offset="0.5" stop-color="white" stop-opacity="0.13"/>
<stop offset="0.65" stop-color="white" stop-opacity="0.23"/>
<stop offset="0.79" stop-color="white" stop-opacity="0.36"/>
<stop offset="0.93" stop-color="white" stop-opacity="0.51"/>
<stop offset="1" stop-color="white" stop-opacity="0.6"/>
</linearGradient>
<linearGradient id="paint1_linear_85_1091" x1="587.875" y1="224.016" x2="386.625" y2="107.795" gradientUnits="userSpaceOnUse">
<stop stop-color="white" stop-opacity="0"/>
<stop offset="0.18" stop-color="white" stop-opacity="0.01"/>
<stop offset="0.34" stop-color="white" stop-opacity="0.06"/>
<stop offset="0.5" stop-color="white" stop-opacity="0.13"/>
<stop offset="0.65" stop-color="white" stop-opacity="0.23"/>
<stop offset="0.79" stop-color="white" stop-opacity="0.36"/>
<stop offset="0.93" stop-color="white" stop-opacity="0.51"/>
<stop offset="1" stop-color="white" stop-opacity="0.6"/>
</linearGradient>
<linearGradient id="paint2_linear_85_1091" x1="266.69" y1="182.664" x2="167.632" y2="125.459" gradientUnits="userSpaceOnUse">
<stop stop-color="white" stop-opacity="0"/>
<stop offset="0.18" stop-color="white" stop-opacity="0.01"/>
<stop offset="0.34" stop-color="white" stop-opacity="0.06"/>
<stop offset="0.5" stop-color="white" stop-opacity="0.13"/>
<stop offset="0.65" stop-color="white" stop-opacity="0.23"/>
<stop offset="0.79" stop-color="white" stop-opacity="0.36"/>
<stop offset="0.93" stop-color="white" stop-opacity="0.51"/>
<stop offset="1" stop-color="white" stop-opacity="0.6"/>
</linearGradient>
<linearGradient id="paint3_linear_85_1091" x1="106.665" y1="138.747" x2="36.8083" y2="98.4037" gradientUnits="userSpaceOnUse">
<stop stop-color="white" stop-opacity="0"/>
<stop offset="0.18" stop-color="white" stop-opacity="0.01"/>
<stop offset="0.34" stop-color="white" stop-opacity="0.06"/>
<stop offset="0.5" stop-color="white" stop-opacity="0.13"/>
<stop offset="0.65" stop-color="white" stop-opacity="0.23"/>
<stop offset="0.79" stop-color="white" stop-opacity="0.36"/>
<stop offset="0.93" stop-color="white" stop-opacity="0.51"/>
<stop offset="1" stop-color="white" stop-opacity="0.6"/>
</linearGradient>
<linearGradient id="paint4_linear_85_1091" x1="942.021" y1="1123.26" x2="564.325" y2="468.864" gradientUnits="userSpaceOnUse">
<stop stop-opacity="0"/>
<stop offset="0.86" stop-opacity="0.64"/>
<stop offset="1"/>
</linearGradient>
<linearGradient id="paint5_linear_85_1091" x1="786.967" y1="316.901" x2="656.451" y2="90.7441" gradientUnits="userSpaceOnUse">
<stop stop-color="white" stop-opacity="0"/>
<stop offset="0.21" stop-color="white" stop-opacity="0.01"/>
<stop offset="0.38" stop-color="white" stop-opacity="0.05"/>
<stop offset="0.52" stop-color="white" stop-opacity="0.11"/>
<stop offset="0.65" stop-color="white" stop-opacity="0.2"/>
<stop offset="0.78" stop-color="white" stop-opacity="0.32"/>
<stop offset="0.9" stop-color="white" stop-opacity="0.46"/>
<stop offset="1" stop-color="white" stop-opacity="0.6"/>
</linearGradient>
<linearGradient id="paint6_linear_85_1091" x1="619.675" y1="667.617" x2="573.631" y2="587.846" gradientUnits="userSpaceOnUse">
<stop stop-opacity="0"/>
<stop offset="0.86" stop-opacity="0.64"/>
<stop offset="1"/>
</linearGradient>
<linearGradient id="paint7_linear_85_1091" x1="473.483" y1="715.235" x2="434.649" y2="647.917" gradientUnits="userSpaceOnUse">
<stop stop-opacity="0"/>
<stop offset="0.86" stop-opacity="0.64"/>
<stop offset="1"/>
</linearGradient>
<linearGradient id="paint8_linear_85_1091" x1="355.848" y1="912.862" x2="252.526" y2="733.871" gradientUnits="userSpaceOnUse">
<stop stop-opacity="0"/>
<stop offset="0.86" stop-opacity="0.64"/>
<stop offset="1"/>
</linearGradient>
<linearGradient id="paint9_linear_85_1091" x1="618.594" y1="880.667" x2="548.758" y2="759.674" gradientUnits="userSpaceOnUse">
<stop stop-opacity="0"/>
<stop offset="0.86" stop-opacity="0.64"/>
<stop offset="1"/>
</linearGradient>
<linearGradient id="paint10_linear_85_1091" x1="709.075" y1="763.905" x2="652.04" y2="665.09" gradientUnits="userSpaceOnUse">
<stop stop-opacity="0"/>
<stop offset="0.86" stop-opacity="0.64"/>
<stop offset="1"/>
</linearGradient>
<linearGradient id="paint11_linear_85_1091" x1="825.035" y1="672.587" x2="784.5" y2="602.325" gradientUnits="userSpaceOnUse">
<stop stop-opacity="0"/>
<stop offset="0.86" stop-opacity="0.64"/>
<stop offset="1"/>
</linearGradient>
<linearGradient id="paint12_linear_85_1091" x1="798.855" y1="834.913" x2="764.72" y2="775.753" gradientUnits="userSpaceOnUse">
<stop stop-opacity="0"/>
<stop offset="0.86" stop-opacity="0.64"/>
<stop offset="1"/>
</linearGradient>
<clipPath id="clip0_85_1091">
<rect width="1386" height="867" fill="white"/>
</clipPath>
</defs>
</svg>
